<mxfile host="app.diagrams.net" modified="2022-09-06T15:17:45.765Z" agent="5.0 (Windows NT 10.0; Win64; x64) AppleWebKit/537.36 (KHTML, like Gecko) Chrome/104.0.5112.102 Safari/537.36 Edg/104.0.1293.70" etag="ND5YRL8y0KjYl_C8yVzb" version="20.2.8" type="github" pages="5">
  <diagram id="yNaVFir2sATI2JpIZOYR" name="Page-1">
    <mxGraphModel dx="903" dy="476" grid="0" gridSize="10" guides="1" tooltips="1" connect="1" arrows="1" fold="1" page="1" pageScale="1" pageWidth="1400" pageHeight="850" math="0" shadow="0">
      <root>
        <mxCell id="0" />
        <mxCell id="1" parent="0" />
        <mxCell id="gDujGl6M3sRKTZgsyxGK-60" value="AWS Cloud" style="sketch=0;outlineConnect=0;gradientColor=none;html=1;whiteSpace=wrap;fontSize=12;fontStyle=0;shape=mxgraph.aws4.group;grIcon=mxgraph.aws4.group_aws_cloud;strokeColor=#AAB7B8;fillColor=none;verticalAlign=top;align=left;spacingLeft=30;fontColor=#AAB7B8;dashed=0;" vertex="1" parent="1">
          <mxGeometry x="530" y="920" width="130" height="292" as="geometry" />
        </mxCell>
        <mxCell id="gDujGl6M3sRKTZgsyxGK-64" value="VPC" style="sketch=0;outlineConnect=0;gradientColor=none;html=1;whiteSpace=wrap;fontSize=12;fontStyle=0;shape=mxgraph.aws4.group;grIcon=mxgraph.aws4.group_vpc;strokeColor=#879196;fillColor=none;verticalAlign=top;align=left;spacingLeft=30;fontColor=#879196;dashed=0;" vertex="1" parent="1">
          <mxGeometry x="537" y="968" width="116" height="235" as="geometry" />
        </mxCell>
        <mxCell id="gDujGl6M3sRKTZgsyxGK-1" value="" style="edgeStyle=orthogonalEdgeStyle;rounded=0;orthogonalLoop=1;jettySize=auto;html=1;fontSize=10;" edge="1" parent="1" target="gDujGl6M3sRKTZgsyxGK-6">
          <mxGeometry relative="1" as="geometry">
            <mxPoint x="254" y="81" as="targetPoint" />
            <mxPoint x="214" y="81" as="sourcePoint" />
            <Array as="points">
              <mxPoint x="308" y="81" />
              <mxPoint x="308" y="81" />
            </Array>
          </mxGeometry>
        </mxCell>
        <mxCell id="gDujGl6M3sRKTZgsyxGK-2" value="" style="rounded=1;whiteSpace=wrap;html=1;glass=0;" vertex="1" parent="1">
          <mxGeometry x="54" y="34" width="160" height="90" as="geometry" />
        </mxCell>
        <mxCell id="gDujGl6M3sRKTZgsyxGK-3" value="Input" style="text;html=1;strokeColor=none;fillColor=none;align=center;verticalAlign=middle;whiteSpace=wrap;rounded=0;glass=0;fontSize=14;" vertex="1" parent="1">
          <mxGeometry x="104" y="64" width="60" height="30" as="geometry" />
        </mxCell>
        <mxCell id="gDujGl6M3sRKTZgsyxGK-4" value="&lt;font style=&quot;font-size: 10px;&quot;&gt;JSON&lt;/font&gt;" style="text;html=1;strokeColor=none;fillColor=none;align=center;verticalAlign=middle;whiteSpace=wrap;rounded=0;glass=0;fontSize=14;" vertex="1" parent="1">
          <mxGeometry x="54" y="34" width="60" height="30" as="geometry" />
        </mxCell>
        <mxCell id="gDujGl6M3sRKTZgsyxGK-31" value="" style="edgeStyle=orthogonalEdgeStyle;rounded=0;orthogonalLoop=1;jettySize=auto;html=1;" edge="1" parent="1" source="gDujGl6M3sRKTZgsyxGK-6" target="gDujGl6M3sRKTZgsyxGK-30">
          <mxGeometry relative="1" as="geometry" />
        </mxCell>
        <mxCell id="gDujGl6M3sRKTZgsyxGK-6" value="Provision+Configuration" style="rounded=1;whiteSpace=wrap;html=1;glass=0;" vertex="1" parent="1">
          <mxGeometry x="334" y="31" width="160" height="90" as="geometry" />
        </mxCell>
        <mxCell id="gDujGl6M3sRKTZgsyxGK-8" value="&lt;pre style=&quot;margin: 0px; padding: var(--su12); border: 0px; font-style: normal; font-variant-ligatures: normal; font-variant-caps: normal; font-variant-numeric: inherit; font-variant-east-asian: inherit; font-weight: 400; font-stretch: inherit; line-height: var(--lh-md); font-family: var(--ff-mono); font-size: var(--fs-body1); vertical-align: baseline; box-sizing: inherit; width: auto; max-height: 600px; overflow: auto; background-color: var(--highlight-bg); border-radius: var(--br-md); overflow-wrap: normal; color: var(--highlight-color); letter-spacing: normal; orphans: 2; text-align: left; text-indent: 0px; text-transform: none; widows: 2; word-spacing: 0px; -webkit-text-stroke-width: 0px; text-decoration-thickness: initial; text-decoration-style: initial; text-decoration-color: initial;&quot;&gt;&lt;code style=&quot;margin: 0px; padding: 0px; border: 0px; font-style: inherit; font-variant: inherit; font-weight: inherit; font-stretch: inherit; line-height: inherit; font-family: var(--ff-mono); font-size: var(--fs-body1); vertical-align: baseline; box-sizing: inherit; background-color: transparent; color: var(--black-800); border-radius: 0px;&quot;&gt;  vars:&#xa;    jsonVar: &quot;{{ lookup(&#39;file&#39;, &#39;var.json&#39;) | from_json }}&quot;&lt;/code&gt;&lt;/pre&gt;" style="text;whiteSpace=wrap;html=1;" vertex="1" parent="1">
          <mxGeometry x="347" y="156" width="300" height="50" as="geometry" />
        </mxCell>
        <mxCell id="gDujGl6M3sRKTZgsyxGK-11" value="&lt;pre style=&quot;margin: 0px; padding: var(--su12); border: 0px; font-style: normal; font-variant-ligatures: normal; font-variant-caps: normal; font-variant-numeric: inherit; font-variant-east-asian: inherit; font-weight: 400; font-stretch: inherit; line-height: var(--lh-md); font-family: var(--ff-mono); font-size: var(--fs-body1); vertical-align: baseline; box-sizing: inherit; width: auto; max-height: 600px; overflow: auto; background-color: var(--highlight-bg); border-radius: var(--br-md); overflow-wrap: normal; color: var(--highlight-color); letter-spacing: normal; orphans: 2; text-align: left; text-indent: 0px; text-transform: none; widows: 2; word-spacing: 0px; -webkit-text-stroke-width: 0px; text-decoration-thickness: initial; text-decoration-style: initial; text-decoration-color: initial;&quot;&gt;Create separate modules for Terraform components.&lt;br/&gt;These components should be GENERIC.&lt;/pre&gt;" style="text;whiteSpace=wrap;html=1;" vertex="1" parent="1">
          <mxGeometry x="347" y="208" width="300" height="50" as="geometry" />
        </mxCell>
        <mxCell id="gDujGl6M3sRKTZgsyxGK-14" value="terraform apply -var-file=variable-values.json" style="text;whiteSpace=wrap;html=1;" vertex="1" parent="1">
          <mxGeometry x="347" y="255" width="265" height="36" as="geometry" />
        </mxCell>
        <mxCell id="gDujGl6M3sRKTZgsyxGK-15" value="" style="shape=waypoint;sketch=0;fillStyle=solid;size=6;pointerEvents=1;points=[];fillColor=none;resizable=0;rotatable=0;perimeter=centerPerimeter;snapToPoint=1;" vertex="1" parent="1">
          <mxGeometry x="314" y="156" width="40" height="40" as="geometry" />
        </mxCell>
        <mxCell id="gDujGl6M3sRKTZgsyxGK-16" value="" style="shape=waypoint;sketch=0;fillStyle=solid;size=6;pointerEvents=1;points=[];fillColor=none;resizable=0;rotatable=0;perimeter=centerPerimeter;snapToPoint=1;" vertex="1" parent="1">
          <mxGeometry x="314" y="208" width="40" height="40" as="geometry" />
        </mxCell>
        <mxCell id="gDujGl6M3sRKTZgsyxGK-17" value="" style="shape=waypoint;sketch=0;fillStyle=solid;size=6;pointerEvents=1;points=[];fillColor=none;resizable=0;rotatable=0;perimeter=centerPerimeter;snapToPoint=1;" vertex="1" parent="1">
          <mxGeometry x="314" y="248" width="40" height="40" as="geometry" />
        </mxCell>
        <mxCell id="gDujGl6M3sRKTZgsyxGK-22" value="" style="edgeStyle=orthogonalEdgeStyle;startArrow=none;endArrow=none;rounded=0;targetPortConstraint=eastwest;sourcePortConstraint=northsouth;" edge="1" target="gDujGl6M3sRKTZgsyxGK-24" parent="1">
          <mxGeometry relative="1" as="geometry">
            <mxPoint x="143" y="124" as="sourcePoint" />
          </mxGeometry>
        </mxCell>
        <mxCell id="gDujGl6M3sRKTZgsyxGK-23" value="" style="edgeStyle=orthogonalEdgeStyle;startArrow=none;endArrow=none;rounded=0;targetPortConstraint=eastwest;sourcePortConstraint=northsouth;" edge="1" target="gDujGl6M3sRKTZgsyxGK-25" parent="1">
          <mxGeometry relative="1" as="geometry">
            <mxPoint x="143" y="124" as="sourcePoint" />
          </mxGeometry>
        </mxCell>
        <mxCell id="gDujGl6M3sRKTZgsyxGK-24" value="" style="whiteSpace=wrap;html=1;align=left;verticalAlign=middle;treeFolding=1;treeMoving=1;spacingLeft=6;" vertex="1" parent="1">
          <mxGeometry x="33" y="164" width="100" height="211" as="geometry" />
        </mxCell>
        <mxCell id="gDujGl6M3sRKTZgsyxGK-25" value="Instance type&lt;br&gt;Region&lt;br&gt;AZ" style="whiteSpace=wrap;html=1;align=left;verticalAlign=middle;treeFolding=1;treeMoving=1;spacingLeft=7;" vertex="1" parent="1">
          <mxGeometry x="153" y="164" width="100" height="212" as="geometry" />
        </mxCell>
        <mxCell id="gDujGl6M3sRKTZgsyxGK-26" value="Ansible&lt;br&gt;Inputs" style="text;html=1;strokeColor=none;fillColor=none;align=center;verticalAlign=middle;whiteSpace=wrap;rounded=0;" vertex="1" parent="1">
          <mxGeometry x="38" y="177" width="85" height="30" as="geometry" />
        </mxCell>
        <mxCell id="gDujGl6M3sRKTZgsyxGK-27" value="&lt;div style=&quot;text-align: left;&quot;&gt;Load Generator&amp;nbsp;&lt;/div&gt;&lt;div style=&quot;text-align: left;&quot;&gt;Web Servers&lt;/div&gt;&lt;div style=&quot;text-align: left;&quot;&gt;Protocol&lt;/div&gt;&lt;div style=&quot;text-align: left;&quot;&gt;Application Servers&lt;/div&gt;&lt;div style=&quot;text-align: left;&quot;&gt;Database&lt;/div&gt;&lt;div style=&quot;text-align: left;&quot;&gt;Caching&lt;/div&gt;" style="text;html=1;strokeColor=none;fillColor=none;align=center;verticalAlign=middle;whiteSpace=wrap;rounded=0;" vertex="1" parent="1">
          <mxGeometry x="53" y="270" width="60" height="30" as="geometry" />
        </mxCell>
        <mxCell id="gDujGl6M3sRKTZgsyxGK-28" value="Terraform&lt;br&gt;Inputs" style="text;html=1;strokeColor=none;fillColor=none;align=center;verticalAlign=middle;whiteSpace=wrap;rounded=0;" vertex="1" parent="1">
          <mxGeometry x="159" y="177" width="88" height="30" as="geometry" />
        </mxCell>
        <mxCell id="gDujGl6M3sRKTZgsyxGK-30" value="Desired State" style="rounded=1;whiteSpace=wrap;html=1;glass=0;" vertex="1" parent="1">
          <mxGeometry x="672" y="31" width="160" height="90" as="geometry" />
        </mxCell>
        <mxCell id="gDujGl6M3sRKTZgsyxGK-35" value="Modules for terraform" style="text;whiteSpace=wrap;html=1;" vertex="1" parent="1">
          <mxGeometry x="347" y="291" width="265" height="36" as="geometry" />
        </mxCell>
        <mxCell id="gDujGl6M3sRKTZgsyxGK-36" value="" style="shape=waypoint;sketch=0;fillStyle=solid;size=6;pointerEvents=1;points=[];fillColor=none;resizable=0;rotatable=0;perimeter=centerPerimeter;snapToPoint=1;" vertex="1" parent="1">
          <mxGeometry x="314" y="284" width="40" height="40" as="geometry" />
        </mxCell>
        <mxCell id="gDujGl6M3sRKTZgsyxGK-43" style="edgeStyle=orthogonalEdgeStyle;rounded=0;orthogonalLoop=1;jettySize=auto;html=1;entryX=0.416;entryY=-0.127;entryDx=0;entryDy=0;entryPerimeter=0;" edge="1" parent="1" source="gDujGl6M3sRKTZgsyxGK-38" target="gDujGl6M3sRKTZgsyxGK-39">
          <mxGeometry relative="1" as="geometry" />
        </mxCell>
        <mxCell id="gDujGl6M3sRKTZgsyxGK-38" value="" style="shape=image;verticalLabelPosition=bottom;labelBackgroundColor=default;verticalAlign=top;aspect=fixed;imageAspect=0;image=data:image/png,iVBORw0KGgoAAAANSUhEUgAAAqYAAAKlCAYAAAAZ7y4xAAAACXBIWXMAAC4jAAAuIwF4pT92AAAgAElEQVR42u3d35WqbHvA4V2CJViCJVhBlgXkgBIswRIsgRJcqYASKMGTnNPBRL+FO7y+6PjnAe4HroNrJXmzZ4ZBkN/ALfz5+fn5AwAAU7MSAAAQpgAAIEwBABCmAAAgTAEAEKYAACBMAQAQpgAAIEwBABCmAAAgTAEAEKYAACBMAQAQpgAAIEwBABCmAAAgTAEAEKYAACBMAQAQpgAAIEwBABCmAAAgTAEAEKYAACBMAQAQpgAAIEwBABCmAAAgTAEAEKYAACBMAQAQpgAAIEwBAECYAgAgTAEAQJgCACBMAQBAmAIAIEwBAECYAgAgTAEAQJgCACBMAQBAmAIAIEwBAECYAgAgTAEAQJgCACBMAQBAmAIAIEwBAECYAgAgTAEAQJgCACBMAQBAmAIAIEwBAECYAgAgTAEAQJgCACBMAQBAmAIAIEwBAECYAgAgTK0EAACEKQAACFMAAIQpAAAIUwAAhCkAAAhTAACEKQAACFMAAIQpAAAIUwAAhCkAAAhTAACEKQAACFMAAIQpAAAIUwAAhCkAAAhTAACEKQAACFMAAIQpAAAIUwAAhCkAAAhTAACEKQAACFMAAIQpAAAIUwAAhCkAAAhTAACEKQAACFMAABCmAAAIUwAAEKYAAAhTAAAQpvDMf//X/24ujhcr6wMAhClMGabbi5+L5mJvnQCAMIWpw/Smvv436wYAhClMHaY3p4u1dQQAwhSmDtObg/lTABCmECFMb/OnhfUFAMIUpg7Tm8r8KQAIU4gQpjel+VMAEKYQIUxvl/fNnwKAMIXJw/TmfLGzLgFAmMLUYdqdP91YpwAgTGHqMO3On7q8DwDCFCYP07/zp9YvAAhTmDpMu/OnW+sZAIQpTB2m3fnTtfUNAMIUpg7Tm6P5UwAQphAhTD3eFACEKYQJ05va/CkAwtRKgAhhenMyfwqAMAUihOmNx5sCIExBmIYI09vtpcyfAiBMQZiGUZk/BUCYgjCNpDR/CoAwBWEahcebAiBMQZiGcp0/3XnNABCmIEwjzZ9uvHYACFMQplF4vCkAwhSEaaj5073XEQBhCsI00vzp1usJgDAFYRpp/nTtdQVAmIIw/fF4UwAQpiBM/z1/WniNARCmIEyjqM2fAiBMQZhGcjJ/CoAwBWEa6vGm5k8BEKYgTCPdXsr8KQDCFIRpqNtLmT8FQJiCMA2jdHkfAGEKwjTU/KltAgBhCsI00vzpzrYBgDAFYerxpgAIUxCm9DiaPwVAmIIwjTR/ure9ACBMQZhGmj/d2m4AEKYgTD3eFABhCsKUHh5vCoAwBWEaav60sC0BIExBmEZRmz8FQJiCMI32eFPzpwAIUxCmcR5vav4UAGEKwtTjTQEQpiBM6WH2FABhCsJUmAIgTEGYIkwBEKYgTIUpAMIUhCnCFABhCsJUmAIgTEGY8nGYtvc9dXN+Zmu7/Z/i4mxdgDAFYZpHmLo5P3MM0u1FdfFzZZ2AMAVhmk+Yujk/cwnS1UV5C1JhCsIUhGm+YXpTXWxsq2QWpYeL5j5KhSkIUxCmeYfpTenyPhkE6e46R9oXpMIUhCkI0/mE6d/5U9stAYN0050jFaYgTEGYzj9Mu/OnbkFFlDnS4ytBKkxBmIIwnWeYdudP3V6KqaJ0/2iOVJiCMAVhurwwvTmaP2Xk2z+d3w1SYQrCFITpMsL0Nn+6t00zYJCuX50jFaYgTEGYLjtMb2rzpwwwR3r4NkiFKQhTEKbLC9Obk/lTEkRp8ckcqTAFYQrCVJj28XhTPp0jrVMGqTAFYQrCVJje5k8L2zsvzpGehghSYQrCFISpML2/vZT5U57NkTZDRqkwBWEKwlSY9j3e1Pwp3TnS89BBKkxBmIIwFaYeb8qjIN2kuP2TMAVhCsJUmKZyfbzpzr6wuMv25dhBKkxBmIIwFabvzJ9u7BOzj9JR5kiFKQhTEKbCNNX8qdtLzS9Id2POkQpTEKYgTIVpyvlTjzedz+2fqghBKkxBmIIwFabfzp+6vVS+c6THSEEqTEGYgjAVpqnmT91eKp8o3U89RypMQZiCMBWmQzuaPw0dpNsoc6TCFIQpCFNhOtb8aWHfCTdHeooepMIUhCkIU2E6lNr8aYg50kMuQSpMQZiCMBWmQzuZP50kSovIc6TCFIQpCFNhOuXl/YP509HmSOscg1SYgjAFYSpMx769lPnT4eZIy5yDVJiCMAVhKkynur2U+dO0c6TNHKJUmIIwBWEqTD3eNM8o3eVw+ydhCsIUhKkwzWr+1L72VpBuoj1GVJiCMAVhKkzn5Dp/urPP/XrZvpxrkApTEKYgTIVpxPnTjX3vX1E6qzlSYQrCFISpMM2Jx5v+5PMYUWEKwhSEqTCdu+v86X7Bt3+qlhSkwhSEKQhTYZrL/Ol2IUF6nSM9LjFIhSkIUxCmwjS3+dP1jKN0v5Q5UmEKwhSEqTCdi1k93nQOjxEVpiBMQZgK0yVrcn+8aTtHehKjwhSEKQhTYToPdW7zp53HiApRYQrCFISpMJ3p403XGURpYY5UmIIwBWEqTJdxeT/k/Gk7R1oJT2EKwhSEqTBd3u2liiBBul7CY0SFKQhTEKbClMCPN13SY0SFKQhTGCtMV+38ntARpjnPn65GDNLd0h4jKkxBmMIUZ04rkSNMc54/HThIN+ZIhSkIUxg3UIt2hk/sCNNc5093A9z+yRypMAVhChNe3hdKwnTxjzf1GFFhCsIU4gTq+uIkcoRpxo6fzJ+2t38yRypMQZhC0PnTWuQI04znT/dv3P7JHKkwBWEKGQTqvj3Iix1hmp03bgElIIUpCFPIaP70KHSEqTBFmIIwhUjzp24vJUyFKcIUhCmEmj91eylhKkwRpiBMIUygHsyfClNhijAFYQqR5k893lSYClOEKQhTCBOoG/OnwlSYIkxBmEKkQN2ZPxWmwhRhCsIUIl3eX/r8qTAVpghTEKYQ7PZSpTAVpsJUmALCFCLdXqoWpsJUmApTQJhClEAtFnR5X5gKU4QpCFPIZP5UmApTYSpMQZgCYeZPT8JUPApTYQrCFIg0f3oWpghTYQrCFIgSqPuZzZ8KU2GKMAVhCpnPnx6FKcJUmIIwBSLNn1bCFGEqTEGYAlECNefHmwpTYYowBWEKMwzUHB9vKkyFKcIUhCnMeP60FKYIU2EKwhSIdHupSpgiTIUpCFMgSqAWwedPhakwRZiCMIWFXd6POn8qTIUpwhSEKSz09lInYYowFaYgTIFI86e1MEWYClMQpkCk+dNGmCJMhSkIUyDS/KkwFabCVJiCMAXCzJ9WwlSYClNhCsIUiDR/ehamwlSYClMQpkCUQN2PNH8qTIUpwhSEKfDS/GkpTIWpMBWmIEyBKIG6GXD+VJgKU4QpCFPg7UDdDTB/KkyFKcIUhCnwcaCmfLypMBWmCFMQpsDXt5cqhakwRZiCMAUi3V6qEqbCFGEKwhSIEqjFh/OnwlSYIkxBmAKD3F7qIEyFKcIUhCkQaf70JEyFKcIUhCkQaf60FqbCFGEKwhSIEqjPHm8qTIUpwhSEKTD6/OlRmApThCkIUyDS/GklTIUpwhSEKRBp/vQsTIUpwhSEKRDmEr8wFaYIUxCmQC7xKkyFqTAFYQogTIWpMBWmIEwBhKkwFaYgTAGEqTAVpsIUhCmAMBWmwhQQpkDMT+4/uDk/wnQuzhdb+zsIUyCfQL2/OT/CNHfNxd7+DcIUyDdQd+3N+UWlMM1ZebGyT4MwBeYze9oIS2GamepiYx8GYQrMc/60FJfCNJM50p39FoQpMP9A3Zg/FaaB50gP9lMQpsDyArUwfypMg82Rru2bIEyBZV/eN38qTKeeI3X7JxCmAP+4vZT5U2E69hxpYf8DYQrwKFC3F7UAFaYDO7j9EwhTgHfmT13eF6apncyRgjAFlhOU13nR0/XSfML5U0EqTL9VmyMFYQosM0x/2rOd1/99leB7rtvYFabC1GNEQZgCvB2mN9fbQRWJvvfW7aWE6RuO5khBmALCtC+orjfU3yb6Gfslz58K05du/2SOFIQpIEx/nQktE13ev86fHoWpML27/ZM5UhCmAC+H6d/500Q/b3GPNxWmHiMKwhQgXZh25093iX7ubinzp8L0X48RNUcKwhTg6zDtzp9uEv78RpjOPkyvc6Qb+xwIU4DUYXpzTDh/WgrT2c6R7uxrIEwBhg7T2/zpPtGybOc4f7rQMG08RhSEKcDYYdqdP011e6liTvOnCwzT0u2fQJgCTBmmN6kfb9oI06zmSN3+CYQpQJgwvfF40+WE6fWyfWF/AmEKEDVMb/OnRaLlvM6f1sI0HHOkIEwBsgjTmzrx/GkjTCd3MkcKwhQgxzDtPt401fzpUZhOojZHCsIUYA5h+vfxpgnnTythOtoc6d4+A8IUYE5h2r29VMr507MwHczRHCkIU4A5h+kQjzfdR5w/zThMK3OkIEwBlhSm3fnTWT7eNMMw9RhREKYAiw7Tv/OniX6vTZT504zC9D+PEbVfgDAFEKb/nD/dJfr9dlPPn2YSpqU5UhCmAML0+fzpOuHv2QjT3jnSjX0BhCmAMH3NMeHtpUph+neOtLAPgDAFEKafzZ/uE/3O2zHnT4OFaeMxooAwBYRpzMebnhcUpqXbPwHCFBCm6Z0SPt70MPMw9RhRQJgCwnQEKR9veppZmDbmSAFhCgjT8edPi0TrY9uOC+QepuZIAWEKCNOJby+Vav402eNNRw7TkzlSQJgCwjSOMuH86TGTMD2bIwWEKSBM417eTzl/WgUN0+sc6d62DAhTQJjGl/LxpttPbi81YJgezZECwhQQpnnOn24SrrNmwjCtzJECwhQQpvOYP01xeX/16uNNE4bpdY50Z7sFhCkgTOc1f5rq8aab3+ZPE4Tpfx4jansFhCkgTOc9f7pNtB53j+ZPvwzT0hwpIEwBYbocVeLHmzYJwrRy+ydAmALCdLmOCW8vVX4YpmePEQWEKSBMGeTxpi+G6d5jRAFhCghTMdqnTjV/CiBMAYRpCqcU86cAwhRAmKaS5PGmAMIUQJimur2UDyYBwhRAmIa6vZT5U0CYAgjTeT3eFECYAgjTVLeXOtiWAGEKIEwjzZ/ubFOAMAUQppHmTze2LUCYAgjTWT3eFECYAsKUVPOne9sZIEwBhGkItjNAmAIIU2EKIEwBYYowBYQpgDAVpgDCFBCmCFNAmAIIU2EKIEwBYYowBYQpgDAVpgDCFBCmCFNAmAIIU2EKIEwBYYowBYQpgDAVpgDCFBCmCFNAmAIIU2EKIEwBYYowBYQpgDAVpgDCFBCmCFNAmAIIU2EKIEwBYYowBYQpgDAVpgDCFBCmCFNAmAIIU2EKIEwBYYowBYQpgDAVpgDCFBCmwlSYAsIUQJgKUwBhCiBMhSkgTAGEqTAFEKYAwlSYAghTQJgKUwBhCiBMhSmAMAWEqTAFEKYAwlSYAghTQJgiTAFhCiBMhSmAMAWEKcIUEKYAwlSYAghTQJgiTAFhCiBMhSmAMAWEKcIUEKYAwlSYAghTQJgiTAFhCiBMhSmAMAWEKcIUEKYAwlSYAghTQJgiTAFhCiBMhSmAMAWEKcIUEKYAwlSYAghTQJgiTAFhCiBMhSmAMAWWFaYrcSpMAWEKEClQ1xeVkBSmgDAFiBKo24uzoBSmgDAFiBKo+4tGWApTQJgCRJk/PYpLYQoIU4AogboxfypMAWEKEClQd+ZPhSkgTAEiBerB/KkwBYQpQJQ4vd5eqhSewhQQpgBRAnVr/lSYAsIUIFKgFuZPhSkgTAGixKnHmwpTQJgChJs/PYlSYQoIU4BI86e1MLUtAMIUIEqgLvrxprYBQJgCxJs/PQpTAGEKEGn+tBKmAMIUINL86VmYAghTgCiBOvvHm3qdAWEKkNf8aSlMAYQpQJRA3cxx/tRrCwhTgHwDdTen+VOvKSBMAfK/vD+L+VOvJyBMAeYRqOvc50+9joAwBZhXoGb7eFOvHyBMAeYZqEVul/e9boAwBZj//KkwBRCmAGHmT0/CFECYAkSaPz0LUwBhChAlUPcR50+9NoAwBVju/OlRmAIIU4BI86eVMAUQpgBRAnXyx5t6HQBhCkA3UCd7vKn1DwhTAPrmT0thCiBMAaIE6nbM+VPrHBCmAPwWqMUY86fWNSBMAXj18v6g86fWMyBMAXgnUAd7vKn1CwhTAD6dP62FKSBMAYg0f9oIU0CYAhBp/lSYAsIUgDDzp5UwBYQpAJHmT8/CFBCmAEQJ1P0786fWGSBMARh6/rQUpoAwBSBKoG5+mz+1ngBhCsCYgbp7NH9q/QDCFIApAvVfjze1XgBhCsBUcbruzp9aJ4AwBWDqQL3eXqqyLgBhCgAAwhQAAGEKAADCFAAAYQoAAMIUAABhCgAAwhQAAGEKAADCFAAAYQoAAMIUAABhCgAAwhQAAGEKAADCFAAAYQoAAMIUAABhCgAAwhQAAGEKAADCFAAAYQoAAMIUAABhCgAAwhQAAGEKAADClOw3oj9/Nhfbi5X1AQAI03yj7hp0P3e2v3zNW/9+hN+h6ixLc1F88D1e+p2u3/vi1P6cnx7ndnmOF2vbGAAIU5YbpleH1GF6PRt7UT+I0V62LwAQpgjTIcL0rSi9nlG1fQGAMEWYJg3T9vJ9b3y2P/umG6+V7QsAhCnC9JD4+5c9v/P+yb9fXz+QZfsCAGHKxGHazmNev+/uGol3Xvr0fPvv9ndfW7T/ff1qmLaRuLv7HqsHP69r9eT711+s79u66f5e+2frvPM1fcu27n7Yq3OHgm03jtv/Xvy2HgBAmDKbMH1wdrHP8cmn3psXvn7zJBzLNr7OD762vo+yX36nf33/D4P0t3Vz7jsT2/Ma3QK9uh8buFvWcxvl9ZNRhMJ+AADCdK5henzjA0LHF5bl10+894TjK8ovwvTwQZTWXyzbtidge9fHh+tia18AAGEaNUz3PZe2u55F3P7NKFp/cLa1SRCm5xHDtPwmFl8J9i/Xxcm+AADCNGqYfhNRt5nOTc/P2n97yfx+dvKXGGvaKDy+cNZ1yDBtekYJdp2zqX3jC+WLr1FzN1Pbty6q9jVZtU5ubQUAwnT2YfrCzzs/+aDSRwHY9+Gk+9nJvigeI0zbDx09nI99MgJRvfAaHXpmZavfZnn7vp99AQCE6RLDtHojTJs2vjaffs9XY2zAMH0pAtszmu+E6XqodQEAwpRIYVr23Oap69cwfXC7p8MvZ0yPv1yyLm+XwGcYptt3wnTISAcAYcpcPpW/eXKbpt7L0R98ev0kTIUpAAhTYfpbxJ3fHAPoC6ei5wM693bCVJgCgDAVpr3//sEHfapXL+U/+fBQ+cuZ1rHDtJp6xlSYAoAwFabPw3T77F6hiT95P2WYNq8+zvPVDy71zO4KUwAQpsJ0qDBt73H67MNPm0efwO+ZPR0zTA8PHmta9Dx84PaBr+OT7326e979tuc+pqdEYVr23FKqFKYAIEznHqbrBwFXPflQ06NP5d++7tHXFiOG6fqDW2jVna9/NC9b9wRp3+/3TZi+8vM8+QkAhKkPP73w1KJHt45ajRWmT86avvqY0PWTAO1TfXrp/cNHku7sCwAgTOcYppsnEdb0nD3shmnzYpQWqecqX7w36+7N8F7frZdXovHYc+l9yDDd2w8AQJhGCdNVz5zk6oWYffjv2zOE+zZCb5/KLzrPau9+7brnU/hF+zVl53L+3+/x4JP7D7/no9/znd+p598e2oi8Ld+pc+eB7ZMnM216vvb2u61ffY3enDG9LdfpblnX9gEAEKYw1B8aH99zFQCEqZUAwhQAhCkIUwBAmIIwBQBhCsIUABCmMHSYNu3/LH+79RcAIEwBABCmAAAgTAEAEKYAACBMAQAQpgAke9P+82d7UVxvRdaqepw6//99+zUb6w8QpgB8E6LrNjDru3vkfqpub2V2jdu1dQwIUwBeOTNaJYrRZw7WNyBMAegL0lV7Kf5nJDvrHRCmANxH6aZ9ctjPiLbWPSBMuZ8fWzTbAt4LJonSq5X1DwhTunNkP0tnW8Dl+0mi1L4HCFOEqYMj/ON9oJpo36usf0CYIkyFKUR4Dzh5DQBhijAVpjD12VK3igKEKcJUmMI/PvA05b5XeB0AYYowFaZw3f+PE+97bhUFCFOEqTCF/+z/54n3vbXXARCmCFNhin1/lXg/atp51VN7f+Cy/b+vavsdIEwRpsIUht7361cvybcxfP25ex98AoQpwlSYwm3f3yeKUk9uAoQpwlSYwlf7/sGMKIAwFabCFCLs++W3Z0utR0CYIkyFKaTY97+9sX5pPQLCFGEqTCFCmPrwEiBMGeSWMduBJfnU75BsCwhTYQpgJSzjAPhtmFbWIwhTAGGKMAVhKkwBYYowFaYgTAGEKcIUhKkwBYQpwlSYgjAFEKYIUxCmwhQQpgjTiGF6fezi3e2lDne6/7/Vgl7X663GdoGXrRjw+2/uXveiZ7soIm8bSwnTu9dg98v+u17Ye3PYffiF/W7feQ13U+1jd7dc7G5f+/a/bXSAMEWYfvvGt28f11h/s8wXxzZOVjN7Pbft+mna33UbaNmuB4ZT53VYffnHyKF9Hasvt4euc/v9bgfUlTBNF1md16v58t7Jp1u4zvA9eXf3SNp1sOVbd/7Ye/e1PLfbwHqg977b8eHd/ec05B/LCFNmFKbtm+CxfUMb6ulS1VCR2r55f7JM+zd/TvFgHW0HWLbtm0Gyf3fZeg6CxwSxNvn2kdET16pE++4+4R8NjzRtjOwGeg/6dD/ZvbmfjLUPrz4M0TLx+/Dxm32qPVFxSPy+cM7pLLUwRZiOGKbtX79jh0jTvtGtAhzUDi8ezA6/nLEoAi/bswPu0H+MTLJ9ZBSmhwRn7adY7vMM9+HUYboL9EdF/c7l9M7Z5Gbg5Sr1gTBFmHbfEE8TH5TPqS4RfnFQq375vvsX35wPAyxb+eWB9tezwsGjrXn3jPYSwrTdd8tAr1Ex8T6caj9JvQ+Xv1zdqCd4rda/nBkdI0bFqTBFmPb+NdzM4axRgoNa/eYl+4eXy8aK5g+W7TDgjOUoB64PLovOMkzb174J+HtU3549Db6ffLJsTc8Z7qlPBtQPRhvq3I8BCFMyDdMv3vxD/9X8ze/Vc9agSvn6fLFsfQe2OvEZpVMmAVe/Ez4ZhWnxxu9UZnCGexNgH/50POk0wLJtPgjkwSPwzTPJY1lrBWHKwsI0gwNbOVFwr9s36uMQr8+3B9x22cpoyxZ5+8jod9rOZN/9Ok6/3BZX9pO3XqOIZ91PWkGYsqAwbf9qz+FNcz/BQe2Y4o068LLVv4x15HRQ3S8tTDOK0q/iNMB+cl5ImEbmrKkwZQlh2l5OyunNaZPjiEKmy7bJMHpWMwrTzQsfvssxMM4fzAXbhznqBWHKMsL0nNmbU5VjmD76az/yATeziHvn9kBZ/C4z+4Pyq0uzwpRnV3cQpswkTDN+Q91m+HtuAy/b5sm6q+d21nQmYVrNIDS29mGGfDABwpSMwrT9MECT6ZtTlWGY7nI74Gb2yfyXP82ee5i2nyyfQ2SchSlDnpRAmJJXmBaZv0GtMzuoHQIvWzGzs+qnGYRpPfOzpW89MjTIdrgXpvnf1xphStwwTXmJtmk/+brru9TSnp3dpvqE+7uf0BemX908vPjlQyxV+8nwQ/thnG3H6snTibbt9nIY4Kxs88Jl8Fd8/UnuN37WvePIs6Xn9nU49DgmWh8fz5rah/EBKGHKjMO0DYOkN2R+c4TgOOQZpYAHjibw2Zbm2VmrNiCbNkwObUxuBtgHVonXxSbBMlXRzu4k2ne6r/3hzasPuwHO2K4z2Yd3wjS/D78iTMkjTFPdZqb44ndOMUqwCh6m59/CfeJlKwLuC6nmJ3czDdNUd9Eov/kgSecPllHeR6beT4Ltw90/FIvOFYpi4vvanjtXT7pXTvYJr9AJU2HKTMM0xaXTfYAD/zZomL4cfZGXbcL94fAnwCxatDBNeKWjTLQ8m0RxerIPv7Q8xxcfurD5M84HW5v2WFK8eNa7FKbCFGE61FmXOuGBbfAD/4gHtebdGBlx2cIH6d1l/cln0QKGaRHtwJ7oDPc52D5cBNmHb7P70R4qcvr0vSTKsQdhSqAwTXTQLxL+7uehz/yMcFBr3p21zWHZJt4nTlMHWMAwTbGtbAd4rVLMnK7sw/+/7X77Hpv4cwQfzSMPta40gzBlfmG6/TPSbOeLy1MO/XsPfFArv3mzHmHZVpnuEwdhmnx56oFeq93QwRx5P0m4bGXKPxzGmrEde1vRDMIUYfrxTbFHeFM/Txh/dYqDyEDLVg3xyXlhmn2YHgO/hxUT7ScR9uHzt2ciB3pNjgMs01aYClOEabgDfsq5uQnir0nxwa8Bl62YyT6xE6bJ3yd2A75e9ZDrKvJ+Eu09NeH2shWmCFNhusQw3WYUpqfUl8YTXwZczWif2ArT+KEx1rqKvJ8IU2EqTBGmwnTsMG2GOqhHXjZhKkxHmhUfI0wj78PCVJgKU4SpMI1x77zIyyZMhemI2/HBPixMhakwRZgKUwc1YSpMhakwFaYIU7IN01CEqTAVpsLUPixMEaYIU2EqTIWpMBWmwlSYClOEqTAVpsJUmApT+7AwRZgiTIWpML0t++Z6T9f2ed5VgntZJr15ujAVpsJUmCJMEabCdMZh2j6D+9g+rSbytiFMhakwFaYIU4SpMJ1jmF5vSt4GaS7bhjAVpsJUmCJMEabCdG5h2l6yP2e2bQhTYSpMhSnCFGEqTOcUpm2UNhluG8JUmApTYYowRZgK07mEaXv5vsl02xCmwlSYClOEKcJUmM4oTE8ZbxvCVJgKU2GKMEWYCtOZHNS2mW8bwlSYClNhijBFmArTmRzUTsJUmApTYSpMEabCVJgK00mXrZ0t/RGmwlSYClNhijAVptHDtMpw/TqovbdMhTAVpsJUmApThKkwFabCNEKYpryRftMG3rtqYdFAb94AAAWASURBVCpM7cPCVJgKU4SpMBWmVYJt8hq36wkPYMJUmApTYYowRZgK0xmEaTN1kAnT7ML0JEyFqTAVpghTYSpMq2DbYxPkACZMxw3TSpgKU2EqTBGmwlSYRgvTkzAdLEy/PZO9H3A7PgtTYSpMhSnC9JMw3UY4IyZMYy5bgu3jIEwHC9Nvl6ccaBteDx1B9mFhKkyFKcL0mbUwFabCdPQwPUX8o/J6JlaYClNhKkwRpp+GaYqbp++FqTAVpqOHaYqHYxQBL+P/2IeFqTAVpiw0TBPNqp2F6WzDdPPtbaKE6WBhmuJqx3XfXwWL5do+LEyFqTBl2WGa5D6VE6yn1SdjBA5qo26PlTAdLExTPSq2ThGnCZ8QdrQPC1NhKkxZdpgeEh1QDiOsm227vNWnn/p2UBt9e1x/GV+HBGf1ZxemCf+ovJ053X3xGpUJnw62sw8LU2EqTFl2mG4SHlTOqebW2uXa3YXo1x/gcFAbfWaw+vCAlTJ25hqm+4Tr6Lb/7l/48NGq3TfLxD+/sQ8LU2EqTFl4mKb6wELfcrRv0of2DajPrvNvyvZrzkOekXNQm+SsXN1e6l09OUAV7TbQDLEtzjRMVwOsq/szqVVHPfDPK+3DwlSYClOEacrL+VPYCdNBw3SIbaMeKEAXFabtcpUZ77sf/ZFpHxamwlSYMv8wXY0cCikdhOmgYbqdQfDMOUzXM4nS0j4sTIWpMEWYzuGsaSVMBz+oNcI0ZpjO4IrHbWRgbR8WpsJUmCJM78+annM8qAnTwQ9qpTANHaa57rsfPaTDPixMhakwZQFhmvllW2dbhj2obYRp3DDtvEY5ntl2yzdhKkyFKcJ01FvQhPoAlIPax8t2Eqbh7/NbZPa6fHRzf/uwMBWmwpQFhWmml26PDmqDL9s641nTRYRpZnH68ROn7MPCVJgKUxYWphmeOa0c1IZdtiDRUwvTWVzWL795DKp9WJgKU2HKAsO088aRxYcqHNSGD9MJz6ZX7RnbQpi+9YGoaOMXTYonw9mHhakwFaYsNEw7B7iot6O5RvPxeobIQW2cMB359kRV94D4xZOOFhemneXeBfnj8quzpPZhYSpMhSnCtG/G8BDgEuHtUacbB7VpwnTgs+lNGzGbBz+3FqYfB2o1wRnS47uPDbYPC1NhKkyJFabVl44jHeTKEc7EnNvLkYdUb4zt5eCQ6zfysj05m75PsB3cYnT3ws/cT7Fe2sD65rUpgry/rDvrcKh99qXX0j483rIlOK5sBlimzbfLpRmEKTw60G3beCzbN4z6jYPY7U2mbL9HMcRf54zygZtD+1qef/kAU9V5rTfW36Sv27YN1UNnX3zlqkh9t9/uUp8ZBYQpAAAIUwAAhCkAAAhTAACEKQAACFMAAIQpAAAIUwAAhCkAAAhTAACEKQAACFMAAIQpAAAIUwAAhCkAAAhTAACEKQAACFMAAIQpAAAIUwAAhCkAAAhTAACEKQAACFMAALASAAAQpgAAIEwBABCmAAAgTAEAEKYAACBMAQAQpgAAIEwBABCmAAAgTAEAEKYAACBMAQAQpgAAIEwBABCmAAAgTAEAEKYAACBMAQAQpgAAIEwBABCmAAAgTAEAEKYAACBMAQAQpgAAIEwBABCmAAAgTAEAEKYAACBMAQAQpgAAIEwBAECYAgAgTAEAQJgCACBMAQBAmAIAIEwBAECYAgAgTAEAQJgCACBMAQBAmAIAIEwBAECYAgAgTAEAQJgCACBMAQBAmAIAIEwBAECYAgAgTAEAQJgCACBMAQBAmAIAIEwBAECYAgAgTAEAQJgCACBMAQBAmAIAIEwBAECYAgAgTK0EAACEKQAACFMAAIQpAAAIUwAAhCkAAAhTAACEKQAACFMAADLwf/S9SI8oXOViAAAAAElFTkSuQmCC;" vertex="1" parent="1">
          <mxGeometry x="159" y="934" width="80.83" height="80.71" as="geometry" />
        </mxCell>
        <mxCell id="gDujGl6M3sRKTZgsyxGK-61" style="edgeStyle=orthogonalEdgeStyle;rounded=0;orthogonalLoop=1;jettySize=auto;html=1;fontSize=10;" edge="1" parent="1" source="gDujGl6M3sRKTZgsyxGK-39">
          <mxGeometry relative="1" as="geometry">
            <mxPoint x="506.2592863859952" y="1164" as="targetPoint" />
          </mxGeometry>
        </mxCell>
        <mxCell id="gDujGl6M3sRKTZgsyxGK-39" value="" style="shape=image;verticalLabelPosition=bottom;labelBackgroundColor=default;verticalAlign=top;aspect=fixed;imageAspect=0;image=data:image/svg+xml,PHN2ZyB4bWxucz0iaHR0cDovL3d3dy53My5vcmcvMjAwMC9zdmciIGhlaWdodD0iNDAwIiB3aWR0aD0iNDAwIiB4bWw6c3BhY2U9InByZXNlcnZlIiB2aWV3Qm94PSIwIDAgNDAwIDQwMCIgeT0iMHB4IiB4PSIwcHgiIGlkPSJsYXllciIgdmVyc2lvbj0iMS4xIj48bWV0YWRhdGEgaWQ9Im1ldGFkYXRhNDUiPmltYWdlL3N2Zyt4bWw8L21ldGFkYXRhPjxkZWZzIGlkPSJkZWZzNDMiPiYjeGE7CSYjeGE7CSYjeGE7CSYjeGE7CSYjeGE7CSYjeGE7CSYjeGE7CSYjeGE7CSYjeGE7CSYjeGE7CSYjeGE7CSYjeGE7CSYjeGE7CSYjeGE7CSYjeGE7CSYjeGE7CSYjeGE7CSYjeGE7PC9kZWZzPiYjeGE7PHN0eWxlIGlkPSJzdHlsZTIiIHR5cGU9InRleHQvY3NzIj4mI3hhOwkuc3Qwe2ZpbGw6I0NDMDAwMDt9JiN4YTsJLnN0MXtmaWxsOiNGRkZGRkY7fSYjeGE7PC9zdHlsZT4mI3hhOzxnIHRyYW5zZm9ybT0ibWF0cml4KDIuMTExOTQzNSwwLDAsMi4xMTE5NDM1LC02Ljk0MzE4MzksLTY5Ni40NzAzOSkiIGlkPSJnNTUiPjxjaXJjbGUgc3R5bGU9ImZpbGw6I2NjMDAwMDtzdHJva2Utd2lkdGg6MC43NDk5OTYiIGlkPSJjaXJjbGUzNCIgcj0iNzEuMDI0NjI4IiBjeT0iNDI0LjQ3NjUiIGN4PSI5Ny45ODcwODMiIGNsYXNzPSJzdDAiLz48cGF0aCBzdHlsZT0iZmlsbDojZmZmZmZmO3N0cm9rZS13aWR0aDowLjc0OTk5NiIgaWQ9InBhdGgzNiIgZD0ibSAxMzEuODg2OTEsNDUyLjYwMTMzIC0yOC4zNDk4NSwtNjguMDk5NjQgYyAtMC42NzUsLTEuNzk5OTkgLTIuMzk5OTksLTMuMDc0OTkgLTQuMzQ5OTgyLC0yLjk5OTk5IC0yLjAyNDk4OSwtMC4wNzUgLTMuODI0OTgsMS4yIC00LjQ5OTk3NiwyLjk5OTk5IEwgNjMuNzEyMjY0LDQ1OS4xMjYzIGggMTAuNjQ5OTQ0IGwgMTIuMjI0OTM2LC0zMC43NDk4NCAzNi42NzQ4MDYsMjkuNjI0ODQgYyAxLjA1LDEuMDUgMi40NzQ5OSwxLjY1IDMuODk5OTgsMS43MjUgMi43NzQ5OSwwLjA3NSA1LjA5OTk4LC0yLjA5OTk5IDUuMTc0OTgsLTQuOTQ5OTggdiAtMC4xNSBjIC0wLjA3NSwtMC42NzQ5OSAtMC4yMjUsLTEuMzQ5OTkgLTAuNDUsLTIuMDI0OTkgeiBNIDk5LjI2MjA3OCwzOTYuODAxNjIgMTE3LjYzNjk4LDQ0Mi4xNzYzOSA4OS44ODcxMjcsNDIwLjI3NjUgWiIgY2xhc3M9InN0MSIvPjwvZz4mI3hhOzwvc3ZnPg==;" vertex="1" parent="1">
          <mxGeometry x="176" y="1137" width="54" height="54" as="geometry" />
        </mxCell>
        <mxCell id="gDujGl6M3sRKTZgsyxGK-40" value="" style="shape=image;verticalLabelPosition=bottom;labelBackgroundColor=default;verticalAlign=top;aspect=fixed;imageAspect=0;image=data:image/png,iVBORw0KGgoAAAANSUhEUgAAD94AAAI4CAYAAACWHaPHAAAAAXNSR0IArs4c6QAAAARnQU1BAACxjwv8YQUAAAAJcEhZcwAADsMAAA7DAcdvqGQAAAAYdEVYdFNvZnR3YXJlAHBhaW50Lm5ldCA0LjAuOWwzfk4AAP+BSURBVHhe7N0LmGRXXS58kICIKCZM9V5r7ZphiEEDw03gaAQEVEQEFNAIyEU/FRAUNUBEUITIRcB4AaOAoh4BJSg3D7eACAeNgBIBFTEqIpcIASNEiRgxwPnW7voHJtVrkumZ7p6uvX+/53mf+GAy0/tftdde1VVv7asBAAAAAAAAAAAAAAAAAAAAAAAAAAAAAAAAAAAAAAAAAAAAAAAAAAAAAAAAAAAAAAAAAAAAAAAAAAAAAAAAAAAAAAAAAAAAAAAAAAAAAAAAAAAAAAAAAAAAAAAAAAAAAAAAAAAAAAAAAAAAAAAAAAAAAAAAAAAAAAAAAAAAAAAAAAAAAAAAAAAAAAAAAAAAAAAAAAAAAAAAAAAAAAAAAAAAAAAAAAAAAAAAAAAAAAAAAAAAAAAAAAAAAAAAAAAAAAAAAAAAAAAAAAAAAAAAAAAAAAAAAAAAAAAAAAAAAAAAAAAAAAAAAAAAAAAAAAAAAAAAAAAAAAAAAAAAAAAAAAAAAAAAAAAAAAAAAAAAAAAAAAAAAAAAAAAAAAAAAAAAAAAAAAAAAAAAAAAAAAAAAAAAAAAAAAAAAAAAAAAAAAAAAAAAAAAAAAAAAAAAAAAAAAAAAAAAAAAAAAAAAAAAAAAAAAAAAAAAAAAAAAAAAAAAAAAAAAAAAAAAAAAAAAAAAAAAAAAAAAAAAAAAAAAAAAAAAAAAAAAAAAAAAAAAAAAAAAAAAAAAAAAAAAAAAAAAAAAAAAAAAAAAAAAAAAAAAAAAAAAAAAAAAAAAAAAAAAAAAAAAAAAAAAAAAAAAAAAAAAAAAAAAAAAAAAAAAAAAAAAAAAAAAAAAAAAAAAAAAAAAAAAAAAAAAAAAAAAAAAAAAAAAAAAAAAAAAAAAAAAAAAAAAAAAAAAAAAAAAAAAAAAAAAAAAAAAAAAAAAAAAAAAAAAAAAAAAAAAAAAAAAAAAAAAAAAAAAAAAAAAAAAAAAAAAAAAAAAAAAAAAAAAAAAAAAAAAAAAAAAAAAAAAAAAAAAAAAAAAAAAAAAAAAAAAAAAAAAAAAAAAAAAAAAAAAAAAAAAAAAAAAAAAAAAAAAAAAAAAAAAAAAAAAAAAAAAAAAAAAAAAAAAAAAAAAAAAAAAAAAAAAAAAAAAAAAAAAAAAAAAAAAAAAAAAAAAAAAAAAAAAAAAAAAAAAAAAAAAAAAAAAAAAAAAAAAAAAAAAAAAAAAAAAAAAAAAAAAAAAAAAAAAAAAAAAAAAAAAAAAAAAAAAAAAAAAAAAAAAAAAAAAAAAAAAAAAAAAAAAAAAAAAAAAAAAAAAAAAAAAAAAAAAAAAAAAAAAAAAAAAAGyBUsqelNL+nPNt6j/v1Kd0as3/V1I6veaMZko6s+Z/N5PS2Tmn/3s0Kbl7xdKfedYV/v76sw0/4/rPWbr7DT/3kPl8dtJwLPv3f8VXxOEBAAAAAAAAAMAYHTd8TqaUcvLwuZlS1u51+edpDk7O3WlLn7u5PGdd4fM5X8irWp/n2Uw2fPbnCznz8r9/+Lku/xmHn/3yz//EZ5j2D5nNZimOFQAAAAAAAA7P8EZTKeX28ebTA9fflMr58Ys3qdJz1t+4yumcxRtb6fya99dcWvP/Rp7hGIdjHXJuzTnDLPrc/fL6m3ile/Awr2FufT+75TDHOs7jFlMFAAAAAAAAAIDtNXxeJW42MXzu566LInp6RBTUF+X4yz/3k9J743Mwrc/JjD1f+BxQncPic1D5DcN81j8ftfgs0GOjzH9qzHO9xD/cmCTGDcDhGhbPvuvuMXzQcrHILt2xKeenDf/74sJVbj+bza4b/ykAMCLDXRG7rrvp8IL1oH3B4pvV4kXY+ovZrjtFIQMAANhm15jP5/3wBtDlv7usr0l+pr4++bU+p5fV1ytvLTn9c81/1bTebJIjz8fqjN9dZ/3GOuezS87Pqg/ET9fH4iH1cbhn3699/Xw2O+mEE0748nisAAAAAAAAAADg84a7tQ+9g1K6+w1dhPVy+HDTiC/cNOOymtbnVmTb0l1c/1ln371rKO7XvOTyvshwkxN9EWDShgtXzt1pdZF8RV0sL7jiAnp4Wf/gZc7PG74BZf/+/deOPxoAWCHDl+/UF0YPjD3Bkd3tMaX39rl7YX2x9Yjhm+bijwYAALhSw+uR4Us+h98vLn5XmZ82vLZY/zbmxbdTT+GO9GPIhfG74vVv0I4vcT19eK05fHN2fYxPHh7reNgBAAAAAAAAAFhxpZTr9H3/VX3XfVOf0vfmnH+qlPTsktIrS07vrPnXgz5bIqubz9R8tOZvDyrqP7vmSaV0P1bzPfW58C01X1OfD3MdU2Dl1AVsX13MfrBewF5cF7t/i8VvSzJ8sLIunL9Y/467xF8HAOxSwwuaoSS/XorYnm+JO2+9NKNYAQAAVMOXgJbS3Xn9dUhKZ60X63O6aOl1hIw/w+vP4dvKz118wUL35Pq8ePDw3Bi+xM0bbwAAAAAAAAAAu8f+/V/xFcOdz4ebLwx3Qx9u4LveQVjcUMPd6uVQuWC4o34p6VU5p+dcfif94QYePiME7Bp9318/5+7H66J13tIiti2pC+ILSln7lvjrAYBdopRyq/UvysnpwuXr9zbln+uL6qcPf2/8CAAAwEgNb4h0XXfTUtbu1af06OFNk/iyr6Fo3Xq9ILKcS4c3ZocvZhiK+et3zi/pR0rp7plzvs3wBQ7xdAMAAAAAAAAAYIvM5/MvKaV8TVm/e3k6Y3HT3/yu9c9ytD/jIXLkSd3/1H9+oD7P3trn9NL6z1/JuXtcn9L3DZ3UlNKBffv2HR9PT4CtN1zwck6v2bBAbXdK+khd9J4xfNg2fhQA4BgZCjCLb5jrLm5et7c/9QV3fppvJgMAgHEYvs16KNiXlE4vJf3vuucfvvDzkoNeA4hsVy6qOS/n9JL63Dsz5+609S976Ge3HJ6X8RQFAAAAAAAAAKBhNptdd7gBQp/zw0pKZ5Wczq3xuR/ZjRluOHleyd0r1p+r659VW7vX0FfVTQGOyHARjA+9thadncyFKaU7xY8FAOys4/qU/r96Pb5g6fp8jNK9ayhDxM8GsOVKKXvWXwdNMt1jYwwAsKUOHDhwrZTS1+acH1qvOb9Wcn5L3d9/auN+X+SY5zMlpffW5+gf9bn79WF/VHPf4flbM4unNAATM+3fFXwhMQ4AjqHZbJaG98nq6+u7rr9/l9bvGiVy7FPSI4bn5OfTdfcYPut1eYYPsdZ/7r88w2fS4mkNAJM37O+a19cppazdK8YBAMDuc9zwu50+pVP7nH+6z90Ly+LmGp886LMWIqua/6o5v+Z19bn93OGO+aV09y+l3K7v+3mcAwBfkHP+1v5Y3OX+0LmwlPSTw4d040cEALZZfAnPqxrX5WOdS4dvx4sfE2BLDR/4aqw7k0jO6f/GGADgqHRdt1ZKuUt9PfGYkvPv1evMe5avOyIrmE/W5/Rf1+f0H/a5++VSuh+r+fbhDeaaL42nPwAjtH//V3xF47owucQ4ANghw4f66muOB9fXIG+o6/D7l9dlkZHloj6nd68/30v63zl3T67/fEQ9B+43FPeH927cfQqAsVr/QqX29XE68YV/AAC7xvA7mOH3McMXJA2fKS25u7i5hxOZRi6qr1feNnzhRJ/z43POD+y77pThi9vjlAGmZPjmwLowXLK0UOyKDAtV/RGPW/ykAMB26fvum/ucXtu6Hu+SfKa+iPlZX8oDbDXFewDYvL7vv6pP6T59zk+t15PXlJQ+3LrWiIw4H6uvUf+85Pyi4TwYyjHD6+qu606sp8jVF2cKAKtK8X6RGAcA26iUcvLw4b3hg3yttVhE1j/off76h75L+t/1dfjTcu5OGwr6wwdeh31bnE4AsDIU72sU7wEAjqXj1ovEny/ap0s37NdEpJH131WeV8+ds4fzp762O3W4ecdwTi1OLWBU6kn+8HrSf/yKC8HuSr2QP2ffvn3Hx48MAGyx4Zu46guBd7Wuw7suJf38iScef7340QGOmuI9AFy14dutF1/emZ9XryHnL19TROTgdBevl2YWd+w7rb7mvutsNktxOgGwAhTvF4lxALANhtcJK/PenMjuz4U15/S5++WhyFjPr9vU1+HXjdMNAHYdxfsaxXsAgB2z/r5X6e5c89g+p5fW/dgHNuzPRORo8q8lpbfmnJ6/+KLd7r6llFvt2bPny+I0BFZNPZF/YGXuRlXSmfVH9g0gALDF6jX2EfVae9mGa++uTn5a/PgAR03xHgDa6jXyQJ/zw0rufrdeNz64fB0RkU0mpffW/ddrogjw8OEO+aWUvXHKAbCLKN4vEuMAYAvlnL+1viZ4YV1nP7e87orIluZTJee/qq/DX9Ln/NT1gmMpt+u6bi1ORwA4ZhTvaxTvAQC2Tdd1X5pSumPddz467sz93uaeTES2O8MXhv5pPQd/a/jii3nO39X3a7copVwnTldgN6on6f3ryfvPB53Muz8pPSF+fABgC+ScT6vX2M9suObu/ny6vvj4sTgMgKOieA8AXzCfz04a7tBdrxPn1qzYF3SJrGzeX3L3isW3Xq/dq+/7eZySABwjiveLxDgA2AKz2SzlnJ5T11evtUWOcfqc3h2F/MenlO60f//+a8epCgA7QvG+RvEeAGBLDZ/3Wb+5xlC0z93FzT2YiOyWXFJz3vC6qJ6zp/ddd49Syp44nYFjqe/Xvn74Vt+lk3YV8qmc8wPiMACAo1BKd996bb1g6Vq7SvnQcAxxOABHTPEegCmbz+dfUkr5llLSk2reVK8PCgAiuyP/UHL+wz7nn8s5P6jmNsO30sepC8A2U7xfJMYBwFEqpbufD7uK7OpcOrxfUlI6QxEfgJ2geF+jeA8AcNRKKbdbfMF/emPdY31uw55LRFYpn6vn8t8MX55Rz+ufruf3vYYv1IjTHdgJ9cS7Ts7p+Y0TdCXS5/Tmvu+/Kg4HADgCOec71Gvq21vX2lVK3dP8Rd91p8RhARwRxXsAJui4Uro7l5TOqteDVf4yLpGpZfjG63P73P3yUNzxBhvA9lG8XyTGAcAROvHE46+3/kV3OX1qeY0VkV2dC+u5++qan62vv7+j7/t5nNYAsCUU72sU7wEAjkhK6X/VvdRj6p7qnJr/vsIeS0TGluEc/8v1HnBKPzFP6W6llH2xHABbrc/5UUsn4eqlpDPjcACATZrPZzeqG+//07zGrmTyi1JKszg8gE1TvAdgKuo17471tcAz+pze3bouiMgKpqR/Gu6Mn3P3lKGMv7frblpP96svznoAjpTi/SIxDgCOQM75xnWv/put9VVEVi4fzTm9pr4Gf1J97X1PRXwAjpbifY3iPQDAYev7tVvknE+Lz/8PX9jf3mOJyBTyyboWvLXk/Lycux8fbr4zm81SLBfAkRrugFNPsHFcZEu5fRwWALAJdaN9dvPautLJT4vDA9g0xXsARu64PqVT67o/fNN183ogIqPLhSV3ryile2zd695p//791471AIDDpHi/SIwDgE0aPpvjS+9ERp1Lh/dXcu5O86FWAI6E4n2N4j0AwJUqpewppXtwyfkNdf902Yb9lIjIF1LXiO5dOafnrK8bpZwcSwlwuPrc/Xrj5FrRdC+vh/RFiyMDAA5HzvlB7evqyuc/hjel4jABNkXxHoAxqte3ry0lndHn9PbWNUBEJpWL1t+ML+kXcs4PnHfdzWKpAOAQFO8XiXEAsAlxQ4wLl9dUERltLlu85l7/QOueWAoA4Eop3tco3gMAbDCfzU7KuXtIyflFdc/kd4wicmQp6VWxrACHY57SnerJ828bTqYVTp/SfeLwAICr0Pf99ev1c8R3uRy+pSvfIQ4X4LAp3gMwJnVPfNe6vr+krvO+7VpErizv73P3wj7nh/mma4CNFO8XiXEAcJjqa/Ib9zm9trWmisgk8tGS0tl1LXjofD67USwNALCB4n2N4j0AwOf1XXePkrtX1H3SpRv2TSIim8xw5/tYXoDDUVL61dbJtNIp6ffj8ACAq1BK96PN6+mI0uf00vl83schAxwWxXsAVt1w9+pS0k/Wtf1Pltd6EZHDzHvq3vAFpXQ/Vkq53f79+68dSwzAJCneLxLjAOAwnHDCCV9ecn5eaz0VkUnmQ/V19vOHYmXO+QaxVADAOsX7GsV7AGDi9nbdTeOzPudu2CuJiBxN6toSSw1wVUopt68nzoUbTqTVz2dyzveOwwQADmHv2tpX1g30nzeupeNLSs+IwwY4LIr3AKyqvp/dcvhgUl3TfeO1iGx1Lhzu0ueO+MBUKd4vEuMA4DDU1+dntNZSEZGc0/vWv5ijdPe/wZ49OZYNACZM8b5G8R4AmKh5Snere6Ffq3uiD2zYI4mIbEVK9z2x5ABXpaR0VvNEGkW6V8RhAgCHUPcCT2hfR0eZS3POD41DB7hKivcArJq63/2GUtKzS84Xt9Z3EZFtyDuGN//r+vOg+Xx2UixHAKOleL9IjAOAq1BK9+C6bn5yeR0VEdmQkv665kn19fWtYwkBYIIU72sU7wGAaTku5/zAugd6W3NvJCKyhRlu5hNrD3BlokTynuWTaET5t3nXfV0cLgCwZP/+/deu18tLlq6fY88ligDA4VK8B2BVlFK+ppT083UNv2B5TRcR2cH8a0nplTl3j+tT+sbh9w6xTAGMhuL9IjEOAK7E4prR+WI8EdlsLh0Kh13X3TSWEwAmRPG+RvEeAJiA4bOpfc6PKrn7s+aeSERk6/PZUsreWIaAK1NS+uHGSTSulPSzcbgAwJKc8wOa18+xJ6VXdl13wxgDwCEp3gOw281ms+vW/e0ZPsgvIrs0F5SSHhFLFsAoKN4vEuMA4ErU1+tPb62hIiKHmU+VnF9USndfX2wHMB2K9zWK9wDAiOWcb9zn/NN13/OODfsgEZHtzQdiKQKuSs7pNY2TaGw5r+u6tThkAOAgfe6e27h2TiL12H85xgBwSIr3AOxWN9izJy+++Tqdt7yGi4jspvQp/UwsXQCjoHi/SIwDgEMopdy+rpcfWl4/RUSOMK+rr68fvnfvnhLLDAAjpXhfo3gPAIxQKeVWOXdPqfudv9uw/xER2Zn8aSxJwJWZp3S3xgk0ygy/iIrDBgBCfQG/p14np/zi/bPuugdcFcV7AHabPXv2fFnO+Yf6uk631m8Rkd2WPqXvjiUMYBQU7xeJcQBwCKWkZ7fWTxGRo0mf09uHu+J1XXfTWG4AGBnF+xrFewBgRBbvK+Wn1X3OpRv2PSIiO5mUzo6lCbgy9WT51eZJNMaU9Adx2ABAyDnfu3ndnFTyP6aUvi1GArCB4j0Au8jV6x7+AaWkV7XWbRGR3Zp5190s1jGAUVC8XyTGAUBD389uWdfKy5bXThGRLcylfe5+eT6fnRRLDwAjoXhfo3gPAIxA3/fzuq95TMn5r5p7HhGRHU6f81NjiQIOJed843rC/PPyCTTi/GdK6Y5x+ABANbwR37hmTjHnlFK+OsYCcAWK9wDsBnW/ukfhXkRWM93FsZQBjIbi/SIxDgAavIYXkR3MZXXNOXPYo8YSBMCKU7yvUbwHAFbYnj17vqzP+YfqvuZPNuxzRESOYYa1KZYq4FD6lB7dOoFGnZSeEYcPAFT1+nj+huvlVJPS2TEWgCtQvAfgWCul+4G6Lp+3vE6LiKxESnp1LGcAo6F4v0iMA4AlKaUDdZ38xPK6KSKyzXlnn/Mjhy/wjOUIgBWleF+jeA8ArKiU0p1K7t7V3OOIiBzrlO7OsVwBLfv37792KemNzRNoxOlzenfO+QYxBgCYtPl8/iUl54tb18ypps/5UTEegM9TvAfgWCmlfHXdoz6zrsmfXl6jRURWJiX9QixrAKOheL9IjAOAJfW1/MNa66aIyA7lnFK6+8eSBMAKUryvUbwHAFZM33en9Ln79b6k/2nub0REdkGGLw6OZQtoyTl/Z+vkmUL6lB4eYwCASeu67oata+XE84FSunvGiADWKd4DcCz0KZ06xS/OFJERpnQPjqUNYDQU7xeJcQCwpOTu91rrpojIDuYzQ2Gx77tvjqUJgBWieF+jeA8ArIhSyp6S0k/UPczfbdjTiIjsrnxiz549XxbLF9BScv7NxskzjZT0qhgDAEza8M16zWvl1FPSG/d23U1jTACK9wDsqBvs2ZPrnvRJdR2+aHldFhFZyZRy+1jiAEZD8X6RGAcAB8k536CukR9cXjNFRI5JUvpwzdPdyQpgtSje1yjeAwAroJRyr/q6+5XN/YyIyK5L/qtYvoCWemG/VT1ZLtx48kwmn8053zXGAQCTtf5iv32tlJx/o87nOjEqYOIU7wHYKXUPepeSu1e01mQRkRXNRXVt2xPLHMBoKN4vEuMA4CA55we21kwRkWOcd/Y5P9JrdIDVoHhfo3gPAOxiw/tEOafn1H3LZRv2MSIiuzfnxDIGtPQ5P75x4kwrKf1KjAMAJqvuCR7WvE7KIqV7bIwKmDjFewC2W9d1X1pSOr2U9E+t9VhEZIVzbix1AKOieL9IjAOAg/S5e2FrzRQR2Q3pc3p3SulOsWQBsEsp3tco3gMAu1TO+UEld3/W3MOIiOzmpPSrsZQBy/bt23d8PUne2jx5ppThQ8ylfHWMBQAmqV4Pz2heJ2WRkj7Sp/TdMS5gwhTvAdhOs9ks1TX3nOU1WERkFPHhSGCkFO8XiXEAcJC6B35Ta80UEdlF+XjO3ZOH30vG0gXALqN4X+N3ywDALjOfz26Uc/rFulf5zw17FxGRVUhJj4klDViWc35A88SZYPqcHxljAYBJ6nP3y61rpFwh55ZSbhUjAyZK8R6A7TJP6U51vX3d8vorIjKW9Ck9OpY8gFFRvF8kxgHAQer6+LfL66WIyG5Mn9NL+677pli+ANhFFO9rFO8BgF1kuJFbSemNzX2LiMiqpHT3i2UNWFZy/r3miTPJ5DccOHDgWjEaAJgcxfvDTEm/M3yQNsYGTJDiPQDboZTu20tKb22tvyIiY0mf0t1j2QMYFcX7RWIcAHzBF9X18aLl9VJEZBfn70pJP1LXr6svljEAdgPF+xrFewBgFyil7O1zfmrdn3x8w35FRGTF0vdrXx/LG3CwUtZuW3K+uHXiTDal3CvGAwCTo3i/iaT0hBgbMEGK9wBstZzzA/qc3t1ae0VERpPU/c/etbWvjKUPYFQU7xeJcQAQbrBnT26tlyIiuz4l/VpK6SaxnAFwjCne1yjeAwDHWM75DiV3r2juVUREVi+fmc/nfSxxwMFy7p7SOGkmnvwbMR4AmBzF+03l34ZyVIwOmBjFewC2Up/zw+oa+8HlNVdEZHQp6W9i6QMYHcX7RWIcAIS+X7tFa70UEVmJlPSmPqVTY0kD4BhSvK9RvAcAjqFSuvvXPcl5G/YoIiKrm3+OJQ442N69e0o9Qd65dMJI7v6l72e3jDEBwKQo3m8uOae/6PvulBgfMCGK9wBslVLST9T19RPL662IyChT0h/E8gcwOor3i8Q4AAillLu01ksRkRXKR/uUfqbv++vH0gbAMaB4X6N4DwAcG8fVfchj6n7kwg37ExGRFU6f05tjnQMOVkr34NZJI0ORpPupGBMATIri/ZEkv6jrurUYITARivcAHK1SynVy7p5c19bPLK+1IiKjTUk/G8sgwOgo3i8S4wAg5Jwf2FovRURWLcP7Q33fz2N5A2CHKd7XKN4DADts/XOiKf1Kc28iIrLi6XN6QSx3wMFK7l7eOmlkSPdnJx5//PViVAAwGYr3R5acu6fECIGJULwH4Gisra11fc7PbK2zIiKjTum+J5ZCgNFRvF8kxgFAUJASkXGluzildKdY4gDYQfaVNYr3AMAOms1mqe5BztuwJxERGUmGmwbFkgdcru+7b64nyH8vnzByUHwAEIAJUrw/4nyypPT9MUZgAhTvAThS8/nsRnXv+NutNVZEZPQp5WtiOQQYHcX7RWIcAIRS1u7VWi9FRFY4H+pTengscwDsEMX7GsV7AGCHzFO6W91//OmG/YiIyIiSc35oLHvA5XJOv9g6YeQL6XP3whgXAEyG4v3RpHtXffFxhxglMHKK9wAcieHbsOs6+oLW+ioiMoF8YD6ff0ksiQCjo3i/SIwDgKB4LyKjTEr/Xkr6yVjqANgBivc1ivcAwA4opbt/3Xf8dXM/IiIyouSc7xpLHzDouu7EenKcv3yyyIZ8vO+6U2JsADAJivdHlz6nl87n8z7GCYyY4j0AR+AavgxTRCae18V6CDBKiveLxDgACIr3IjLifDbn7ild131pLHkAbCPF+xrFewBgm9U918PrvuODG/YhIiIjTErpJrH8AYNS0iNaJ4s0UtKTYmwAMAmK91uQlJ4R4wRGTPEegM0qpXtsa10VEZlK+pyfGUsiwCgp3i8S4wAgKN6LyPiTnzWbzVIsewBsE8X7GsV7AGD7XD3n7nF1z/EfG/YgIiLjzMdns9l1Yw0Eqqv3Ob22cbJIO3+5trbWxewAYPQU77ckl+acfyhGCoyU4j0Am1FK94N1Df348poqIjKl9Dk/LJZFgFFSvF8kxgFAULwXkUmkpN+ez+c3iqUPgG2geF+jeA8AbBOfnxeRCeb8WAKBQd9192icKHJlKen7Y3wAMHp+cbBleU8p3Z1jrMAIKd4DcLjqvvA76vr598vrqYjI1DJP6U6xNAKMkuL9IjEOAILivYhMJTmnl+acbx3LHwBbTPG+RvEeANh618i5e0pz7yEiMuak9H9iHQQGpaRnN08WOWRyTi+J8QHA6Cneb2FSemXXdTeM0QIjo3gPwOHo+7Wvr2vnuctrqYjI9NJdPJvNUiyPAKOkeL9IjAOAoHgvItNK93pfvAewPRTvaxTvAYAtVvcXP9vcd4iIjD0pnRVLIZBSOlBPjA9sOFHkqvIpbwgAMBWK91ubYZ4xWmBkFO8BuCrz2eykkruXt9ZSEZHJpaS3xfIIMFqK94vEOAAIClIiMsFcWEo5OZZBALaIfWWN4j0AsIVKSk9o7jlERKaQlH4ilkNgOCGaJ4pcdUr6+RgjAIya4v2W57OldD8a4wVGRPEegCtz/PHHX6/urX+9tY6KiEwyPhAJTIDi/SIxDgCCO96LyBTT5/T2vu++OZZCALaA4n2N3zMDAFsk5/xTdX/xmQ37DRGRiaS+xrxPLIkwbaWU6wzliNaJIoeVvx2KNTFOABgtxfttSErvnad0txgxMBKK9wBcmZy7p7TWUBGRyaakn4wlEmC0FO8XiXEAEBTvRWS6yW/IOd8mlkMAjpLifY3iPQCwBeqe4hHNvYaIyITS97NbxrII09andGrrJJFNJKUfjnECwGgp3m9bXldK+eoYMzACivcAHErO+YGt9VNEZMqpa+NdY5kEGC3F+0ViHAAExXsRmXL6nF46n89uFEsiAEdB8b5G8R4AOEqldD9Q9xX/tmGfISIyrVy2d++eEksjTFsp6bcbJ4lsJiW9OsYJAKOleL+NKenX6oiPW0waWHWK9wC09H1/y7pWvnN57RQRmXg+58vogClQvF8kxgFAULwXkcknpd/qum4tlkUAjpDifY3iPQBwFErp7ln3FH+/YY8hIjKx5JzeF0sjTFvO+db1pPjY8kkim87nUkrfFmMFgFFSvN/e9Dk/KkYNrDjFewBaSkq/0lo7RUQmnr+LZRJg1BTvF4lxABAU70VEhveWul86cODAtWJpBOAIKN7XKN4DAEeolHL7kvNbmnsMEZGJxefAIfQp/UzrJJEjSEpnxVgBYJQU77c9Hxg+YBXjBlaY4j0Ay0rp7lvXyf9cXjdFRKR7eSyVAKOmeL9IjAOAoHgvIhJJ6QmxNAJwBBTvaxTvAYAjUEo5ub4mfWVzfyEiMsHknJ4fSyRMV9/31y8l/XnrJJHNp8/pfcOmK8YLAKOjeL8DKelN8667WYwcWFGK9wAcrO/7ecnd61vrpojI1NPn/HOxXAKMmuL9IjEOAILivYjI5/NfOXc/HssjAJukeF+jeA8AbN5xdQ/xqubeQmRH011c//n+o8v6n9H4s0U2l5y7J8caCdOVc35Q6wSRI0+f86NivAAwOor3O5X8vFLKdWLswApSvAfgYH3Oj2+tmSJHmEtqLn/j7Pzh2nuIvGT4kNkRJ6WzG3/meg76+5cz/Gytn1nkkOlTOjWWS4BRU7xfJMYBQFC8FxG5Qi4ciqOxRAKwCYr3NUXxHgDYnJLSGc19hcihc1HN+0vu3rX4/Ez3iviMzVnrz6eUTl/fm5fufimlO/Vdd8rweeLhpi3xtDum9u/ff+3h57k88fPdaUj9v+8x/OyXJ45nPesdkvg8Uf2/X3jQ54fOW8wjXVjTmpesYkr34HjKwHTVxe/s5gkiR56U/vikk0764hgxAIyK4v0OpnSPjbEDK2j4hVTz3J5Ahl+mxRgAqObz2Ul1fbx0eb2UyeaiktJ7D37zbfiW4GH/v/7GVdfd4/NvaPWzWw57ivV9RSl74im1EpbeqFscT0qnrr8xV9IjLn9j7vI35epczll6Q+6Cmtb8ZITpuu6m8dQBGDXF+0ViHAAExXsRkQ35+5zzvWOZBOAwrf/+vb2uTidF8R4AOHyldHeue4jLNuwpZKq55PLP8wzF8rq3PDPn7rTLC/TD51+Gz8LE04dDuPzzQsPn5Q76vNCizD/cuCalM+qMn3PwZ4X6nN5d/+/hs0I+X7dLMjxu8ZDCNJVSbl9Phv9YPjnk6OOX/wCMleL9Dqakj9QXmfeJ0QMrZvjFUfPcnkCGX4TFGACoSs5vaK2XMrpcUPfwbyvDF52WdGbNI4byxPBGxPBm0mw2S/GUYBMuf0Nu+IbtnPNdF8X97rH1vHra5W/Crc/dG3CrnEvi4QYYPcX7RWIcAAQFKRGRZi5ctS+iBDjW7CtrFO8BgMM0fIaj7h/coXt6eX/dM76q5sw+54cNn+kppZw8vIcXTw2OsebnhFI6fXFTk/Wbe7yqPo7nrj+Wubv4oMdWtjB938/jIYFpqheJn2udHLIVyc+LMQPAqCje73S6P6svGm8d4wdWiOI9AIO6l3tga62Ulczwhus5w+/9hm9gHt7YGd6AG6759aE+bvGIc6wdTlF/8U3Z3nzbRTkvHj6A0VO8XyTGAUBwx3sRkUMkpd866aSTvjiWSwCuguJ9jeI9AHB4jnMTjVHn0uFzITmnlwx3Vx/uWN/3s1u6W/14rX9OqD7Gw+e4htdFOXenXf45oeHzzPU5cX7NJQc9R+TKc2mMFqZpPp/3dRH5q8bJIVuRlD7c9/0tY9wAMBqK9zuf+oLv+b5JD1bP8Iuc1jk9hSjeAyzM19ZuXtfF85bXSdnV+VzNP5SSXr3+2ielHyml3KXruhvGw8qI7N27p+Scb1NK9x3DN5nXx/1J9X/4zT6n18bvzv/1oOeGbFdK+tV4SABGT/F+kRgHAEHxXkTk0Bk+KB3LJQBXQfG+RvEeADgM62Xs1l5CVjGXlJzfMNwNve+6ewx3r4+HGTaYzWbXnc9nJ11e0B9u5DF8Pmz9Sxo+fxf9dFk8t6ac82NkME0554c0TgzZwtQZ/3SMGwBGQ/H+GCWlJ8RDAKwIxXsASs7Pa62Tsqty/vrjVNIjhjdVSil74uGDdcNzYvhW7MUbtOkR9fnytPq6+IXxjdjecNuK1LnGuAFGT/F+kRgHAEFBqial9w4lKZEhl7/uPjjrz5HF6/DLc+n6c0emkEuG99xiyQTgSthX1tS9RIwDAKBp/bMh3udf5Zy/+P1RftjwWY54WGFLzWazNDy/cs53LaV78PqXddTn3UG/pxz3GlLSq2IUME0l5z9snhyyhene4u60AIyN4v0xy7/VF28PiIcBWAGK9wDTVvdu31DXxE8sr5FyTHPB8MZAzt1T+pS+u+/7r4qHC47Y8G3Ydd93YJ7S3erz6uElpafXnF3z1poPN56HspzS3TnGCTB6iveLxDgACApSNQpSHIH1vVUpJw8fmB/Ooz7nx9fX4mdld6gaX0p6W33Ij1s88gAcin1ljX0lAHAl9u/ff+2yKM229xKy23JJzTn1MTtjKEDr57GbrJfzu+6U+jrs1PocPX3RseleUZ+z59VcFM/h1UxKZ8VhwvSUsvYt9ST4n+bJIVub0t0/xg4Ao6B4f+zS5/QXfb/29fFQALuc4j3AtNk374pcUlI6O+futJzzberD4sO57LjhjbZSyu3rc/CB9bn45OE5WZ+bq/8m2xZm+PKCGBfA6CneLxLjACCUsnav1no5rXSviHHAlkopzYbX5et3pirpzPq6/JX1+faP7eeh7OYMX6wQDysAh6B4X6N4DwBcifXfDbT2ELKbckHO6TnDF/gPX5QQDx2snOGzMMOXhg5fGjH8bnL9M0OX3zV/uHlM+/m/KzJ81i4OA6bHB393Mt3vxtgBYBTsI45xUjq767q1eDiAXUzxHmC6olA1fOtyc52Ubc3n34CrD4WiPbvasFYMXwpRn6/3W78rX87Pq8/h4Y58Uyrlnx/jAJgExftFYhwABAWpGgUpdljckeoeJaXT8+IO+RdueF7KbstlfT+7ZTyEADTYV9bYVwIAh1BKGb780hfk775cWnJ+Q0npicr2TMnwhaHDZ4ZqvqvP+VH1PHhWzR+W3L2rnhefWDpPdjT1teV3x48J0zKfz06qJ8E/LJ8Usm35hDvTAjAmivfHPjl3T4mHA9jFFO8BpquU9JOt9VG2JZ/pc3rz4luBy11qrhMPA6y0+Xx+o3lKd6vP7R8vKf1qyd3r63P9fY1zYKXT5+6FccgAk6B4v0iMA4DgjvdD3PGeY2v4nVJK6Y59So+ur8NfPMbX4CPJOV3X3TAeNgCWKN7XKN4DAA179+6pL/3Tq5v7BzkWuXD4IsTh8xBD8TgeJiCccMIJX763625aX+PdvaT0wzXPGH5nWdext9V8pHFObWnmXfd18aPAtJTS/VjrpJDty/DB3xg/AKw8xftdkU/WF03fHw8JsEsp3gNM1nF1LbxgeW2ULc/7hzuED18yGnOHSRjuyJdzvmvO3Wl1z/Wc9TfVcndx4xxZjZTusXFoAJOgeL9IjAOAoCBVoyDF7nNc33WnDL9/Gt7zqM/TyzY8b+WYZPi8QjxGACyxr6yxrwQAGkpKZzT3DrLTOa/P+WGz2ey68dAAR2D47FAp5fY55wcOndXhiyziTvmXLp1zRxTnKFN1jXoCvG75hJBtzzuGRS0eAwBYaYr3uyX5XfXF0h3iYQF2IcV7gGkqpfvB1tooW5F8cc3v1X3wA/bt23d8jBwm78CBA9eqe88D63fJTOn0+rr910tJb6rnza7/EpB6Pn9XHAbAJCjeLxLjACC44/0Qd7xndxtedw93Yauvu19Zn7Of2vgclh3MJ4cPFcdDA8BBFO9rFO8BgCXDDR3qPsEX6h2zdBeXlM6qr+Xd2R52wPDZ9b7r7nH5DT3iS0Uv3HhuHjIXxh8F01JK9+2NE0J2IqX7gXgYAGClKd7vnvQ5vazv+3k8NMAuo3gPME2Lu0+310c54lxYcn7acG2NMQOHaX1PWtbuNXzD9VBkqefTrirje00LTI3i/SIxDgCCglSNghQrZP3Dqzk/vj53z9/wXJadygXD3joeEgCCfWWNfSUAsGRxJ+jGvkG2NyW9bdif7t+//9rxUADH0PC7tOELMIYvtBw+hzesjX1O767n6xW/mKSeu/GfwLTk3D33CieD7FjqYvTSeBgAYKUp3u+ylPTz8dAAu4ziPcD09F13SmtdlCPL+i/3S3c/b8LB1iql7Bm+3bqeX49d/5BBSu9tnYM7kIviRwKYDMX7RWIcAAQFqRoFKVZU389uGe+fb+auUbIVSemMeBgACPaVNfaVAMBBSim3b+4ZZLty0XB3+67rbhoPAbAC6lp58vrniFI6fXhdGf8zTMe8625WL2IfWrqoyc7lv+ri843xcADAylK833X57z7nH4qHB9hFFO8Bpqek9FutdVE2m/yWUtIj5vP5CTFaYJt1XXfDeUp3G95EW1/LUnpbPQ//vX2OblFSemX89QCToXi/SIwDgFDK2r1a6+W00r0ixgEraXhd3ef8qPp8Pnfj81u2Kf+Qc751PAQAVIr3NYr3AEAopVynz+llzT2DbG1K+ps+58f3ff9VMX4AWB31QvaTzQuc7FxKOjMeDgBYWYr3uzLvKaW7czxEwC6heA8wLbHuX7a8Jspm0l083IHbHe5hd5jNZtfNOd+mlPSIkvPz6jn6rnqubt065/flwAQp3i8S4wAgKN4PUbxnHFJKs/pa+qH1eX3Oxue5bHlK+oUYPQCV4n2N4j0AEOrr84c09wuylfm7uv86I6V0kxg7AKyW4QNy9YL2J0sXONn5vGf4huN4WABgJSne79Kk9Er7DNhdFO8BpqXux57RWhPlsPLBOr+nz+drN49xArvUDfbsydVdy/oX/eYX1fP3PUvn8+GndD8QfyzAZCjeLxLjACAo3g9RvGdc5vP5l9TXvffPOb2kPsc/s/E5L1uSlD6cUrpjjB1g8hTvaxTvAYCqlLK3z+nNzf2CbEG6f8y5e/K8624WIweA1dSndJ/2xU52PCn9SDwsALCSFO93b/qcnxkPE7ALKN4DTMdwh/b1u7U31kS5ipT0tuGaGaMEVtB8Pjsp5/zAugd8TtwVv32+L6XvZ7eMPwJgMhTvF4lxABAUpGoUpBixlNKd+pze3Xzuy1Gnz90LY9QAk2dfWWNfCQBUOXenNfcKcrS5dOgRzGazFKMGgNVWSvqdxgVPjkFyTq+JhwUAVpLi/a7O50rpfjQeKuAYU7wHmA5fenlEuaiU9LNra2tdjBEYia7rblhKuVdJ6Ykldy/vc3pfYw342Hw+PyH+E4DJULxfJMYBQHDH+yHueM+41dfJe+rr5NPr8/1vNz7/5SjzH31Kd49RA0ya4n2N4j0AcLWrHVf3Be/fsE+Qo0vdZyncAzAqKaX/VS9y/7rhoifHLPOU7hYPDwCsHMX7XZ6U3muvAbuD4j3AdNQ92Fmt9VAOmfeXUm4f4wMmYLi7fZ/zw4Y344fXrcOd8eP/BTApiveLxDgACIr3QxTvmYb1z/GV9Kv1ef+fG88DOfJ0vxsjBpg0xfsaxXsAmLw+5x9q7hPkyJLSW4d9ZowXAMajXuSe2Lz4ybFLSr8aDw8ArBzF+5XI60opXx0PGXCMKN4DTMeiRNpeE2UpKZ09FM5idMBEzWaz68b/CTApiveLxDgACIr3QxTvmZY+pe/OOb2mfT7IEeRzpXT3i/ECTJbifY3iPQBMWinlOiV3r2/uE2Sz+XRJ6ax5190sxgsA45FSmvU5vb1xAZRjm3/OOd84HiYAWCmK9yuSkp5dH67jFo8acCwo3gNMQynl5NZaKBuTc3dajA0AYJIU7xeJcQAQFKRqFKSYpuNKSmfUc+CyDeeEHEnOi7kCTJZ9ZY19JQBMWs75gc09gmwu7nIPwNjVC933NS+CcsxTH5tHx8MEACtF8X51Yr8Bx5biPcA0lJROb62FcoX8h70pAIDi/eWJcQAQ3PF+iDveM12ldPcvJf15+9yQTaV0D46xAkzSUI5qro9TiuI9AExan9PLmnsEOdy4yz0A01BK+v3GhVB2Q0p64/79+68dDxUArAzF+5XKB0sp94qHDthhivcA0+BNu6vMJ3LO7nQPAFAp3i8S4wAgKEjVKEgxcbPZLJWc39A8P+Twk9J7Y6QAk2RfWWNfCQCTVUq5fXN/IIeZ7uK+6+4R4wSA8co536Fe/C7ZeDGU3ZL6GH1nPFwAsDIU71csJb3JNw/CsaF4DzB+XdfdsK57Fy6vg/L5/Gvdjz4ixgUAMHmK94vEOAAI7ng/xB3voe/765eSzqjnxCc2niNy2CndfWOkAJOjeF+jeA8Ak5Vz99zm/kCuMsPnPXPOd41RAsC4lZSe3rogym5K/s14uABgZSjer2Ly80op14mHENghivcA4zd803NrHZT1XNandGqMCgCASvF+kRgHAEFBqkZBCj6vlO7O9bzwZZ9HmJzTS2KUAJNjX1ljXwkAk5RSukndC3xgw95ArjJ9Ti+bd93XxSgBYNxKKXtLSX/TuijKLkpJH6mP1dfEwwYAK0HxfjWTc/e4eAiBHaJ4DzB+JaWzWuugpP/Xp/QzMSYAAILi/SIxDgCCO94Pccd7OFgp5VvqufGnG88VucqU9JH5fO3mMUqASVG8r1G8B4BJ6nN+VHNvIFeR/Lz5fHajGCMAjF/dNPxQ+6Iouy31sfrpeNgAYCUo3q9sLuxTuk88jMAOULwHGLcDBw5cq655f7m8Bsr6deD5Jx5//PViVAAABMX7RWIcAATF+yGK97AspXTHktIft88ZudKU9JgYI8CkKN7XKN4DwBQdV3J+Q3NvIIdOSs/o+/76MUMAmIZ6AXxl88IouzD5Lfv27Ts+HjoA2PUU71c53Z/lnG8dDyWwzRTvAcZt/YOvjTVQ8lvsOQEA2hTvF4lxABAU74co3kNL3699fZ/Ta9vnjRwyJb1x+OLUGCPAZCje1yjeA8Dk9F13j+a+QA6VT5TSPbaO7uqLCQLAROScv7VeCD+zdGGUXZz6mD0gHj4A2PUU71c7w91H9+/f/xXxcALbSPEeYNyGN6Faa+DE87E6l/vGiAAAWKJ4v0iMA4CgeD9E8R4OZfiSy5LzH7bPHTlkSvftMUKAyVC8r1G8B4DJGa7/zX2BNFP3jKfG6ABgWkrOz2pdHGU3J/9ePHwAsOsp3o8gKT0hHk5gGyneA4zb8IHw1ho46Sy+ERsAgENQvF8kxgFAULwfongPV2bedTcrJf1++/yRZkr6tRgfwGQo3tco3gPApOzfv//adQ9w6YY9gbST0ukxOgCYlr7vv6peCN/bvEDKLk53cSlrt42HEQB2NcX7UeTjOecHxkMKbBPFe4Bxq+vdO5bXv2mne30pZU+MBwCABsX7RWIcAATF+yGK93BVUkoHck6vaZ9DsiEl/dN8PjspxgcwCYr3NYr3ADApOecHNPcEsjElnVlHdo3F5ABgYuqm4bTmBVJ2fXLunhIPIwDsaor340if09v7fu3r42EFtoHiPcB41TV+1pf07601cKoZPswV4wEA4BAU7xeJcQAQFO+HKN7D4ehT+sZ6zpy38RySZkp6RIwOYBIU72sU7wFgUvrcPbe5J5Cl5N90Mw0AJuvWV7vaNevF8I/aF0lZgbzzBnv25Hg4AWDXUrwfUVI6u+u6tXhogS2meA8wXn3XndJa/6aaPqeXnXTSSV8c4wEA4BAU7xeJcQAQFO+HKN7D4epTuk89bz6w8TySDSnpVTE2gElQvK9RvAeAyRiK5PX6/54N+wG5QobP9MznsxvF2ABgekrp7tm6SMoKpXQ/GA8nAOxaivfjSs7dU+KhBbaY4j3AeOWcH9Ba/yaaT9d5fFeMBgCAK6F4v0iMA4CgeD9E8R42Y7iTez13/mvjuSRLuazvu2+OsQGMnuJ9jeI9AExGzvnezf2AfCElvWme0tfGyABgmkrufqN5oZSVyfBNQvFwAsCupXg/unyylPT98fACW0jxHmC8SkpPaK1/k0xJvxNjAQDgKijeLxLjACAoSNUoSMGm5dw9uXk+yRVT0pkxMoDRs6+ssa8EgMnwefarzEWllJNjXAAwTfP52s1L7v6lcaGU1cqlfd99UzysALAr+UXFGJP/KqV0x3iIgS2ieA8wXiWls1vr3xTTdd1NYywAAFwFxftFYhwABAWpGgUpOCIld69onlNycM6PcQGMnn1ljX0lAEzCfD7/knrtP2/DXkC+kJJ+JMYFANOVc/e45oVSVi8l/UI8rACwKynejzN9Ti/r+34eDzOwBRTvAcar5O7PWuvf5FLSm2IkAAAcBsX7RWIcAIRS1u7VWi+nle4VMQ5gE/q+v2Wf09vb55VE/rvv124RIwMYNcX7GsV7AJiEvp/dsrkXkMtzTowKAKbrhBNO+PJ6UTx36SIpq5u/67ruxHh4AWDXUbwfcUr6+XiYgS2geA8wTrPZ7Lp1rfvo8to3yaT0hBgLAACHQfF+kRgHAEHxfojiPRypUroH1/PosxvPK7k8OeeHxLgARk3xvkbxHgAmoe57Ht3cC0hN/seU0h1jVAAwXaV092tfLGVlU9Ij4uEFgF1H8X7U+e8+5x+Khxo4Sor3AOM03B2ptfZNMJ/NOd8hxgIAwGFQvF8kxgFAULwfongPRyPn7rntc0sWyc+LUQGMmuJ9jeI9AExCSens5l5Ahv3QY2JMADBtfU4vaF4sZWVTH9PX1of26otHGAB2F8X70ec9pXR3jocbOAqK9wDjlHP+ztbaN7mk9McxEgAADpPi/SIxDgCC4v0QxXs4GqWUW9Vz6byN55asJ6W/3r9//7VjXACjpXhfo3gPAKN3/PHHX2+4q3tzLzDx9Dm9bD6fnxCjAoDp6vt+Xi+Oly1fLEebkl7V/N9HmJzzbeJhBoBdRfF+Aql7rq7rToyHHDhCivcA41RS+onW2je19Dk/PkYCAMBhUrxfJMYBQFC8H6J4D0cr5/yQ9vklQ+p87hCjAhgtxfsaxXsAGL2+676puQ+YelL68Dylu8WYAGDacu6e3LxgjjMXlFL21H9euvS/jzN++QPALqV4P430OT8zHnLgCCneA4xTyfl5rbVvcinl5BgJAACHSfF+kRgHAEFBqsZnZGBL5Jxe0jzH5P/l3J0WYwIYLfvKGvtKABg9N8w4REr62RgRAEzb2tpaVy+O5224WI41JZ0xHHf95682///jy/tTSjdZf7ABYBdRvJ9MPldK96PxsANHQPEeYJxKSW9rrX0TyyUxDgAANkHxfpEYBwDBHe+HuOM9bIWU0h3rOfXRjeeYlJL+IMYEMFqK9zWK9wAwevV6/+LmPmDaeWfXdTeMEQHAtJWUvr9xsRxp8sV9150yHHf95z3a/84Ik9Lp6w82AOwiivcTSknvnad0t3jogU1SvAcYp7rOvWd53ZtgXhfjAABgExTvF4lxABAU74co3sNWKSn9Svs8m3w+MNzoKMYEMEqK9zWK9wAwevWaf8mGPcDUkxY3ugUAqpzTS5oXzDEmpbPjsAfXKLl7ffPfG1tKetN8Pv+SOG4A2BUU76eWuu8q5eR4+IFNULwHGKe6zn1wed2bWvqcnxnjAABgExTvF4lxABAU74co3sNWKaXcvqT04fa5NvGU7ttjTACjpHhfo3gPAKOWc751cw8w7fxD13U3jREBwLTNU7pTvTh+auliOdr0KX1fHPq6ulk6rfXvjTH12E+NwwaAXUHxfoIp6dn1ob/m4hkAHC7Fe4Bxquvcx5fXvamlz/lhMQ4AADZB8X6RGAcAQfF+iOI9bCXv6beTc/fkGBHAKCne1yjeA8Co5Zwf2NwDTDkpPT3GAwCUkn6+ecEcZ965trbWxaGvG+66Wv/3f17698aZlH47DhsAdgVv0k8zfUqPjqcAcJgU7wHG56STTvrius59enndm1rqNe6OMRIAADZB8X6RGAcAQfF+iOI9bKW+706p59YHN55rU0/3+hgRwCgp3tco3gPAqPU5P7W5B5hsun+Zd93XxXgAYNpyzjeoF8i/3XjBHGfqxujn4tCvoJT0a61/f4T5aH3Mbx2HDQDHnOL9ZPPBUsq94mkAHAbFe4Dx6fv++q11b2L5xPKXZAIAcHgU7xeJcQAQFO+HKN7DVislndk+36ac7uJ9+/YdHyMCGB3F+xrFewAYtfq67uXNPcBUk9JZMRoAoE/p4c0L5jjzXznnO8ShX0Ep3bc3/v1Rpj7mPxOHDQDHnOL9hFPSm+Zdd7N4KgBXQfEeYHymvLYflPfHOAAA2CTF+0ViHAAEBakaBSnYcrPZLNXz67IN59vUU8rJMSKA0bGvrLGvBIAxu3q93p+/4fo/2XQX1/3fN8ZsAIBS0qvaF80xpnt5HHbLcSXnP2r/dyNLSm+bz+cnxHEDwDGleD/15N/suu5L4+kAXAnFe4DxqWv7gda6N6X0Ob09xgEAwCYp3i8S4wAguOP9EHe8h+1QSvr99jk33fQpnRrjARgdxfsaxXsAGK34grn2HmCS8fs0APi8lNK31QvkZzdeMMeZnPND4tCb+pwf2frvxpg6iwfGYQPAMaV4Lzl3j4unA3AlFO8BxqfvulNa696kUtKbYhwAAGyS4v0iMQ4AguL9EB8Uhu0wfPaufc5NOCn9RIwHYHQU72sU7wFgtPquu0fz+j/VlLV7xWgAgJLSWc0L5jjznlLK3jj0ppzzjeu/9/6l/26kyS+KwwaAY0rxXmou7FO6TzwlgENQvAcYn1K6O7fWvUklpf8T4wAAYJMU7xeJcQAQFO+HKN7Ddui67sR6jv3zxnNuwinp2TEegNFRvK9RvAeA0Sopnd68/k8xKX24vua/YYwGAKatlHJyzul9zYvmCFOP9Rfj0K/U8Mvw1n8/upT07/U5cLs4bAA4ZhTvZZHuz3LOt46nBdCgeA8wPqUUH4TP3e/GOAAA2CTF+0ViHAAExfshivewXer59Rvt826yeV2MBmB0FO9rFO8BYLRKzs9qXv8nmJzTS2IsAECf86NaF8yR5jPDHcTi0K9U/fe+o/HfjzL1OfDUOGwAOGYU7+Xy5Jyev3///q+IpwawRPEeYHxyzg9qrXtTSs7dc2McAABskuL9IjEOAILi/RDFe9gufUr3aZ93k80/xGgARkfxvkbxHgBGq+Tu5c3r/wSTcz4txgIA03bSSSd9cUnpj1sXzFGmpFfHoR+Oa5ac39D8c0aX/K69e/eUOG4AOCYU7+UKSemJ8dQAlijeA4xPn9LDW+vepFLSmTEOAAA2SfF+kRgHAEHxfojiPWyXvu+vX8+xd7XPvemlL+l/Sil7YzwAo6J4X6N4DwCjVa/152249k8zl81T+toYCwBMW8753o2L5XhT0iPi0A9Ln/Ojmn/OGFO6B8dhA8AxoXgvS/l43as+MJ4ewEEU7wHGp8/58a11b1JJ6YwYBwAAm6R4v0iMA4CgIFWjIAXbqqR0VvPcm2hyzreJ0QCMin1ljX0lAIzS+s1sc/rohmv/BNPn9OYYCwBQcn5e64I5yqT03vlsdlIc+mFJKd2k/rcf2PBnjTLdy+OwAeCYULyX5fQ5vb3v174+niJAULwHGJ9S0pNa696k4o73AABHTPF+kRgHAMEd74e44z1sp1K6+7XPvWmmT+n7YjQAo6J4X6N4DwCjNHTMmtf+CabP+ediLAAwbX3f37Kk9OHWBXOUSemsOPRNyTk9p/nnjS//XUp35zhsANhxivfSTEpnd123Fk8ToFK8BxifnLsnt9a9ScUHlgAAjpji/SIxDgCC4v0QxXvYTnvX1r6ynmuf2HjuTTQl/WyMBmBUFO9rvI8FAKNU9znf2Lz2TzB1FnePsQDAtOWcf7p1sRxrjnQTUEp3z9afN8bk3P1SHDYA7DjFezlU6nPjKfE0ASrFe4Dx6XN+amvdm1RK+p0YBwAAm6R4v0iMA4CgeD9E8R62Wz3P/qh9/k0vfU4viLEAjIrifY3iPQCMUind/ZrX/smlu7iO47jFVABgwhYfvshvaV8wx5juj+phX2Nx9Jtz4MCBa5WU/rj9544ufz98E3EcOgDsKMV7uZJcUkr3A/FUgclTvAcYn35iX5DZSl3jXxLjAABgkxTvF4lxABAU74co3sN286WiV8i5MRaAUVG8r1G8B4BRqq9pH9m89k8vr4uRAMC0ldLdv3GhHG3qZuhRcehHpE/p0a0/d5Qp3Y/GYQPAjlK8lytP/quU0h3j6QKTpngPMD7ZG3nD3aBeG+MAAGCTFO8XiXEAEBSkahSkYNvlnO/aPP+mmUtiLACjYl9ZY18JAKOUc/eU5rV/aknpV2IkADBtJXe/27xYjjMfTCndJA79iNT//sDw5yz9uWPNOfWQv2hx5ACwcxTv5arS5/Syvu/n8ZSByVK8BxifnPNDW+vexPInMQ4AADZJ8X6RGAcAwR3vh7jjPWy3Usreer5duPH8m2QurSM5bjEZgPFQvK9RvAeAUarX+Gc3r/1Tixu4AsDVrtb3a19fL4yf2HChHGn63P16HPpRqX/Oc1t//hjTd9094rABYMcMb1C0rksTySWN/01aSemseMrAZCneA4yPDywN6d4V4wAAYJMU7xeJcQAQFO+HKN7DTiglvap9Dk4v++vmPMYCMBrex6pRvAeAUarX+N9vXvsnlpzzt8ZIAGC6cu6e3LpQjjV1A3DvOPSjUkp3z9afP8qU9Ow4bADYMZMu3pfusfWf7gJwuCnd/eJpA5OkeA8wPsPvr1rr3qRS0kf2799/7RgJAACboHi/SIwDgKB4P0TxHnZCKekX2ufg9NL3/TzGAjAaivc1ivcAMEol5zc0r/1TSkn/03XdDWMkADBNs9ks1QvjOzZcKEeaPqc3z+fzL4nDPyonnXTSF9cNxRtbf88I84GU0oE4dADYEcMbFI1r0iSy/gZV6e5c/+/Llv9/0swl8/nspHjqwOQo3gOMz/DN0a11b2qp17ibxEgAANgExftFYhwABMX7IYr3sBNK6X60fQ5OMKWcHGMBGA3F+xrFewAYpXqdf+eG6/708rcxDgCYrlK6H2hcJMeb0j02Dn1LlJROb/49Y0xJPxGHDQA7os/dLzevSRPI8AbV+gxS+pnW/18aKelVXdeduP7kgYlRvAcYn5zzN7TWvaml7ofvHiMBAGATFO8XiXEAEBTvhyjew04opfv29jk4veScbxNjARgNxfsaxXsAGKV6nf/Ahuv+5NK9PMYBANPV5/Sy9oVylLmw7/tbxqFvia7rblr/3A8t/T2jTH2u/N96vF8ahw4A207x/mpXO/HE469XSvqd1r8jG9Pn/Mz1Jw9MjOI9wPiUUm7VWvcml5IeESMBAGATFO8XiXEAEBTvhyjew06Yr63dvH0OTi/zlO4UYwEYDcX7GsV7ABil5nV/ainpzBgHAExT33XfVC+Kl264SI412/RLjj53v978+0aYPqXvjsMGgG2neL8Qpatzl/8dOURK92MxOpgMxXuA8al7wJNb697UUtf5X4yRAACwCYr3i8Q4AAiK90MU72EnnHDCCV9ez7lPbDwHp5e+6+4RYwEYDcX7GsV7ABil5nV/Ysk5PzDGAQDTVF/0/0LrIjnalO6+cehbqpQynTcm/aIIgB2keP8Fw5fflJQ+3Pp3ZSkl/VOd191jdDAJivcA41NK2dda96aX7uUxEgAANkHxfpEYBwBB8X6I4j3slHrOvXPjOTjBlO5+MRKA0VC8r/F5agAYnT179nxZ87o/saSUvi1GAgDT03XdDesF8e+WL5CjTUpvPfH4468Xh7+l9u/ff+1S0puaf+/48rGc823i0AFgWyneX1Hdb/xk69+VVrrXD3eJjdHB6CneA4yPotTnc0GMBACATbCfXCTGAUBQvB+ieA87ZTjf2ufhxFK6B8dIAEZD8b5G8R4ARqfv++s3r/sTS875DjESAJiektKPtC6Qo01KT4hD3xb1z/+J5t87xmzzLAHgcor3VzSfz7+k5PwbrX9fGinp2be+9dWuGeODUVO8Bxinup/5p9baN7XU69wdYyQAABwmxftFYhwABMX7IYr3sFOm/H7/wck5nxYjARgNxfsaxXsAGJ3ZbJaa1/2ppZRbxUgAYHpyTq9pXiDHmY/PU/raOPRtMe+6m9W/54Klv3ecKenPh29yikMHgG2jeL9R13U3rdfiN7b+G9mYOsdHx+hg1BTvAcbJvi9S0mNiJAAAHCbF+0ViHAAExfshivewU3LOP9U+D6eVPufHx0gARkPxvkbxHgBGp5Syr3ndn1j6vv+qGAkATMs8pbu1Lo7jTf69OPRtNaU70OacHxSHDQDbRvG+rZTunvXfef/yfyPNfKjuW+4do4PRUrwHGKdS0m+31r7ppXt5jAQAgMOkeL9IjAOAoHg/RPEedkrO3Y+3z8OJJaWnx0gARkPxvkbxHgBGZ+/a2lc2r/sTy969e0qMBACmpb7Y/9XWxXGs6XeoJD6Uulp//yiT0tlx2ACwbRTvD63ubx7Z+u9kY4ZS7nxt7eYxOhglxXuAcSopPbG19k0uKX24lLI3xgIAwGFQvF8kxgFAULwfongPO6WU7sHt83BiSelXYyQAo6F4X6N4DwCjk3O+cfO6P7GccMIJXx4jAYDpSCndpF4Ip3SH1HfUY57F4W+r+Xz+JUPpo/EzjDH/UUq5fRw6AGwLxfsrdY2pfZnS0SX/Ztd1Xxqzg9FRvAcYJx9a+kLqLE6NsQAAcBgU7xeJcQAQ/K6hRkEKdow1J2LdAUbIGl9jfQeA0en7tVs0r/vTyqfqKL5oMREAmJCS0umNC+No0+fuKXHoO6KU9JjWzzHG9Dn/XBw2AGwLxfsr1/f9V9V/95zl/1baybl7XIwORkfxHmCc+q47pbX2TTF1vX9OjAUAgMOgeL9IjAOA4I73Q9zxHnZKKd13tM/DiSWlX4mRAIyG4n2N4j0AjM58vnbz5nV/WvlYjAMApmO4I3t9of+mxoVxrPnPnb4r+7zrblZy9y+Nn2WEyX9Vn1N9HDoAbDnF+6uWUvq2+u//w/J/L818tM71PjE6GBXFe4Bx6rruxNbaN9H8Q875xjEaAACuguL9IjEOAILi/RDFe9gpfd99c/s8nFhSenqMBGA0FO9rFO8BYHTihmjta/9E0uf0vhgHAExHzvm7WhfGsSbn9NI49B1Vcn5e6+cZY+pz6iFx2ACw5RTvD08p6Ufqf/OZ5T9DWslvqfuX28ToYDQU7wFG6xp1rbtgee2bbEr32JgLAABXQfF+kRgHAEHxfojiPeyUvu9OaZ+HE0tKT4iRAIyG4n2N4j0AjM6UP4f5+aT03hgHAExHvQD+VvPCONaU7gfj0HdUzvk7mz/PKJO9IQnAtlG8P3w5d7/U+nNkY/qcXrBv377jY3QwCor3AONV17pzl9e+yaakt62trXUxGgAAroTi/SIxDgCC4v0QxXvYKfOuu1n7PJxYUjo9RgIwGor3NYr3ADA6XdetNa/7E0rO6d0xDgCYhlLKrepF8MLli+JYM1zs5/N5H4e/o+qsr9Pn9ObWzzXCfLqUtW+JQweALaV4f/jWS7cp/Z/WnyWNpPTEGB2MguI9wHiV3P1ua/2banLOD43RAABwJRTvF4lxABAUpGoUpGDHuFPgIpt97x9gFdhX1thXAsDo7Nmz58ua1/1p5UMxDgCYhj7nxzcuiONNSWfGoR8T9e//yebPNcIMpcg4bADYUor3m9P33Tf3Ob279efJhnw85/zAGB2sPMV7gPHKuXtya/2bbrp3xWgAALgSiveLxDgACO54P8Qd72Gn5Jxv3T4PpxXFe2CMFO9rFO8BYHRufbWrXbNe5z+z4bo/ofQl/XuMAwDGbz6fn1BSemvrojjKpPQ/Q/EsDv+YmM/Xbl5/jg83f77x5R/m89lJcegAsGUU7zcv5/yQ+t//1/KfJ82cV8rabWN0sNIU7wHGq+7v7tpa/yad0t05xgMAwCEo3i8S4wAgKN4PUbyHnZJSumP7PJxW+pTuEyMBGA3F+xrFewAYpXqd/88N1/2J5YQTTvjyGAcAjNtwN8/WxXC0SemVcejHVMn5N5s/3xhTuh+LwwaALaN4f2TqXujprT9TGknpxWtra12MDlaW4j3AeHVdd2Jd7z6+vP5NO93r+76fx4gAAGhQvF8kxgFAULwfongPO6Xvunu0z8NpZfhy1RgJwGgo3tco3gPAKNXr/CUbrvsTy/B51BgHAIxbyflFrYvhaJPSD8ehH1M55+9q/nzjzOvqIV9jceQAsDUU74/M3r176vYvvaT158rG9Dk/NUYHK0vxHmDchqJ5aw2ccup++WdiPAAANCjeLxLjACAo3g9RvIedUkp3v/Z5OK30/dotYiQAo6F4X6N4DwCjVHL3rua1f0Lpuu6mMQ4AGK9Syu3qi/t/b10MR5p/GO4EFod/TNWf40vrz/MnSz/feFO6b49DB4AtoXh/5HLO31D/nHcs/7nSzCV1H/MDMTpYSYr3AOPW5/xzrTVw4vnnumf+xhgRAABLFO8XiXEAEBTvhyjew04ppXtw+zycVD67trbWxUgARkPxvkbxHgBGqV7nX7fhuj+1lHK7GAcAjNdwB8/mhXC0yc+KQ98VSuke2/45x5ec03PisAFgSyjeH536Z3zfxL6A6SiS/yqldMcYHawcxXuAccs5f2drDZx6+pxeUMdz3GJKAAAcTPF+kRgHAEHxfojiPeyUnPMj2+fhhJLSh2McAKOieF+jeA8Ao5Rzen7z2j+hpJS+LcYBAOO0d++eUnL3rtaFcKzZbRf4vl+7RSnpI62fdYT54N6uu2kcOgAcNcX7o1f3IU9q/fnSSvfyUsreGB2sFMV7gHGre5R9dc372PIaKMN1ID80xgQAwEEU7xeJcQAQFO+HKN7DTulT+pn2eTip/GWMA2BUFO9rFO8BYJTqNf7M5rV/Qtmqz7ADwK5VSvfg1kVwxHldPeyrL45+9ygp/VbjZx1nSnpMHDYAHDXF+6NXStlTcv691t8hjZR0ZowOVoriPcD41TXv3OU1UNZzwWw2SzEmAACC4v0iMQ4AgoJUjYIU7Jicuyc3z8NJJb8hxgEwKvaVNfaVADBKdZ/z6Oa1f0op6edjHAAwTut37WxdBEeanPNpcei7St14ndr6eceYPqc3z2az68ahA8BRUbzfGvOu+7pS0ttaf49syKf7nB8Wo4OVoXgPMH51P/ek1jooNSmdvXfvnhKjAgCgUrxfJMYBQHDH+yHueA87Jef0/PZ5OKXk58U4AEZF8b5G8R4ARinn/IDmtX9SyX8Y4wCA8Smlu3O94P33xgvgaPP+UsrJcfi7ylBErz/fny79vKNNn9J94tAB4Kgo3m+dujf8nvrn/uvy3yPN/F3dV35LjA5WguI9wPjV/dx3tNZBiZT0CzEqAAAqxftFYhwABAWpGgUp2DEld+9qnodTSkpnxDgARsW+ssa+EgBGKbp47ev/dPJ3MQ4AGJ+cu19qXPxGm5zTc+LQd6X6eDyu9XOPMiX9Thw2ABwVxfut1ef8+NbfJY2U9Kp9XXdijA52PcV7gPGbz+d93aN8pLUWyno+l3N+ZIwLAGDyFO8XiXEAENzxfog73sNOiBvVfHTjOTit5JwfFCMBGBXF+xrFewAYpZTSgea1f1q5rPMZagDGaO/a2lfWC93fL134xp3S3TMOf1fq+/6W9ee8cMPPPc78a91s/q84dAA4Yor3W+uEE0748uFNn9bfJ63kZ8XoYNdTvAeYhrrunbO8DsoVclnfdafEuAAAJk3xfpEYBwBB8X6I4j3shL5fu0X7HJxW5il9bYwEYFQU72sU7wFglA4cOHCteq3/wIZr/8SSc75rjAQAxqOU7kdbF77RpqQ3nXTSSV8ch79rlZR+u/nzjzEpPTEOGwCOmOL91iulfE398/9k+e+TQ6R0Pxajg11N8R5gGure5Adba6EclJLeVsrabWNkAACTpXi/SIwDgKB4P0TxHnZCzvk72+fghFLSR048/vjrxUgARkXxvkbxHgBGq+T8hub1f0rx+WkARuiL6kVuWne/Kukxcey7Wp/Sdzd//hEm5/QXpZQ9cegAcEQU77fHPOfvKrn7l9bfK0sp6Z/qY3H3GB3sWor3ANOwf//+a9d93MWt9VC+kD6nd89msxRjAwCYJMX7RWIcAATF+yGK97AThs/ztc/B6cR7WMCYKd7XKN4DwGjV6/yzm9f/KSWls2IcADAOfdfdo3nRG2tS+vB8vnbzOPxdbTabXbf+zOduOIaRpk/pe+PQAeCIKN5vHx902Ey615dSTo7Rwa6keA8wHX3Oz2yth7KUkl49T+lrY2wAAJOjeL9IjAOAoHg/RPEedkKfu19vn4PTSZ3Bc2McAKOjeF+jeA8Ao9Xn/Mjm9X9KKelNMQ4AGIfJfbNOSr8Vh74Scu5+qnkcY0xKL47DBoAjoni/fYa7pfqww+En5/ScW9/61teM8cGuo3gPMB3zlO7WWg+lmdeVsnbbGB0AwKQo3i8S4wAgKN4PUbyHnVBS+uP2OTidDEWNGAfA6Cje1yjeA8Bola779ub1f1r5dHLDCwDGouu6m9aL2weWLnajTp/Sd8fhr4RSytfUn/ujy8cx0nwy5/wNcegAsGmK99srpXSg5PyG1t8vjaR0eowOdh3Fe4BJuebwrdKtNVEaSemP63XyjjE7AIDJULxfJMYBQFCQqlGQgp1wXD3fLtlw/k0sKaU7xTwARse+ssa+EgBGq5RycvP6P7H4QjkARqO+iH9M62I33nR/tmfPni+Lw18Zwy9b2sczxuSnxWEDwKYp3m+/Uta/lfGfl/9+aeZDOed7x+hgV1G8B5iWuod7bGtNlHb6nN7c9903x/gAACZB8X6RGAcAQUGqRkEKtl0p5fbN829auWw2m103RgIwOvaVNfaVADBqJXcXN/cAk0p+Q4wDAFZX13VfOnyItH2xG2f6nB8fh79S+pTu0zqeUaakv+77fh6HDgCboni/M3LOp7V+BtmYoeA7n6/dPEYHu4biPcC0zGazVNfAy5bXRLnSXDh8I3mMEABg9BTvF4lxABBKWbtXa72cVrpXxDiAbVJSemL7/JtSlBOAcVO8r1G8B4BRq6/rfq+5B5hWPjqfz06KkQDAaupT+u7GRW7M+bec823i8FfKcJf+4W79jWMaZerj9NA4dADYFMX7HfNFJaWzWj+HtJJ/c/jSq5gd7AqK9wDTU/ckL2qti3KleWfO+QExQgCAUVO8XyTGAUBQvB+ieA/brZT06vb5N6Xkp8U4AEZJ8b5G8R4ARq3udx7d3ANMLHUO3xcjAYDVNLyAb13kxpo+dy+MQ19Jfc4/3TqucSb/YRw2AGyK4v3Omc9nN8o5vab1s8jG5Nz9VIwOdgXFe4Dp8YGmI86Fw5ujMUYAgNFSvF8kxgFAULwfongP2ynnfIN6rn1s47k3rfQpnRojARgl71PVKN4DwKj1XfdNzT3A5JKfFyMBgNUz3Pm9XtAm9QvrVb87VSnlVvU4pvKYXVaP9y5x6ABw2BTvd1bdX31r/bv/fvlnkWY+Wkp33xgdHHOK9wDTs3///mvXdfDC5XVRDi/1+vGcOsbjFtMEABgfxftFYhwABMX7IYr3sJ2Gwnn73JtULhreu4uRAIyS4n2N4j0AjN1x9Zp/yYY9wPRy0TCLxUgAYMWUlJ7QuLiNOef1fX/9OPyVVUr6ncaxjTJ9zs+MwwaAw6Z4v/PqvvKH699/2fLPI63ktwxfgBWjg2NK8R5gmvqcH9VaG+XwUl9vvLDv+1vGOAEARkXxfpEYBwBB8X6I4j1sp5LSM9rn3qRyTowDYLQU72sU7wFg9PqcXtrcB0wsOeeHxkgAYHWUUvbUF+9/3rq4jTYlPSkOf6UNd0ltHt8o0/3jfD67URw6ABwWxftjI+f0i62fSTamz+kF+/btOz5GB8eM4j3ANPV9Py+5+7PW+iiHmZT+OOd81xgpAMBoKN4vEuMAICjeD1G8h+1USnpT+9ybTnLunhLjABgtxfsaxXsAGL2c80819wFTS0mvruO4xmIqALAi+pS+t3lhG28+WcrabePwV9oJJ5zw5cOdUhvHOMrk3P14HDoAHBbF+2Mj53yDukd5RevnkkZSemKMDo4ZxXuA6fLBpi3JJcr3AMDYKN4vEuMAIPg9Qo2CFGybKb9fdYWU7s4xEoDRsq+ssa8EgNErpdy+uQ+YYuosYiwAsBpKSi9uXtTGmpL+IA59FPqcH988zlGme3095OMWRw4AV03x/tipf/831n3X37R+NtmQT+ScHxSjg2NC8R5gutbW1ro+pze31kjZVP6j5Py0Usq+GC0AwEpTvF8kxgFAcMf7Ie54D9ulz/mp7fNuUvnbUsqeGAnAaCne1yjeA8Do7du37/g+p3c39wJTi70PAKsk5/wN9QL2yQ0XtDGndD8Qhz8K9TG8dT2uf91wnGNN6b4jDh0ArpLi/bFVr9sPrj/Lp5Z/NmnmvFLWbhujgx2neA8wbSWlH26tkXIEKelV9bp6txgtAMDKUrxfJMYBQFC8H6J4D9uh67q1eo69Y+M5N7GU9OwYCcCoKd7XKJ8BwCQMr/Oae4Hp5eOllNvFWABgd1u/C1P7gjbOpPTXN9izJ8fhj0bO6fnN4x1h+tw9Nw4bAK6S4v2xN7n95tEkpRcPd5yN0cGOUrwHmLa+769f9yJ/3Fon5Yjy/lLSY2az2XVjxAAAK0fxfpEYBwBB8X6I4j1shz6l72ufcxNL6e4bIwEYNcX7GsV7AJiE+jrve5p7gSkmpWfEWABg9+r7fj4U0ZsXs7FmpBfpuhG7X/N4x5kPzbvuZnHoAHClFO+PveFLj0pJv9/6GWVj+pyfGqODHaV4D0DO+SGtdVKOPPUa84K+606JEQMArBTF+0ViHAAExfshivewHUpKZ7fPuUnl72ezWYqRAIya4n2N4j0ATML+/fuvXa/9l2zYC0wy3cVuYgHArpdzfmj7Qjba/Hef0jfG4Y/KiScef72S0lsbxzzOlPSTcegAcKUU73eHUsrt6s/0l8s/ozTzn6V0Pxijgx2jeA/Aiccff726Lr5ueZ2Uo8476/7uwTFmAICVoXi/SIwDgKB4P0TxHrZa33enlJwvbp9z00mfu1+PkQCMnuJ9jeI9AExGve7/TnM/MMWU9LMxFgDYnUrOf9i8iI02+Q/j0EepT+ln2sc9yvzJnj17viwOHQAOSfF+96g/z/cO31TY+lllKSn9dUrpTjE62BGK9wAMfHh+O5Of51u7AYBVoni/SIwDgOB3B0MU72GrDR+6b59vE0vp7h8jARg9xfsaxXsAmIzhhlzN/cAE0+f0vlLWbhujAYDdpZRyl76k/2ldxMaaPueHxeGPUs75NvU4L1o+7tGm6+4bhw4Ah6R4v7v4wMRm0r287tn3xuhg2yneAzCo+4/r1D30C1vrpWxJ/iTn/MAYNwDArqZ4v0iMA4CgIFWjIAVbav/+/deu59aFG8616eWSYRYxFoDRs6+ssa8EgMkYbtRQr/+XbdgPTDTDZ5NiNACwu/Q5P7N18Rpxzh+KJHH4o5VzekHj2EeZeqzPj8MGgENSvN9d+r6/viLXJlLSmTE62HaK9wBcLud8h7o+nr+8XsqW5dKS0q/M52s3j5EDAOxKiveLxDgACO54P8Qd72Er9Sk9un2uTS35WTESgElQvK9RvAeASRmu/c09wTRzSSnlXjEaANgd5vPZjUru/rFx4RpthtJdHP6oldJ9T+v4R5qLUkpfG4cOAE2K97tPvX7/r5LSW1s/s2zIp/ucHxajg22leA/Aweoe5JGtNVO2LvX68xeldA+OkQMA7DqK94vEOAAIivdDFO9hq3Rdd2Kf09vb59qk8tmc811jLACToHhfo3gPAJMysb7XVabP6aWllOvEeADg2Mu5+/HWRWvE+VzO+Vvj8Edt//79X1FSeltjBuNMSWfEoQNAk+L97lRKd7/6M35s+WeWZs4vpdwlRgfbRvEegIPNZrPrlpx/r7VuyhYnpd+q+73bxegBAHYNxftFYhwABMX7IYr3sFVy7h7XPs8mlpJeHSMBmAzF+xrFewCYlPl8fkLdA5y3YU8w4eScHxrjAYBj7riSu9e3LlhjTZ/Ta+PYJ6Gk9ITWHMaY4RuPU0qzOHQA2EDxfvfqc/7p1s8tjZT06r1ra18Zo4NtoXgPwLJ6bbhTXSf/YXndlG3J+SWln+j7/voxfgCAY07xfpEYBwBB8X6I4j1shVLKySXnv2qfZxNLST8SYwGYDMX7GsV7AJic+jr4ac19wXTz/v379187xgMAx04p3Xc0LlTjTul+LA5/ElJK/6se90Ub5jDS9Cl9Xxw6AGygeL977dmz58vW7+7Z+NmllfysGB1sC8V7AFrqnvLRrbVTtiv5D4ff38b4AQCOKcX7RWIcAATF+yGK97AVSkpPbJ9jk8v5XdedGGMBmAzF+xrFewCYnJzzN9R9wKc27AumnJJ+IcYDAMdOn7vnNi9UI02f0/v6vv+qOPzJqI/zC1vzGGVK+v04bADYQPF+d+v7tVvU/dqbWz+/NDKxL5RiZyneA3AowzrZWj9l23JZSemsoegWDwEAwDGheL9IjAOAoHg/RPEejtZ8vnbzej793cbza3rJufulGAvApCje1yjeA8Akldy9vLk3mG4uLaV7cIwHAHbevOtuVi9IH1q6QI07Jf1aHP6k1E3H/ZvzGGcuyTnfIQ4dAK5A8X73q9fx76w/7wXLP780UtI/1cf17jE62FKK9wAcSt9131RSem9rDZXtTPeuPudHllL2xEMBALCjFO8XiXEAEBSkahSk4KjV8+jM5vk1wXRdd9MYC8Ck2FfW2FcCwCTZB7XSXdz3/TxGBAA7q5Tuse0L1IhTum+Pw5+Uffv2HV9K+vPmTMaYlJ4ehw4AV6B4vxrqtfwnWscgrXR/lHO+cYwOtoziPQBXppT0mNYaKtufPqfXltLdLx4KAIAdo3i/SIwDgOCO90Pc8R6ORnwx+0Ubz60pJr8oxgIwOQpnNYr3ADBJQ8F8Un2vw01KL04pzWJMALAz9uzZ82X1QvSnGy5MY05Kf1wP/ZqLCUxPPf4nNucyxpT0N6WUvXHoAPB5iver4aSTTvrinNNzWschGzPM6sCBA9eK8cGWULwH4KrUNfOc5TVUdi71evWS+Xx2UjwcAADbTvF+kRgHAEHxfojiPRypUsq+eh75PeMinx2+hCBGAzA5ivc1ivcAMFlugHGIlHRGjAgAdkYp3X2bF6UxJ6XT4/AnaZ7S19Y5/NuGuYw0fc4/FIcOAJ+neL86hru4l5z/qHUs0sjE97psPcV7AK7KvOtuVtfN1y2vo7KT6f6l7gOf3nXdTeNhAQDYNor3i8Q4AAiK90MU7+FI5dw9uX1eTTAl/X6MBWCSFO9rFO8BYLLms9lJJee/au4Rpp1/K6X7nhgTAGy/nNPzGxekMecCH0C92tVK7n63MZtxJqVXxmEDwOcp3q+Wvuvu0ef0vtbxyIZ8KOd87xgdHDXFewAORynlW0pKf91aT2Unk981fBHTbDZL8dAAAGw5xftFYhwABMX7IYr3cCRK6e5Zz6GPbTynppk+pe+O0QBMkuJ9jeI9AExaSemM5h5BLvB5GAB2RNz5/KKlC9HIk58Xhz9pOecHtOczynymHu+3xqEDwDrF+9WTc/fjreORjelzevN8vnbzGB0cFcV7AA5XKd2d6/p52fJ6Ksck5w9fXhUPDQDAllK8XyTGAUBQvB+ieA+bNZ/P+1LSq9vn1PTS5/TSOparL6YDME2K9zWK9wAwacPNZuue4O837BFk/casKaUDMSoA2B71hfnkvgUn5/xdcfiTNp/PT8g5/UVrRuNMflYcOgCsU7xfSVcfrumtY5JGUvqt2Wx23ZgdHDHFewA2o5T0mNaaKscoKb24lO474uEBANgSiveLxDgACIr3QxTvYbOm+PnFK03p7hejAZgsxfsaxXsAmLw+559r7hPk//W5e2Hf9/MYFQBsrZTSrM/p7a2L0Ijzp13XfWmMYPIm9cZFSu+tG6uvikMHAMX7FbV3be0r6x7GHQ8OMzl3PxWjgyOmeA/AJl2j7rV/qbWuyjHLJ+u+8Lk55zvEYwQAcFQU7xeJcQAQFKRqFKRgU1JKd6rnzmUbzqWJxvtSAAv2lTX2lQAwebPZLNV9waUb9gmySEpnx6gAYGv1KX1f8+Iz4uScFY8OMu+6r6tz+fjynMaa+vifFocOAIr3K6yUcpd6HOcvH5c089FSuvvG6OCIKN4DsFnz+bwf3uBqra1yTPOh+rg8fd51N4uHCgDgiCjeLxLjACC44/0Qd7yHw9V33TfV8+adG8+jyea/+pROjfEATJrifY3iPQBQ5dw9ublXkPX0uXtqjAoAtk59Uf4HrQvPiPOvpZRbxeETSu5+rzGrkSb/0a1vfbVrxqEDMHGK96utHsPD67F8evnYpJX8lpzzbWJ0sGmK9wAcifjm7fcvr62yG9JdXFI6ff/+/deOhwsAYFMU7xeJcQAQFO+HKN7D4Ugp3aTP6TXt82iq6X4jxgMweYr3NYr3AEBVSjm57g3+csNeQS7PZ+q+6SdiXABw9FJKd6wXmP9cuuCMOjmn58fhc5Cc8wNb8xptSnfPOHQAJk7xfvWVks5sHZ9sTH2+v3A+n58Qo4NNUbwH4Ej1XXePup7+/fL6KrskJf15zt1pw5ckxEMGAHBYFO8XiXEAEBTvhyjew1XZt2/f8SWl32qfQ5PNB3LO3xAjApg8xfsaxXsAIPQ5P6y5X5DLc1ndP54a4wKAo1NSekbjYjPulO574vA5SN/31+9zentzZiNMn7tfj0MHYOIU71dfKWVvyd3LW8cojZR0RowONkXxHoCjER+6v2x5jZVdlJTeO3w5ZzxkAABXSfF+kRgHAEHxfojiPVyVnLuntM+f6abO5MkxHgAqxfsaxXsAIKytrXUl5zc09wxyeT5RkjvfA3CUSin7ck7vblxoRpt6vH8xfFtujIAlpaSfbc1tpLlgPl+7eRw6ABOmeD8O85TuVFL669ZxyoZ8Iuf8oBgdHDbFewCOVinp++u6+sHldVZ2V/qcXltfK3zvgQMHrhUPHQBAk+L9IjEOAILi/RDFe7gypaRH1HPlvzeeO9NNn9NflFK+OkYEQKV4X6N4DwAcpKT1z9209w1yeS4bunH79++/dowNADanz/lhjQvMuFMvnnH4NPRdd0qd0yc2zG2sKd1j49ABmDDF+/Go1/YfrMd1yfJxSjPnlbJ22xgdHBbFewC2Qt2z/UBdW5XvVyB9Ti+rrxnuEw8dAMAGiveLxDgACApSNQpScEh1jTi1nieXbThvJp6xvXcPsBXsK2vsKwGAgww3UKj7gz9o7hvkCsk5/WIpZU+MDgAOX0npla2Ly2hT0r/3fXdKHD6HUHJ+UXN+48yfnnDCCV8ehw7ARCnej0uf81NbxyqNlPTitbW1LkYHV0nxHoCtEl+Y9KHl9VZ2aVJ6cc753vHwAQB8nuL9IjEOAIKCVI2CFDQp3R8y58WIADiIfWWNfSUAsCRuuOq19WEk5/QSd74HYFNyzt9aLyKfWb6ojDopvTgOnytRnxsPas5vrCnd/eLQAZgoxftxGYrkw76vdbyyMX3OPxejg6ukeA/AVory/QXLa67s2ny6Xg9fUF9D3D0eQgAAxftIjAOAUMravVrr5bTSvSLGAYSc8w+VlD7cPmcmnDoTv3MDaFO8r1G8BwAaSs5Pa+4dpJH8onnX3SxGBwBXrl44ntW+oIw3YyyWbYdSyp4+p7e3ZjjGDB8YjkMHYKIU78enlLXb1uM7b/l4pZn/HEpvMTq4Uor3AGy1uh91h6uVTPeKUsrJ8TACABOmeL9IjAOAoHg/RPEeDtan9PB6bnx047kipaQzYkwALFG8r1G8BwAa9q6tfWXdJ7ypuX+QRrrX9113jxgfALSVUr66XmD/qX0xGWu6dw13P40RcBXq8+NJ7TmOMv8277qvi0MHYIIU78cp5/ygeowfXz5maSSlv56ndKcYHRyS4j0A26Hu2x7iTlcrmU/U11LP7bvum+KhBAAmSPF+kRgHAEHxfojiPVyulPSIel5ctPE8kT6n187n8z5GBcASxfsaxXsA4BBK6e5f9wuf2rB/kEPln/ucH1VHd83FBAFgSc75kY0LyMiTnxaHz2Ho+7WvrzO7uD3LEaakn41DB2CCFO/Hq6T0xNZxSyvdy0spe2N00KR4D8B2yTk/tJT0kdYaLLs+F9XH7tfqPsEXOQHABCneLxLjACAoSNUoSMG6WA8u23COyJDL+q47JUYFQIN9ZY19JQBwJUrOz2ruIeSQyTk9J6V0kxghACwcOHDgWvXC+obWxWPE+a96UbxjjIDDVFI6uzHLsea8ruvW4tABmBjF+/Hat2/f8X1OL2gduzRS0pkxOmhSvAdgO9W96al1zfUh3NXNZcOHv+bz2UnxkAIAE6B4v0iMA4DgjvdD3PGeaVtbW+tKSk8vqfuf9jkifc4/F+MC4BAU72sU7wGAKzHvupvV/cKfN/cRcuiU9MZSyr1ijAAwvLlVJvjmVvfyOHw2oU/pe9vzHGfGXjwE4NAU78ct53ybkvNbWscvS0npf+pz4uExOthA8R6A7Vb3bnet6+4ly+uwrFTWC/jDviEeVgBgxBTvF4lxABAU74co3jNdOedb13Pgd9vnhqwnpT/uuu6GMTIADkHxvkbxHgC4CnXPNNzoor2XkCvLZTl3p8UYAZi6kvNvNC4Wo07O+aFx+GxCSmlW53fe8jxHm5L+IA4dgIlRvB+/0nX3rcd74fLxSzPnl1LuEqODK1C8B2AnlNJ9e117z11ei2XFUtJHSs7Pyjl/Qzy0AMAIKd4vEuMAICjeD1G8Z5pK6e7Z5/Tm9nkh60npwznn74yRAXAlFO9rFO8BgMMw7Bmaewk5nJwzn89OilECMEV9v3aLkrt/aVwkxpz3lFL2xQjYpJy7JzdmOtb8Z0rpjnHoAEyI4v001H3N41ozkEZKevXetbWvjNHB5yneA7BTSim3Kyn9n9aaLCuXj9b95a/OU7pTPLwAwIgo3i8S4wAgKN4PUbxnekpKP1JK+qf2OSGfT+keGyMD4Coo3tco3gMAh2Eojvc5vba5n5DDyQfqvuuMnPMNYqQATMkUy0Y5p1+Mw+cIlLJ227p5+PfWbEeZlJ4Rhw7AhCjeT0PXdV9acv7N1hyklfysGB18nuI9ADsp53zj4cNErXVZVjIX1evpc/q++6Z4iAGAEVC8XyTGAUBQkKpRkGJajqvP+TOb54Is55yYGQCHwb6yxr4SADhMKaVvq3uH9zb3FHJ4KemNOecHxUgBmILjjz/+evUicO6Gi8K485lS1r4lRsARKim9uDHbUabP6d2llH1x6ABMhOL9dMznazcfyrOtWcjG5Nz9eIwO1ineA3AMHDeUtVtrs6xsLhs+JNZ13U3jMQYAVpji/SIxDgCCO94Pccd7piHnfO+c02va54FcMfktpZRbxegAOAyK9zWK9wDAJgyf+23uKWQzuay+hn/ecCPbGCsAY1ZK9z2Ni8G4U9Kr4/A5Cn1K39ec70hTj/fhcegATITi/bQMH/6ox/7B5VnIxvQ5va/vunvE6EDxHoBj5Zp9zj9d1+P/WF6fZaXzHyWl366vSe4ejzMAsIIU7xeJcQAQFO+HKN4zbvP57KSS0tPr8/3fNj7/pZGLSunuF+MD4DAp3tco3gMAm1Rfr5/d3FfIZnNJfS3/2P379187RgvAGPW5e2HjIjDulPSIOHyOQtd1a3Wef7lhvmNNSa+KQwdgIhTvp6ce96Nb85BW8h/lnG8co2PiFO8BOJbqHu7hdU1+//IaLSufS0vufnf4gqx4qAGAFaJ4v0iMA4CgeD9E8Z7xyjk/YHjfpP3cl2ZSekKMD4BNULyvUbwHADaplHLy8Nnf5t5CjiTn1T3ZY7quOzFGDMBY9F13Sl3oP7608I87Kb13+GbdGAFHKefuKc05jzOfzTnfNQ4dgAlQvJ+eW9/6atcsJT27NRPZmJzTcw4cOHCtGB8TpngPwLFWuu6+dV1+x/I6LaPIZ+se/Q/izl/XXDziAMBup3i/SIwDgKAgVaMgxQit7/3qc7v5nJcryzl1fMctpgjAZthX1thXAgBHoOu6m9a9xCUb9hZyNLkw5+40d8AHGJH6ovtJjQV/3EnprDh8tkAp5XZ1rv+xYc5jTUq/EocOwAQo3k/T4hsdu9e35iKNpHR6jI4JU7wHYDcY9nF9Tu9urdcympw33B0xHnIAYBdTvF8kxgFAUJCqUZBiRIYPlA8fLK/P7Qs3PNflSjP8HnM2m103RgnAJtlX1thXAgBHqJTuB+p+Ylo38d2ZvCPn7nFuFgyw4tbW1rq6qP/l0iI/+vQp3T1GwBYpJb24NetRpqR/KqV8dRw6ACOneD9dw56xXvff25qNbMgFOefvjNExUYr3AOwW8/nsRsMXJ7bWbBlVzsm5e8h8Pj8hHnoAYJdRvF8kxgFAGL5MrbVeTivdK2IcsLJusGdPzrn78ZLzW9rPc7my9Dm9PaV0xxgnAEdA8b5G8R4AOArDTbeaewzZilw4zHc2m6UYNwCrpL7g/v7G4j7y5D+qh36NxQTYKlP7BVaf8yPj0AEYOcX7aSul+9E6i88tz0Y2ps/pzX2/dosYHROkeA/AblP3cj9Wki9SGn1KelPNI4YPe8dDDwDsEor3i8Q4AAiK90MU71ldKaVZSelH6nP5TzY+t+Uw8/4+pe+OkQJwhBTvaxTvAYCjc1yfu19q7jNkq/LRnNPzS+m+x40lAFZIXbxf0ljUR50+50fF4bOF1tbWujrfdyzPe7zJbzhw4MC14vABGDHFe+r+8Zmt+UgjKf3WbDa7boyOiVG8B2A3mqd0t7pWn7O8dssYk99SX8M8etiTxMMPABxjiveLxDgACIr3QxTvWT376+Yu5/xDpaQ3tp/Xcpj51PDFBTFWAI6C4n2N4j0AcJT27t1TSs6/19xryJamz+kv6v7tSaWU28b4AdiN+pS+sS7cn1peyEeeD6aUbhIjYIv1uXtqY+bjTSn3ikMHYMQU7+m67sRS0qtaM5KNyTn/VIyOiVG8B2C3ms/nNyopndVaw2WUeUfO3U+VUr46ngIAwDGieL9IjAOAoHg/RPGe1dH3a7fIuXtcfe6eu/G5LJtOSWfEaAE4Sor3NYr3AMAWKKXsKSm9t7nfkG1KfkMp3f32799/7XgYANgt6ovtM9uL93jT5+7X4/DZBnWzdfs6508uz328yb8Rhw7AiCneMyhl7VvqTN6zPCNp5mOldPeN0TEhivcA7HbxAaxLltdxGWu6i0tKZwyFv3gKAAA7TPF+kRgHAEFBqkZBihXQd90pJaWz63P20g3PYTmy1HnGeAHYAvaVNfaVAMAWKaWcXPcXF27Yb8h259K6p3tVn/PD+r6fx8MBwLEShYjJFYdyzveOEbBN6gX/91uzH2e6fxm+1TkOHYCRUrzncn3OP1Tn8t/Lc5JGUnprfc3xv2J0TITiPQCrYJ7S3era/brltVxGnOFb2VN6Rn3svzaeBgDADlG8XyTGAUBwx/sh7njP7tT3/VflnE8rOf9R+7krR5qc03NSSrMYNQBbQPG+RvEeANhCpXTfUfcXf93cd8hO5NPDZ1H7nJ9a97p337dv3/Hx0ACwU0pKP9xYoEedPqc3z+fzL4kRsE3qc+v7W/Mfa3LuHheHDsBIKd5zsFLSz7dmJRtTz50X1v33CTE6JkDxHoBVMXyAuKR0VmtNl1HngpLzs3LOd4inAgCwzRTvF4lxABAUpGoUpNhFZrPZdet5eerw3l59fl6y4fkqR52c00vqqI9bTByArWJfWWNfCQBssVLK7es+w+8HdkcuWv99Teke3PezW9aHx+8WALZbfaH96saCPO6U7rFx+Gyj2WyW6rzfuWH+4825xx9//PXi8AEYIcV7Dtb3/bzP6WWteUkjJZ0Ro2MCFO8BWDFflHP343UNf19rbZdRZ3hj8rmllLvEcwEA2CaK94vEOAAI7ng/xB3vObZKKbcqpfuxUtIf1Hyk/TyVrUif0wuG99Bi9ABsIcX7GsV7AGAb5JwfWPca79+w95Bjmn79dzj5DX3Oz1yU8de+fs+ePV8WDxsARyul9G11wf3c8gI88ny07/vh213YAfUi/nONx2C8Kd33xKEDMEKK9yyr++k7lpzf1ZqZbMgn6t7wQTE6Rk7xHoBVVEo5uZT0ttb6LlNI94r4VnAAYBso3i8S4wAgKEjVKEix847LOd+mz/nx9Tl43obnpGxXzp3NZteNxwCALWZfWWNfCQBsk7rXOrXuNy7bsP+Q3ZZLas6t+8Izc+5OG770dPgczPAeXTyUAByuktJZS4vs+FPS78ThswNyzt9Q5z5cvNuPx8jS5+6FcegAjJDiPS11f/n9dUafXJ6ZNPOXpZTbxegYMcV7AFZVvYbN+px/uq7pH1pe42USuazu7/+glO5+J5100hfH0wIA2AKK94vEOAAIClI1ClJss+E9m+ED8vFe97k1k/kc1y6K0j3ANrOvrLGvBAC2kfL9yueSPqd31z3jq9a7pCmdPuyhc84PTCnd6fIMNy0Zfpc0pP7fe+LhB5iWujjeuC6a72sspuNO6e4bI2CHrH9YtfVYjDMf77vulDh0AEZG8Z5Dybl7Smtu0khJvz+bzVKMjpFa/6Vb6/GfQBTvAcahXsvuVnL+w9ZaL9NIvaa/ppTuwX3fXz+eFgDAUVC8XyTGAUBQkPr/2bsXeFvLcf//Dguhw17LHPO+ruseazUtC9UKkfNpOws5n5I2r07OhxByrFAh/B23Q2UjyfkUSuGPkHO2TtohhCJUVora9v9/PXNcqDHutZprzjHGfA6f9+v1ffHbv6zWuJ77eZ57zDm+4/FQkMKYVMXulNKOOaVdB0+zT5/yNXbhyJojU46eROkeACaPfaWHfSUAAJgwyveENDHpIv/Ps6rPNlfvGUz1MNW0X7/fWxenNoBhfsN7wejJ1PKInLJ25cptYgSYErO0V/F4tDUmr4qXDgBoGYr32JiU0qzvNY8tzY6MJqseGqNDS1G8BwC0QfVlQb7He6XnN6VrPulMvqaq+3m2jaUBAAAWgeL9IDEOAECgIOWhIIVrUP2Mqvq9SxVVvb3Z7COqD8cOfnc9X67/noeCfR0zOL9XDI4kAGCS2Fd62FcCAIApqB5g4HuPc0f2IoSQJubkqojv76ceUv0uN05zoNvm5ua2MJEvF06YdkfkwBgBpmjbmRn1C/GpxWPSznx/dnY2xcsHALQIxXtsSs6zd8kq3ynNj4zkUrO0d4wOLUTxHgDQJr5veaiZHFe67pNO5QfV0+J8n7M+lgYAANgMFO8HiXEAAAIFqfls8FQfVibkqimtFdKkiBwUlzoAwBSwr/RQvAcAAFNiZnf3/Uf1M63yvoQQ0sRcWH0uquocx6kOdJOqPqpwgrQ9f+qL3DFGgCmrvgGlcEzaG5M946UDAFqE4j2uie+zn+jz+sPw/EghJv/t+/N7xejQMhTvAQAttKL6sKxf668cvvaTriVdVL03rJ42F2sDAAAsAMX7QWIcAIBQPbm7dL0khJDGxuS3qum5cZkDAEwJxXsPxXsAADBF0Uv8/siehBDS6GSV72bV5/G5KHSWqR5ZOjnaHf1QvHwsA99U3dOPw6Wjx6WdUZWPxUsHALQIxXsshIm8sjRDUkr6lJmtidGhRSjeAwDaqioEZJUvlO4BpGtJv/a9/9tzTveN5QEAADaB4v0gMQ4AQKB4TwhpWc7IIk+KSxwAYIoo3nso3gMAgCkzs+18H3L+yL6EENL8iJzj77MeE6c70A1+Y7tt9c2qxZOixeGH2suvKqOXjk1L8xee4AoA7UPxHgsxNzf3b77veX9pjqQQkzfE6NAiFO8BAG1WfXGQanqNX/cvHL4PkE7mEt/Tvs8sPTyWCAAAKKB4P0iMAwAQKN4TQtqT9A2z9LC4vAEApozivYfiPQAAWAY5577vRc4a2ZsQQloSPcxP9RWDMx5ouaz6svKJ0Or8QER6MQIsE7O0d+HYtDcmr4+XDgBoCYr3WChV3dnndvLwHMlosskVvr6eHqNDS1C8BwB0QU7pzlnltNL9gHQz1T7A18WusUQAAMBVULwfJMYBAAgU7wkhrYjJcap6j7i0AQCWAcV7D8V7AACwTMzsdqb6oeIehRDS/Ji8r5/SreKUB9ppzZo1K/1m9s3iSdDiZE2HxAiwjFavnjFffz8qHaOW5vSqcBQvHwDQAhTvsTl8Zo/1N5q/Lc2TjOQsM3tAjA4tQPEeANAVs7OzySwd4PeAnwzfE0inc0JWfWpKaTaWCgAAnUfxfpAYBwAgULwnhDQ9WeUDKaUd47IGAFgmFO89FO8BAMAy6vf7ucufsyek/Ulf5LP+aDVVfWJ58bc6l/KNsvVhqocVjlF7I/KMeOkAgBageI/NFSWs4kzJUEw+t3p29mYxOjQcxXsAQNfknPsmcmzp3kA6nXNV035zc3NbxFIBAKCzKN4PEuMAAASK94SQZkff0u/fJMclDQCwjCjeeyjeAwCA5Xc91fQS35v8cWSvQghpQ77fF7lXnO9Au5imYwqLvtXJKh+Pl48aEJF/9+Pyl+Hj1NqYfC5eOgCgBSjeY3OZ2Y1M9YjSTEkhIm/1sV17MD00GcV7AEBXqeoeZvLl0j2CdDl6qu91X7map58BADqM4v0gMQ4AQKB4TwhpaC43k4Oq3wXH5QwAsMwo3nso3gMAgJowS3v5/uSskf0KIaT5MTku53yLON2BdjCbvatpuqi46NscS/vECFAT1ZchFI9VO/N/IvKgeOkAgIajeI/F6Kd0K8pXC49qem6MDg1G8R4A0GVmtsZEDvT7wrnD9wnS9ej/+Np4rb9HuFMsFwAAOoPi/SAxDgBAoCBFCGlgNvC7cwCoH/aVHor3AACgRnJKu2aVrxb3LYSQRidrevfMzMxWcboDzaeaXlNa7G2O36RPyzn3YwSoierLEErHq7UReVu8dABAw1G8x2L5/ufhPsdfDM+VjMb38D+rfuAWo0NDUbwHAGD+Q1739vvC+0v3C9L1pF9XPzOs1kgsFwAAWo/i/SAxDgBA4In3hJBGxeQj/DwHAOqJ4r2H4j0AAKiZXq8nvk85eWTfQghpfkQOilMdaLZtZ2bUF/UPRxZ522NyeIwANdLv97Mfm/8uHrMWpiqPmdl28fIBAA1G8R5LkVWfX5otKUVPVNXtY3RoIIr3AAD803XN0t6m6Rul+wbpetJFJnIUXzwFAOgCiveDxDgAAIHiPSGkIfmVqr603++vissXAKBmKN57KN4DAIB6WmGqhxX3L4SQZsfs7nGeA801+HBnYYG3ONnkipzTfWMEqBkTeW3puLU1VdEuXjoAoMEo3mOJVpjJO0rzJaNRTe9av3799WN2aBiK9wAAXF2/3795Vj3U94O/Ld0/SOfzNxP5sKX0+J13vtb1YtkAANAqFO8HiXEAAALFe0JI7WPyOb40EQDqj+K9h+I9AACoMd+vPcn3LN8f2cMQQhqbrPKJfr9/wzjNgWaqFnJpgbc6Ip+Nl48aEpF7+XG6bOS4tTUiX1q3bt0N4uUDABqK4j2Wysxu6fM8fni+ZCMReWGMDg1D8R4AgDJV3cVMPly6hxAyH5HPVu+/Vq1atXUsGwAAWoHi/SAxDgBAoHhPCKlx/phVDzGz1XHJAgDUGMV7D8V7AABQc2azd51/KEFpL0MIaWYs7R2nONA81VPffSFfPrKw2x6RZ8QIUFNd+0IIVX1kvHQAQENRvMc4iMiDTPV/SnMmIznP91CPitGhQSjeAwCwcWZ2I9/jPMXvG18fvo8Q8q/oSf4+7Omzs7Mplg4AAI1G8X6QGAcAIFC8J4TUMiZfySKPi0sVAKABKN57KN4DAIAGSCnNqqbX+P7lkpH9DCGkeTH5cq/XkzjFgWZRlTcWF3a7c7bfjNfGCFBTvlnat3DsWhw9Il46AKChKN5jXPxN5rN8rn8fnjMZTVb5as6zt4nRoSEo3gMAcM1Uddus+jK/f5w5fD8h5F9J3/B18vxqfxVLBwCARqJ4P0iMAwAQKN4TQmqWv85/JsDslnGZAgA0BMV7D8V7AADQIKq6i+9hLhzZ0xBCmheTZ8WpDTRHVT73BXzWyIJuffQtMQLUWM657xfXH5ePYQsj8ht/zTvFywcANBDFe4xTl9fTZkfkqF6vt2WMDg1A8R4AgIVT1Z1jb8gvFMmm8oPqixp8vWwfSwcAgEaheD9IjAMAECjeE0LqElX5jonsGZcnAEDDULz3ULwHAAANU31eRjW9y/cyPMiMkCbH5MtxWgPNUX1jRHFBtzwi8qAYAWrORF5XOoZtjW8MXxovHQDQQBTvMU4ppZv6XugzpXmT0VQloxgdGoDiPQAAm2/wbd7pg6X7CyFXyZmq6TVmdrtYOgAANALF+0FiHACAQPGeEFKPpPfwsxYAaDaK9x6K9wAAoKHM0j65+kK80h6HENKE/E1E7hinNNAI1/YbzxcKi7ntOaF67YMRoO6yyL39mF0+dAxbnPSN6oNF8fIBAA1D8R7jlnO6r8/39OF5k2J+Z5Z2i9Gh5ijeAwCweFUBP6ucVrrPEHKVXF69R+31ehJLBwCAWqN4P0iMAwAQKEgRQpY/ekRckgAADca+0kPxHgAANFjOeSffz7zD9zVXjuxzCCG1T1Z9XpzOQP1lkYeUFnLbo6r7xQjQEKbpk6Vj2dpY2j1eOgCgYSjeYxJ8//oUn3GHvohoCRH5lojcIUaHGqN4DwDA0vi9tOf7xOf5veX7w/caQoZyXlZ9s5ndPZYPAAC1RPF+kBgHACDwxHtCSE3yA1V5Y05p15TSjeMSBQBoEIr3Hor3AACgBXxPs6fnlOJ+hxBS22SVT8RpDNRffNNLcTG3OOea2XYxAjSEqu5bOJYtTvpgvHQAQMNQvMekmMjrSnMno/Hz8Oh+v78qRoeaongPAMB4qOr2WfUQv8f8cvieQ8hQLvD3FW/vi9wrlg8AALVC8X6QGAcAIFC8J4TULVnlu9XvblV1l7m5uS3icgUAqDmK9x6K9wAAoCWq3ylVn8Ms7nkIIXXNlb1eb8s4jYH6EpEdfMGeO7SAWx+/sb4zRoAGMbPVWeW00jFtaf6U8+xd4uUDABqE4j0mpd/vZ9/Lfqw0e1KIyUExOtQUxXsAAMZLVe/p70fe7feavwzfewgZyh98rbzLLN0vlg8AALVA8X6QGAcAIFC8J4TUOiLfyqqH+rXq/n7JWjG4cgEA6ojivYfiPQAAaLj169df3/d1jzVNx/j+5tKR/Q4hpNbJOd0nTmegvkzkhaUF3PpYeniMAA1jJq8vHtOWRjW9Ol46AKBBKN5jklT1Hj7rHw7PnpSSLvI1+aQYHWqI4j0AAJORU7qzmZxSugcRMpr0qZx7O8XyAQBgWVG8HyTGAQAIFO8JIc2JnmiWnpNSWhuXMABAjVC891C8BwAADeXvtWdV9Smq8vniPocQ0oxY2j1Oa6CezOxG1Qf9iwu4xale87p1624QY0DD5JTu48fxr8PHtcX5Qa/Xk3j5AICGoHiPSYtfBF4yPH9SzPf9vc/dYnSoGYr3AABMVhQTzhq+DxFSDgV8AMDyo3g/SIwDABAo3hNCGpjTTeS1/J4SAOqF4r2H4j0AAGiYnPMtfA/zIlP9ZnF/QwhpVLLq8+L0BuopizymtHhbH7/ZxgjQUNUHQIvHtq2xtFe8dABAQ1C8xzSopleXjgEpxOQjfJlRPVG8BwBg8sxsxvdDz+IXkGSB+YvvU96fU9o1lhAAAFNF8X6QGAcAIFC8J4Q0OH+c/1mLyGPn5ua2iMsaAGCZULz3ULwHAAAN0U/pTln1UN/DnDmypyGENDcir4vTHKgnX6TvLS7eNsfkt/3+7K1jBGgoVX1K8fi2NFnl4/HSAQANQfEe0yAiPVM9pnQcyGiqH77F6FAjFO8BAJgeVd3WLB3ge8gfle5NhAzlMt+vfMDXzENjCQEAMBUU7weJcQAAAsV7Qkg7oieZpeeklG4alzcAwJRRvPdQvAcAADWXc2+nqpjre5fzRvYyhJDmx+R9cboD9aOqO/tCvWBk4bY9Iu+NEaDBzGyNH8/TR45ve3NZFrl3vHwAQANQvMe0VN/m6G8+v106FmQkfzFL+8ToUBMU7wEAmD6//+6gml7t+8iflu5RhAzlcn+Pe7TvpR8WSwgAgImieD9IjAMAEChIEULalXSRiRxU7X3jMgcAmBL2lR6K9wAAoKbm5ua2yKovn3/fXNrHEEJaET4/jVrLIq8oLdy2x1/3Y2MEaDgzObx0jFsbf73x0gEADUDxHtNklnb32V84fCxIISY/9jXKFxrVCMV7AACWT6/Xk3jvcuXwfYqQctKnqm+WjyUEAMBEULwfJMYBAAg88Z4Q0s6kU83SATwBHwCmh+K9h+I9AAComZzzTfz98bNN5JTi/oUQ0rKkY+L0B+ql3++v8jfNHbwZ6TdnZma2ijGg4XJO9/Xj+rfR49zanMEvWQCgOSjeY9p87p38Yq3FJX3KzNbE6LDMKN4DALD8VPUeZvJ2vz/xZU7kmiPpiuoJ+DmlXWMJAQAwVhTvB4lxAAACxXtCSJuTVb6TVZ/f7/dzXPYAABNC8d5D8R4AANTEzte61vV8f/Zk0/TF4r6FENLKqKY3xWUAqJfqA3GlRdv6WDogRoCW6NoXSFBkBIDmoHiPaVu5cuU21S/GSseEFGLyhhgdlhnFewAA6sMs3c9Uj/D71Ibh+xYhhfzF99XvVdVdYgkBADAWFO8HiXEAAALFe0JIR3Jy9YS/lNJsXP4AAGNG8d5D8R4AANRATunO1Wcoi/sVQki7Q8cXdWUixxYXbeuTThSRB8UY0AJZ9WnlY93O+Kby8/HSAQA1R/Eey8HMbuvH4OvDx4SMJptc4Wv16TE6LCOK9wAA1I/vkx6SVT5gIleU7mGEXDW+t77YNL0n53TfWEIAACwJxftBYhwAgEBBihDSqYicw+/dAWAy2Fd6KN4DAIBllHO+he9HXu/7kj+N7FMIId2IyZ5xSQDqw8zu7gv0kpEF252cqZr2jXGg4VR1Wz+mZwwd41aHL48AgGageI/l4vN/jIn8pnRsyEh+4vvJB8bosEwo3gMAUF9+n74X3y5ONiNXVh/W6/d762IJAQCwKBTvB4lxAAACT7wnhHQz6ZNm6aFxKQQAjAHFew/FewAAsEx8L/Yk34/wgDFCOp6+yIPjsgDUR1Y9tLRgO5YNZnJw9aGNGAsazI/lGwrHuL0ReXu8dABAjVG8x3Ly/dGLS8eGjEZVPk8xaHlRvAcAoP4o4JPNzHwBP+fcjyUEAMBmoXg/SIwDABAo3hNCOpw/mMnhIrJDXBIBAEtA8d5D8R4AAEyZmc1kTUcX9yaEkM6Fz+6jdvr9fjbVH5UWbCcj8t7VKe0Y40FDmaX7mckVxWPczvxcVbePlw8AqCmK91hOvu+/oa/Bd5eODylE5K0+tmsPpodpo3gPAEBjXMcsPT6rfLx0XyOkkF/6Xvv1Zna7WEMAACwIxftBYhwAgEDxnhDS+Zh8O6s+bd26dTeISyMAYBEo3nso3gMAgCmp3sOayDN8D/LDkT0JIaSbETnFLw98bh/1oqr7Fhdsp5NO9LnsEiNCQ/lF9zPl49vOZJEXxEsHANQUxXssNxFZ73ukL5WOERmNanpujA5TRvEeAIDGua5Z2s00fbJ0fyOkkLPN5GCeygYAWCiK94PEOAAAgeI9IYT8I3pM9aCauDwCADYTxXsPxXsAADAFqnrPrPKB4n6EENLZqMob4zIB1Idp+lRpwRI5UzXtG2NCA1Xf5ls4ru2NyZfn5ua2iJcPAKghiveoA7P0MD8m5w4fIzKarPKznNKuMTpMEcV7AAAaa4XvN5/Az5zJgiPy36rpJSmlm8YaAgCgiOL9IDEOAECgeE8IIVfLr8zkVfycBQA2H8V7D8V7AAAwYb7nerrvO84c2YcQQjofvz48Ji4VQD1U33Lqi/Nvw4uV/DN/rp66U32QI0aGBomyTqc2Zar6qHj5AIAaoniPuvA9w/NKx4mUoifxFM7po3gPAEDz+Z5zF9N0aul+R0gh55vJs3zprBisIAAAro7i/SAxDgBAoCBFCCHFnJtTunNcKgEAC8C+0kPxHgAATIiqbls9zdr3G1cU9yGEkK7nF6tXz1hcMoB66HL5a7MiclRKaccYGxpkfnNWOqatjR4ZLx0AUEMU71Ej1/U97ttKx4qMRjW9a926dTeI2WEKKN4DANAeg6cPUsAnC4zIOaq6RywfAAD+ieL9IDEOAEDgifeEELLRXJBFXrFmzZqVcckEAGwCxXsPxXsAADAB/X5vHZ8ZIYRsOulTcckA6mFw85KzRxcrKSedWD2lKcaHhjCbvb8fvytHj2dLY/JbM7ttvHwAQM1QvEed9Pv9m2eVL5SOFylE5IUxOkwBxXsAANpl552vdT2ztHv1i5LS/Y+QkZgcV62ZWEIAAFC8j8Q4AACB4j0hhFxT9Bi/Vt41LpsAgI2geO+heA8AAMYsqz7V9xlnjOw7CCHkX/mrqj4qLhtAPZil5xQWK9l0zlRN+8YI0RAm8tnCsWxtfHP6snjpAICaoXiPuqm+WMqPD1/GtbCcxxv76aF4DwBAO1HAJ5sf/VBOaddYQgCADqN4P0iMAwAQKN4TQsiC8kOztHdcOgEABRTvPRTvAQDAmJjZGt9bHO57jL+N7DkIIeSqMXlfXDqA2riuL84TRhYrWUj+7Cf1wdWHO2KWqLks8vTCcWxx9JtzvkDj5QMAaoTiPerIRJ7px+jK4WNGivlazrO3idFhgijeAwDQfoNyRDq1dD8kZDj+fvrofr+3LpYPAKCDKN4PEuMAAASK94QQsuBcVpUeqt/BxSUUAHAVFO89FO8BAMAYVL/X57MghJAF5sqU0o5x+QDqwSw9tLBYyeZE5ChO7mbw43RTP2ZnjRzDNsfS7vHyAQA1QvEedaUqbywdN1KIyHtnZma2itFhQijeAwDQHX7fv1d1/yvdFwkZyuXz76vNZmL5AAA6hOL9IDEOAECgeE8IIZsZk8+JyIPiMgoACBTvPRTvAQDAEpnZI3xP8e3iXoMQQoZj8o64fAD1oSrvLC5YsplJJ6rqLjFW1FjW9KbyMWxr0jHx0gEANULxHnXle9ptTfXTpWNHRpNVXxajw4RQvAcAoHvM0sP9PvgBvx9eOnx/JGQop5vJi/v9fo7lAwDoAIr3g8Q4AACBghQhhCwqG8zSbnEpBQA49pUeivcAAGAJqm6d7yk2jOwxCCGknA3VZ8XjEgLUw+qUdvTF+cuhxUoWnzNV074xXtSUmd3fj9X/Dh27FiddlPPsXeLlAwBqguI96iyndB9VOa10/MhIfseHUSaL4j0AAN01+GWsvsfvi38cvk8ScrWYfMWz587Xutb1YvkAAFqM4v0gMQ4AQOCJ94QQsuj8OYu8Ym5ubou4pAJAp1G891C8BwAAi6Sq+/l+4oKR/QUhhJTzZ7O0T1xCgPrwN8YvKixYsrT4CS8HVx/4iDGjhvwYHVc4dq2NanpNvHQAQE1QvEfdVV8o5cfrL8PHjxQi8i0RuUOMDmNG8R4AAPRF7uV7rrd6flO6ZxLyz4h82N9zPiSWDgCgpSjeDxLjAAAEiveEELLEiLw159yPyyoAdBbFew/FewAAsJmqL3PzPcRBvpe4fGRvQQghG4tfN+IyAtRHr9fbMqt8tbhoydIjclRKaccYN2rGj88zisetvfnhtjMzGi8fAFADFO/RBKZ6WOkYklLSB3PON4nRYYwo3gMAgH/o9XoS76X4RS3ZVK709zJHVOsllg4AoGUo3g8S4wAABIr3hBAyjuiHzOy2cWkFgE6ieO+heA8AADbDVT7LUd5bEEJIMXrEqlWrto5LCVAfWeRx5UVLxpd0oqruEiNHjaSU1vox+snoMWtxLO0dLx8AUAMU79EE1Rf3mMlHS8eRFGJycIwOY0TxHgAADKt+aauaXm2aLirdQwkZxNeHpQN8yawYrBwAQFtQvB8kxgEACBTvCSFkXNETzez+cXkFgM6heO+heA8AABaoeiiw7x+OH9lPEELIpnNWdf2ISwlQL/6m+H2FRUvGnzPN0j4xdtRI1wqPWeUT8dIBADVA8R5NYWZ39+P2g+HjSErRi3x9PylGhzGheA8AADbG9wk7ZNWXm6ZTS/dSQuYj8iX26QDQLhTvB4lxAAACxXtCCBln0qlmafe4xAJAp1C891C8BwAAC5BzvoWpfqi4nyCEkI3F32+klHaMSwlQLyJyB1+ovx9ZuGRS+XP19Mu1a1duE4cANWBmD/Bj8/ehY9XmXJ5Tuk+8fADAMqN4jybxY/bkqlReOp5kJN/3febdYnQYA4r3AADgmqSU1prIC83klNI9lRDP/1VfRszPRwGgHSjeDxLjAAAEClKEEDL2XMnv9gF0EftKD8V7AABwDVbPzt7MNH2wuJcghJBy/ppVD+n3+6viUgLUj4kcWFi8ZNIROYpv5KgXM/lc8Vi1NSZviJcOAFhmFO/RNL6POLh0PEkhJh/p9XoSo8MSUbwHAAAL1e/3s1l6dlb5auneSojnV6rpNb5Wbh7LBgDQQBTvB4lxAAACT7wnhJAJRORiVX1eXGoBoBMo3nso3gMAgE1IKd1UVd5f3EcQQkg5P/f3Gc+KywhQT2Y2k1W+U1jAZCpJX1TVXeJwYJn5RfuZ5ePU2pxZbXLj5QMAlhHFezRNzvkmfDvl5kQPi9FhiSjeAwCARVihqnv4/vXU0j2WEM95Zmm3WC8AgIaheD9IjAMAECjeE0LIxHJJVn1+XG4BoPUo3nso3gMAgI1bYZo+VdxDEEJIKSbH8SBrNEIWeVJxEZNp5kyztE8cEiyjNSmt9eNx9tDxaXdMnhkvHwCwjCjeo4lE5I4mckrpuJKR/IU9/3hQvAcAAIuVUrpxFPA/WbrXEmKqx/i+/X6xZAAADUHxfpAYBwAgULwnhJCJ5s9Z5AVxyQWAVqN476F4DwAACnLOfVM9srh/IISQ4Yh8xlJ6fFxCgPrzN8MfLi5mMu382Y/FwWvXrtwmDg2WSVZ9c+H4tDaq8vl46QCAZUTxHk1llp7gx/F3w8eVFGLyY1/v947RYZEo3gMAgDG4tqo+2jQd4/fYy4bvuaTz+ZXv3V+VUrpprBcAQM1RvB8kxgEACBTvCSFk4tlgIvvHZRcAWovivYfiPQAAGLVCVT5W3DsQQsjV8z2ztFtcO4BmUNV7+uL989BiJssZkaNSSjvGIcIy8PPigX4s/m/k2LQ4fZEHx8sHACwTivdosqz6stKxJaXop8xsTYwOi0DxHgAAjJPvLR7ke7Qj/F77x+F7L+l2qr2Xv199UiwVAECNUbwfJMYBAAgU7wkhZCq51EReGJdeAGglivceivcAAGCIvxc8trhvIIQQlctN9aSs+rSccz8uG0Cz+I3utYXFTZY96YuqukscJiyD6inw5WPT0pi8I146AGCZULxHk83MzGzl7y3eWzq+ZDS+13xjjA6LQPEeAABMQr/fWxcF/MuH78Gk2/E92Mf4RSAA1BvF+0FiHACAQPGeEEKmlr+YyYvi8gsArUPx3kPxHgAAXIWJHFTcMxAyyJWec0kXkk71/zy+er9QXReqon31c/ler7dlXC6AZjKz1b6wf+wLvHSRI8ufM83SPnG4MGV+bjyrcEzanHNFZId4+QCAZUDxHk2Xc97Jj+fXho8vKeZKE3lGjA6bieI9AACYpF6vJ/H+jAI+uWo2VD8zjmUCAKgZiveDxDgAAIGClEfknPkPPRKyzMmajq5+x/GPzK/Nf31Id8M/1yxpdFTTfnEJBoBWYV/p8ft5jAMAAHScWdqtuF8gbcr5Vy1U+/v9V/t/Psv3xY8RkXtVMbPtqs/y/iOxPACgHVT1qUMXRlK//NlvTgevXblymzhsmJLVs7M3843C/xSOSXsjsn+8fADAMqB4jzbw9xiP9mN63vAxJsX8xOf1wBgdNkP1Q7rCPDsRivcAAExPvz976+pns1nltNJ9mXQ0Jh8xm71/LBMAQE1QvB8kxgEACDzxvkr6VIwDqL1+v59zSneuPsSdVZ+nmt7k78M/aiKn+Fr+dXmNk5rlTzxoCEAbUbz3ULwHAACuet/uewMeYtD8VF+C+L1qj1f1yFR1F8/tc879ONQA0G1+cfzM0IWT1DUiR6WUdoxDhykx1bcUj0dbY/KVfr9/w3j5AIApo3iPtvC96wtLx5mMRlU+3+/31sXosEAU7wEAwDTlnG+hml7i9+LvDd+bSWdzblZ92ezsbIplAgBYZhTvB4lxAAACBSkPBSm0SLXnqz4E7uv6WdUT9G3w1Pzy2ifLmQ3VcYrDBgCtwL7Sw74SAIDO8/d69/A9wbeLewVSz5j81v/za6Z6pP/3F/sxfFQ/pVvRGwOATTCzB/jF88qrXVBJzZO+6De5XeIQYgqqeZePRXvjr/nR8fIBAFNG8R5tsW7duhuopneVjjUpROStPrZrD6aHhaB4DwAAloOZrametub35JOH79GkoxH5rFl6aCwRAMAyong/SIwDABB44n0VnniPdqu+MDGLPMZMXmWqn84qPyufC2SqETmlKmTEYQKAxqN476F4DwBAp1Xvv/29Hg//rX/OrL6sUDXtV70vN7MbxSEEACxUVn1z4QJL6p8zzNI+cRgxBVnlC4Xj0N6IHBUvHQAwZRTv0SYisoOpnlQ63mQ0qrpfjA4LQPEeAAAssxXzH7LjqWpkkCt9LRxUrYvB8gAALAeK94PEOAAAgYKUh4IUOkhVb59VX26aTi2eF2QqySqn9Xq9LeOwAECjsa/0sK8EAKCzBr+D0fcU9whkuUPRHgDGaf6bZlT/p3DBJc3In83koLUrV24ThxQTZJaeXTgGbc75vtm6Xbx8AMAUUbxH21RPfuSpEgvOz3lS5sJRvAcAAHVQ/XzWRPY0k+NK923SsYh8pi/y4FgeAIApo3g/SIwDABB44n0VnniPbhORO2TV5/m58Ek/J34/eo6Qicbkv1JKs3E4AKCxKN57KN4DANBZ1RfRF/cHZDlyZfVQtKz6NDPbLg4RAGBcqqcpFi6+pGkROUpE1sdhxYT0+711PutOPb2q+tbnePkAgCmieI82Uk3PLR1zUoqe5Pv7HWJ02ASK9wAAoE523nnn65mlx5vJR/x+feXw/Zt0Kr/090Av7ff7q2J5AACmhOL9IDEOAECgIOWhIAX8U7VnVNU9qi+k8PODn+FMKaryzjgEANBY7Cs97CsBAOgkS+nxvhe4cGRvQKaZP2aVT1QPle2ndKs4NACACbieaTqxcCEmjUz6oqruEscWE2Iiby3Pv6UR+daaNWtWxssHAEwJxXu01LU7t5daQvw68K5169bdIGaHjaB4DwAA6sosPcxM3uf37T8P38dJh2Ly0ZzSfWJZAACmgOL9IDEOAEDgifdVeOI9UKKqt/f37wf7efLD0fOGjD2WDojRA0AjUbz3ULwHAKBzVqe0o+8DvjayLyDTyJ9M0yf9/fRz+v3ZW8chAQBMkl90H164IJNm5ww/rvvEIcYEiMiDCnNvdVT1ifHyAQBTQvEebdXv99apyudLx54UYvLCGB02guI9AACou1T9Atrkv/z+zdPTupsNWfVpsSQAABNG8X6QGAcAIFC8r0LxHtiUnHO/ev/O7zInnj+apd1j7ADQOBTvPRTvAQDoHBM5trgvIBNMOrXqB5rZTBwGAMC0ZE3vLl+cScPzZzM5aO3KldvEocaY+YyPH5p5y6PHxEsHAEwJxXu0mao+0I/1WcPHnpSSfu3zenSMDgUU7wEAQFNUX0IV7/UuH76vk27E928fq8qgsSQAABNC8X6QGAcAIFC8r0LxHlig65rZI0zkKD93fj96LpElR+RbqrpzzBsAGoXivYfiPQAAneL3/mcV9wRkEvlDtdfy98yP9NGvGBwBAMBU9fuzt/YL8nlDF2jSpogcJSLr45BjjMzSc4ozb2tELjazu8XLBwBMAcV7tJ0f56ebyRWlNUBG8rWc804xOgyheA8AAJqmn9KdfC98uN/Pzx2+v5NO5Ov+fuhxsRwAABNA8X6QGAcAIFCQ8lCQAjZb9UWK1bnj59CVI+cUWWqOjzEDQKOwr/SwrwQAoDNySvfx+z8P2pp8TjfVw8xm7xqjBwAsF7N0QOFCTVqX9EVV3SUOO8ak3+/f3Ex+Wp55O5M1HRIvHwAwBRTv0QW+n3pDaQ2QQkTeOzMzs1WMDldB8R4AADRV9VSv+V+cipxTuteTVuf3ftwPNLOZWA4AgDGieD9IjAMAEHjifRWeeA8slog8KKt8wM8lCvjjjKUDYsQA0BgU7z0U7wEA6IReryf+Xvjjxf0AGU9EvqyanptSWhtjBwAsp6qw4Rfor49csElbc4ZZ2icOP8bENzhvK8y6xUmnrl49Y/HyAQATRvEeXWBma6oPeZXWARlNVn1ZjA5XQfEeAAA0XfXLahM5yPfGF5Xu+aTVOTnn3I+lAAAYE4r3g8Q4AACB4n0VivfAUmWRx/L7zXEm/VpVHxnjBYBGoHjvoXgPAEAnqKZXF/cCZMnJKqdVP6+MUQMA6sIs7Va6cJNW589mctDalSu3iWWAJeqLPLgw53aHL3AAgKmheI+u8ON9b9+n/ndpLZCR/L56LxejQ6B4DwAA2mK+JEgBv4s53/f594tlAAAYA4r3g8Q4AACB4n0VivfAOPT7/Rv6e/m9TPWk8rlGNismXxGR9TFeAKg9ivceivcAALRe9Ttsv++fN7IPIEtKVvlu9YT7nPNNYtQAgDpRlQ+ULuCkAxE5ih9Uj821faYnjMy41UmfjNcOAJgwivfoErO0tx/7S4fXAilE5BTfz98xRgdH8R4AALSNmd1SNb3U7/c/GL7/k9bmd9UxTyndOJYBAGAJKN4PEuMAAASK91Uo3gPj5O/jZ03klZ7flM85stCoyjt9pCsGkwWAeqN476F4DwBAq+2887WuZ5o+WNwHkMXF5Keeg3POt4gxAwDqpp/Snfyi/YeRizjpUNIXVXWXWBJYguqbhsozbm3+mnO6b7x8AMAEUbxH12TVQ0vrgZSSPsi3Xf4LxXsAANBWKaWbmsj+nm+V9gKkjdH38MW5ALB0FO8HiXEAAAIFKQ8FKWAicu7tZJpOLZ53ZMHJqk+LkQJArbGv9LCvBACg1VR13+IegCwi6SITeXvOs3eJ8QIA6qr6hpTyxZx0LGeYpX1iWWCRqm8bUpWfFebb2vjrfWO8fADABFG8R9f0ej3x9yofKa0JUoi/r4vRdR7FewAA0HZzc3NbzH+QT+Sc0p6AtCzVcTbbLg4/AGARKN4PEuMAAASeeF+FJ94Dk+Lv5Vdn1UP8XOOBSIvPmdVDpWKkAFBbFO89FO8BAGitXq+3pd/vzxu5/5PF5OTqy/pitACAOkspzfqF+3tDF3LS3VxiJgetXblym1giWITq24cKs21zzlqT0tp4+QCACaF4jy4ys7v5GuD9yoKiF/m58qQYXadRvAcAAB2yonq/lFVOK+0NSKuyQVV3ieMOANhMFO8HiXEAAALF+yoU74FJyyKPNZEvlc9Bck1RTe+KUQJAbVG891C8BwCgtbLqocX7P9mcnOdzfFnO+SYxVgBA3fFmn5SjR4rI+lgm2Ex+Xj2kPNcWx+RZ8fIBABNC8R5dlVX/w9fBn4bXBSnmB2Z29xhdZ1G8BwAAXVN9kapZ2tv3A8cP7w9Iq/IHP84H+CFfMTjyAICFong/SIwDABD4zJSHghQwFYOnA+oRxfOQXHMs3S9GCQC1xL7Sw74SAIBWUtUH+n3+t8X7P1lYTD6XU9o1RgoAaAq/gH+0eGEnRNMXq01SLBVsnutU8yvPtZ3JKl+oXvfg5QMAJoHiPbrM37ccVFobpBB/j7ftzIzG6DqJ4j0AAOiq6kPc1fsn3xN8vrRXIO1I1vSm1atnLA47AGABKN4PEuMAAASeeF+FJ94D05RFXuDn3vmj5yLZdPTEnHM/xggAtUPx3kPxHgCA1pmbm9vCRI4t3vvJQvLHrHqIma2OkQIAmkJE/t0v5JcOXdgJuWrOMEv7xJLBZlDV/QrzbHX4FiYAmCyK9+iyfr+/ys+Bo0vrg5Sih8XoOoniPQAAwD8KJOnU0p6BND/Vvs/MZuJwAwCuAcX7QWIcAIBA8b4KxXtg2lR1D1P9UfmcJBtLVn15jBAAaofivYfiPQAArcPPzpaUc83s7jFKAEDTmMjrChd3QoZzSfWE0bUrV24TSwcL4JukW/rsfj40y3bH5D/j5QMAJoDiPbpORO5gqt8srREykr90+Qu0KN4DAAD8CwX8Vuesau8bhxoAsAkU7weJcQAAAh8erkLxHlgOZnZ/P/9OLJ+XpJSs8jNVvWeMEABqheK9h+I9AACtw+cMFhmRY3u93pYxRgBA06jqtn5BP33kAk/IRqNHisj6WEJYADN5R3mWrc0vWCMAMDkU74Fqf5Ue72viguE1Qgox+bGfO/eO0XUKxXsAAICrW79+/fVV9Ykm8pnSHoI0OCKn+Pukh8WhBgBsBMX7QWIcAIBA8b4KxXtgueQ8e5us6ejyuUmKodQJoKYo3nu4RgMA0Cpmae/iPZ9sPJKuUE2vpnQPAA3nb/KfXrzQE7LJpC+q6gNjGeEa5JR2Lc+xxRF5Ybx8AMCYUbwHBlTTS0vrhJSin66+dC1G1xkU7wEAAMrWrVt3A98f/oeJfLa0lyCNzRnVcY3DDAAooHg/SIwDABAoSHkoSAHLbYWqvLN4fpJybPYRMTsAqA32lR72lQAAtMbgdyrpi8V7PtlYLsiqz4sRAgCazN/gHle40BOykJxhlvaJpYRNu65vOE8szLC1qYo+ZnajeP0AgDGieA8MVN8GaSJHldYKGY3vz94Yo+sMivcAAADXbPBkx3RqaU9BGpkr/b3zY+LwAgCGULwfJMYBAAgUpDwUpIBa6PJnATY7Iuf4yFYMJgcA9cC+0sO+EgCA1lDVpxTv92RjOYvPuQNAS/hNcBe/sP996EJPyObkEjM5aOXKldvEssJGVN9aVJhfq8MHPAFgMijeA/+S8+xtcvWFP4X1QkZypYk8I0bXCRTvAQAAFo4CfqtC+R4ANoLi/SAxDgBAGLwfKl8zu5P0qRgHgGW0duXKbUzkreXzlIxE5JkxOgCoBYr3Hor3AAC0Qr/fX+Xvub5UvN+TQvSbZulhMT4AQNOpyjvLF/zWZ4Pf1A4r/N/JYmNyXPXE0VhaKIgP8lw+MrsWx68xH4uXDwAYI4r3wNWp6iN9ffxqeL2QYn7i83pgjK71KN4DAABsnlWrVm3t+8V9+QV6K/J7fw/99Di0AIBA8X6QGAcAIFC8r0LxHqgLEel1+HOdm5Ws8tXZ2dkUowOAZUfx3kPxHgCAVmBfs/D4e9PTcs79GB0AoOniQwUbhi/4XUj1g+lqBvGLs07OYEI5y8y2m19gKKp+oFSYW5tzZa/Xk3j5AIAxoXgPjDKR/Utrhowmq3yh3++ti9G1GsV7AACAxTGzmeqJYb6v+PrwPoM0KCa/VU37xmEFADiK94PEOAAAgeJ9FYr3QJ30+/1sIkeVz1dytZg8K8YGAMuOgpqH4j0AAI1XfSGc39O/UrzXk6slq3zezG4XowMAtEFWfX7pot+F5JR2jTFcyyw91G90/2/pnyOLyhk+031ivBhSrbfCzFqdLPKKePkAgDGheA+MWr9+/fV58sNmRORtPrbrDKbXXhTvAQAAlmb16hnLqs8zk2+X9hykEfmV7//3jEMKAJ1H8X6QGAcAIFC8r0LxHqib6vdcWdPR5XOWXCVf58EwAOqC4r2H4j0AAI1nlvYq3ufJ1VN9OYHN3jXGBgBog3Xr1t3ARL5UvPC3PnqSj2DFYBIDqrqz/98/VP7nySJyiW8gDlq5cuU2MWL8y4pqDRZm1t6YnNLv91fF6wcAjAHFe6DM9/Xbm6YvltYOGY3Pa78YXWtRvAcAABiPubm5LVTTfr7PuHB430EakQ1mdvc4nADQaRTvB4lxAAACBSkPBSmglnq93pZ+jn5v5JwlVwufIwBQF+wrPewrAQBovKzyieJ9nvwrIt/KOd03RgYAaAtVfWTxwt+BZJEXxBiupnpyj6q8sfS/IYuNHiki62PECFn1+eV5tTd+zdkjXj4AYAwo3gMb52vkIWby09L6ISP5uVl6aIyulSjeAwAAjJeZbWciB/p+46zh/Qepe/R/fP//hDiUANBZFO8HiXEAAAJPvK/CE++BulLVe/h5Svl+0zl525kZjZEBwLKheO+heA8AQKOZpfv5Pf2vI/d4ctX8sPqscowMANAmpnpE4cLfhfzqGorg1zaR/f2fO3/of0cWnfRFVX1gzBfO57G9z+YXo7NqcUSOjZcPABgDivfAppml55TWDylFT/L3SDvE6FqH4j0AAMBk5Dx7G99LHub7jp8P70NIrXOWv69+bBxGAOgkiveDxDgAAIHifRWK90CdmaXd/Vy9YPTcJf+IanpujAsAlg3Few/FewAAGi2rvrl4jyf/yFmq+ugYFwCgTXLOO5nIbwoX/w4kvSfGsEl+E3yi//M/GP3fk0XmDLO0d4wXTlXeWZhTm3OJmd09Xj4AYIko3gPXzFTfUlpDZDR+TXn33NzcFjG6VqF4DwAAMFm9Xk/iZ51XDu9HSG2zgZ/VAugyiveDxDgAAIGClIeCFFB7qmm/4vlLBhE5x8e0YjAtAFge7Cs97CsBAGis+B3KhpH7O/lHLud37QDQYqr60sLFvxPx1/6oGMM1yiL39jf/nyv9OWRRucTnedCqVau2jhF3mll6WGFGrU5WPTRePgBgiSjeA9ds9ezszXz/eVxpHZFCTF4Uo2sVivcAAADTMf/zdNUjfB9y6fC+hNQy31fVe8bhA4BOoXg/SIwDABB44n0VnngP1N369euvbyJvL5/DZD6W9opxAcCyoHjvoXgPAEBjZdXnF+/vZD6+13tBjAoA0DZr167cxjR9o3QD6EC+ZmY3ilEsiP/z28WHBUt/HllU9EgRWR8j7qydd975eibypfKM2hr9Ub/fzzECAMASULwHFsb38/f3dXPm8DoipaRfq+qjY3StQfEeAABguua/cFTkw6X9Calb9NPVF5bFoQOAzqB4P0iMAwAQKN5XoXgPNMH8l4+LfKZ8HhNV+ViMCgCWBcV7D8V7AAAaqerb+X38K8X7O/HoEevWrbtBjAsA0DZmaffyDaD9UU0viTFslrUrV27jm4dX+Z/xl+E/kyw6J6jqA2PEnVV921FhNq2On4f7xssHACwBxXtg4bLq03zt/G14LZFivpZz3ilG1woU7wEAAJbFdVT1ib4f+Xxpn0JqFJN38OEAAF1D8X6QGAcAIFCQ8lCQAhpj8PuvdFHxXCb/XzWfGBUATB37Sg/7SgAAGsn3MY8t3ttJla/3+7O3jlEBANrINH2wcAPoQi4ws9vGGBbFNxFPN5OfFv5ssricYZb2jvF2kojs4HP45dBcWh6+IR0AxoHiPbB5fB9/eGk9kUJM3jszM7NVjK7xKN4DAAAsr/iQ4bnDexVSo4jsH4cLADqB4v0gMQ4AQOCJ91X4PAfQJLmDD3xZaLLqoTEmAJi6+Jl48frUmVC8BwCgkaonuhfv7eR3vsd7XIwJANBGOc/exS/4fxq6AXQjJu+LMSyJWXq4/3lfH/nzyWJziR+bg1atWrV1jLhzVNO7CnNpc/7m59H94uUDABaJ4j2wecxsdVb5RGlNkdFk1ZfH6BqP4j0AAMDy8/34GrN0gO9PTivtW8iy50J/D/AfcbgAoPUo3g8S4wAABIr3VSjeA03S7/dXmeqnyudz16OnbjszozEqAJgqivceivcAADSOv8fMJnJO8d7e8fj+7hUxJgBAW6mmV5duAp2Ipd1iDEvWF7mjmXyk+O8hi4weKSLrY8SdEl/mUJhJe+PXojfFywcALBLFe2Dz+X7z333f+aPSuiIj+b3vU58Qo2s0ivcAAAD10Z+dvbWJvNb3Kr8a3ruQ5U46Nad0nzhUANBqFO8HiXEAAALF+yoU74GmMUsP8/P3D6PnM/HZ7BVjAoCponjvoXgPAEDj+Huo3Yv39c4nfXDNmjUrY0wAgDbq9XriF/0fjN4EOhCRU+bm5v4tRjEWgydm6puL/z6y2Jygqg+MEXfG+vXrr+9r9MuFebQ5P1k9O3uzGAEAYBEo3gOLU33AwtfRhuF1RQoxOaX60rEYXWNRvAcAAKif+T2ayLGlPQxZvmSV03q93pZxmACgtSjeDxLjAAAEivdVKN4DTWQmh5fP6W5HVT4WIwKAqaJ476F4DwBA42RNRxfv651OuqjqYsaIAABtFQWTwo2gAxE5MMYwbivM5MX+7/j9yL+TLDZn+FrdO+bbGb5G9y/Mot2x9Ox4+QCARaB4Dyyenz+HlNYWKSV9MOd8kxhdI1G8BwAAqC9/f/cYE/lsaS9Dlieq6V0ppRvHIQKAVqJ4P0iMAwAQKN5XoXgPNJGqbl99oXb5vO50LvXZ3DPGBABTQ/HeQ/EeAIBG2XZmRv0efvbIPb3jUU0vjREBANosq3y8dCPoQP7UT+lOMYaJyKr/Yao/Kvy7yeJyiZkctGrVqq1jxK0nIuv9df9yaA5tzwn+0q8zmAAAYHNRvAcWb3Z2NvF0zc2IycExukaieA8AAFB7K8zSPr5/OX94P0OWKSL7x7EBgFaieD9IjAMAEChIeShIAY1llnYrntedjx4WIwKAqWFf6WFfCQBAo/h7yicU7+ndztfMbE2MCADQVv4m/t5+0b9s6CbQkeiHYgwT5RuN+/m/7/jRfz9ZfPTIqpAeI269rOnd5Tm0NzmlXePlAwA2E8V7YGlynr1LVvluaY2RoZhc7Ofdk2N0jUPxHgAAoBkGJUg9zPcxVw7va8jUs6HaR8ehAYDWoXg/SIwDABAoSHkoSAGNVv1eqHhudzvnxngAYGrYV3rYVwIA0ChZ07uK9/QOR1X3jfEAANrM38AeXroRdCFZ5Ekxhombf2q5yHtLfw+y6JzgG5YHxohbzcweUXj9rY6qvDNePgBgM1G8B5bO95l7+Jr64/AaI8X8wPerd4/RNQrFewAAgGbxfecDqi/ULe1vyPSSNR29bt26G8RhAYBWoXg/SIwDABDMZjv3mY3RpE/FOAA0kFl6fPnc7nZySveJEQHAVFC891C8BwCgMXq9nvj9+ycj9/MOJ6t8wsxuFCMCALRVSummfuE/c/hG0JH8wF//bIxiKvr9/qqs6RD/d/916O9CFp/TzdLeMeLWqj7EaCZfKbz+NueXfo7uGCMAAGwGivfAeJjIgaV1Rgox+ei2MzMao2sMivcAAADNU/2sNKs+1fegp5T2OWRKEXlGHBIAaBWK94PEOAAAgeJ9FYr3QMOtMNVPlc/vDkfklTEfAJgKivceivcAADSGqu5SvJ93ODmlO8d4AABtZiLPLN0IupCsekiMYerM5Fn+d/j58N+JLDqXVKWoVatWbR0jbiV/jS8svPZ2x+RF8fIBAJuB4j0wHmvWrFmpKu8vrTVSih4Wo2sMivcAAADNZWbbmchrfW9zwfBeh0wlP/BjcNs4HADQGhTvB4lxAAACxfsqFO+BplPVPcrnd5eTTozxAMBUULz3ULwHAKAx4vfx5Xt6B5M1vStGAwBoO1X5fOlm0IFcqqr3iDEsC//3P8pUv1n4u5FFR48UkR1ixK1TPf3dX+evRl93e5NVvuqv+8YxAgDAAlG8B8bH9+07m6ZvlNYbGcllqmnfGF0jULwHAABoPt/TPchMPlLa85AJR+TtcRgAoDUo3g8S4wAABIr3VSjeA03X7/dvaCafK5/jnc1l1e+DY0QAMHEU7z0U7wEAaAzTdGrxft7NXNnv99bFaAAAbdYXeXDhRtCJZJWPxxiWVc6zd6n+LqW/I1l0TlDVB8aIW8c3ru8pvOZWJ4s8Nl4+AGCBKN4D4+Xr6nG+vs4fXm9kNKpyWk7pPjG62qN4DwAA0A5mdiMTeUZW+W5p70MmlstV9YlxGACgFSjeDxLjAAAEivdVKN4DbWAie5bP8Q7H0nNiPAAwcRTvPRTvAQBoBDO7pd+7Lxm5l3c1Ju+L0QAA2s4v+m8v3gy6EEv7xBiW3XzRQ+Rtxb8nWWxO92O8d4y4VVT1kYXX2+7wQzYA2GwU74HxU00vKa05Uop+2vet28boao3iPQAAQLtUZcl4T3zl8P6HTCznzs3NbRGHAAAaj+L9IDEOAECgeF+F4j3QBjMzM1v5+fzF8nne0Zh8NMYDABNH8d7DZ4IBAGiE6gvYi/fyjsb3cY+J0QAA2sxvgNv7hf/nwzeCLiRXT2DMuR+jqIV169bdQDW91P9+fxz++5JF5xITOXDVqlVbx5hbofoAY1WQKbzeNud3fs26fYwAALAAFO+B8Usp3dhUjyitOzIa37O+MUZXaxTvAQAA2imndGff85w1vAcik4oeFqMHgMajeD9IjAMAEChIeShIAa3BNW0kl/d6vS1jPAAwUVyDPewrAQBohC5/Fn0kIl/q9/s3jNEAANrM37i/oHgz6EJMDo8x1E71A5XqiwGKf2+yyOiRIrJDjLgVfA2/qPxaWxyRV8bLBwAsAMV7YDL6Kd3K92JfKa09MpIrfQ/3jBhdbVG8BwAAaK/Vs7M38z3p63wPf3FpP0TGmfRrf790pxg9ADQaxftBYhwAgMAT76vwxHugLVJKa83kp+VzvZvJIk+O8QDARFG891C8BwCgEUzTN4r38g4mqz4vxgIAaLPqW1b8TeuXSzeDtiebXJFzum+MopZU9YGmemLp708WnROqucaIG2++8KVy3tBrbHVU5Ts555vECAAA14DiPTA5ZlZ9uO6Xw2uPFHO278N3idHVEsV7AACA9jNLu1V7n9KeiIwxIq+LkQNAo1G8HyTGAQAIFKQ8FKSAVqnO6eK53tnoETEaAJgo9pUe9pUAANRef3b21n7f/uvIfbybObvf7988RgMAaDNVfXThRtCNiHw2xlBr/f7srVXl/cXXQBab083S3jHixqt+2F94ja1OVv2PePkAgGtA8R6YLF9nLyitPzKarPKFfr9X2x86UrwHAADoBjO7pWp6k++DLh3eF5ExReSc6ncbMXIAaCyK94PEOAAAgSfeV+GJ90CbqOqjyud6V6PfjNEAwERRvPdQvAcAoPb8PeMexft4FyPythgLAKDt/KJ/VPFm0IWIPCPGUHsi0vO/72v9733lyOsgi80lPtMDV61atXWMubE6+csPkQ/HywcAXAOK98DEXc9M3lFag6SQwQ8erzMYXb1QvAcAAOiW+IDAycN7IzKmmBwcowaAxqJ4P0iMAwAQKN5XoXgPtEn1+Tl/H//t8vneyWxIKa2N8QDAxFC891C8BwCg9rr8OfSRmG0XYwEAtJlf8G/nF/7zR24E3cjZaxr4w1Gz9Bz/u/9y6LWQJUWPFJEdYsSN1O/3b5hV/t/y62tt/qyq94gRAAA2geI9MHnVEzN9zZ0wvAZJOb6P2y9GVysU7wEAALpnvlBp8l+lPRJZatJF1Xxj1ADQSBTvB4lxAAACxfsqFO+BtlFNry6f7x2NpYfHaABgYijeeyjeAwBQeybymeJ9vGsx+UqMBADQdln15cWbQSeib4kxNE4WeSzfMDv2nKCqD4wRN5KviRcXXlfLo4fFywcAbALFe2A6+iIPNpFzSmuRjORcs/TQGF1tULwHAADoLt/LP8P3RT8Z3ieRJcbSATFiAGgkiveDxDgAAIHifRWK90DbqOo9/fz+2+j53s1kkVfEaABgYijeeyjeAwBQe37PPmvkHt7BZE2HxEgAAG22Zs2alSbyrdLNoAsRkQfFKBrJzO5e/RKr9NrIonO6Wdo7Rtw4/f7srX1N/Lrwutobkf/OOfdjBACAjaB4D0yP7yef7Wvv78NrkRQi8iV/X7Y+RlcLFO8BAAC6rfpyVt8Xfb60XyKLS1b5rpmtjhEDQONQvB8kxgEACBSkPBSkgFbyc/uU4jnfxZgcF2MBgIlhX+lhXwkAQK31+711fs/mM7Ee37s9JMYCAGgzVX1i6UbQkZzgI7jOYBLNtXp29mZm8p+F10cWmWxysYkcuGrVqq1jzI1iqkeWXleb49eyp8TLBwBsBMV7YLq6fM5tbnxW756bm9siRrfsKN4DAABg/oMDIm8t7ZnI4qKanhvjBYDGoXg/SIwDABB44n0VnngPtJGZHFQ+5zuZn6xbt+4GMRoAmAiK9x6K9wAA1Fpf5MHFe3j3cla/318VYwEAtJmpHlO4EXQiqrpfjKHxzOxGWfXlfjwvKr1WstjoESKyQ4y5MXxtP7r8etoc/XS8fADARlC8B6YrpXRTE/lsaU2SQkxeFKNbdhTvAQAA8A9maR/fJ10+vG8ii4jIOT7SFYPJAkCzULwfJMYBAAgU76tQvAfayCw9tHzOdzMicocYDQBMBMV7D8V7AABqrerfFe/hXYvIe2MkAIA2M7O7dbiofa7f+LePUbSGWdrbX9uZQ6+VLC0n+LnygBhxIwy+iEG+WngtrU02ucJs9v4xAgBAAcV7YPp8f34/X4NnDK9JUkr6dfUFUjG6ZUXxHgAAAFc1+LC5nlTaP5HNi+/5HxljBYBGoXg/SIwDABAo3leheA+00erVM2Ymvy2f9x2Mpb1iNAAwERTvPRTvAQCoNb9Xv6N4D+9aLO0TIwEAtFnWdEjxRtCBqMo7Ywyt0xd5sG9qvlx63WTROb36UoMYcSP43/eAwutodapCabx8AEABxXtgeajqU30d8oTMheXrZnbbGN2yoXgPAACAYb1eb8uqUFLaQ5HNiR4RIwWARqF4P0iMAwAQKN5XoXgPtJWZfK583ncvWfXNMRYAmAiK9x6K9wAA1BpfVO8xuVhEdoiRAADaav5bSTWdWrwZdCE2+4gYRStVZRU/vh8svnayqGTfJJnIgatWrdo6xlxrOc/exv++vym9lhbn7H6/ty5GAAAYQvEeWD6+L3tdaW2SQkz+a7n33BTvAQAAUDI3N/dvvrd/bWkfRRYYkx+b2UyMFAAag+L9IDEOAECgeF+F4j3QVv4e/uDyed/JnBBjAYCJoHjvoXgPAECt+f16w8j9u3s5OcYBAGgzs7RP4SbQiVRFgrm5uS1iFK3V6/XETA731/z34RmQpUSPaMq3FJnIUeXX0OJYek68fADAEIr3wPLp9/s5q3y8tD7JaLLqy2N0y4LiPQAAADbh2mbpABO5uLSfItccf4/+2JglADQGxftBYhwAgEDxvgrFe6CtzNLDy+d9J3N6jAUAJoLivYfiPQAAtTXfTSvdvzuW6nP4MRIAQJuZpk+WbgSdiMmLYwydkFWf58f718VZkMXmBDN7QIy4trLIYwp/95YnfdFf+nUHEwAAXBXFe2B5qeo9fa9yammNkpH83iw9IUY3dRTvAQAAcE2y6tN8//SL4f0UWUBM3hFjBIDGoHg/SIwDABAo3leheA+0Vc657+f5BaPnfSdzydqVK7eJ0QDA2FG891C8BwCgtszstsX7d9di8swYCQCgrXJO9/WL/l9HbgJdiMlvc569TYyiM8zSbv76vzcyD7KUnO5z3TtGXEsppRv73/NrQ3/v9sfSQ2MEAICroHgPLD8T2dPX5CXDa5QUYnJKX+SOMbqpongPAACAhRj83F1/VNpXkU3mzOqpCDFGAGgEiveDxDgAAIGClIeCFNBq1e/riud+B1P9/jDGAgBjx77Sw74SAIDa6os8uHj/7lhUdZcYCQCgrVTljaWbQCci8t4YQ+eIyL/76/9scS5kcTG52Gd64KpVq7aOMdeOanpJ8e/e4vhrfle8fADAVVC8B+rB9yqvLq1TUko6xsxmYnRTQ/EeAAAAC1X9cj2rfLW0tyKbiKUnxAgBoBEo3g8S4wAABJ54X4Un3gNtpirvLJ/73QsFCwCTRPHeQ/EeAIDaMkt7Fe/fHUu/11sXIwEAtNHq2dmb+QX/rOEbQFeSRR4Xo+iknPMtsqZ3l2ZDlhI9QkR2iDHXih/znczkt+W/d2vzq35Kt4oRAAACxXugHnzf2PP944dKa5UUYvKqGN3UULwHAADA5qie3u57qc7+3mUxyZqOjvEBQCNQvB8kxgEACBTvq1C8B9rMTF5UPvc7GEv7xFgAYOwo3nso3gMAUFtZ9WXF+3eXInJOjAMA0FZm6dnFm0Anot+s85PJp6XX621ZPaXdZ/Ln0RmRJeQEM3tAjLlW/HgfVfj7tjsmL46XDwAIFO+B+sgp3VlVvlNar2QoJhf7OfzkGN1UULwHAADA5jKz7Xw/df7w/opsNBvm5ua2iPEBQO1RvB8kxgEACBTvq1C8B9osizymfO53MCYHx1gAYOwo3nso3gMAUFsm8vbi/btbOT7GAQBoqetUF/uhi39nkkVeEXOAU9Wn+FzOHp4TWVJON0t7x4hrw9f+Ywt/17bna9WXTMQIAACO4j1QL74ff6KvzwuH1ysp5gdmdvcY3cRRvAcAAMBimKWH+57qjOE9FinH36s/JEYHALVH8X6QGAcAIFC8r0LxHmgzM7td+dzvYESOirEAwNhRvPdQvAcAoLayyseL9+8uReRtMQ4AQBvllHYt3gC6kT+IyB1iFAhm6aG+CfpqYV5ksTG52DdVB87MzGwVY152VQHd/25fH/m7tjxZ5HExAgCAo3gP1I+vzVeU1iwpxOSj287MaIxuoijeAwAAYLHiC7Z+ObzPIqNRTS+JsQFA7VG8HyTGAQAIFO+rULwH2mzON8J+rv9p9NzvYtKJMRYAGDuK9x6K9wAA1JapfrN4/+5QVNNzYxwAgDbyN6X/WboBdCPpgzEGDFHV25vIseW5kcVHjxCRHWLMy843ei8t/z1bHJP3xcsHADiK90D9rF25cptqz1Jat6QQkdfG6CaK4j0AAACWQlWf6nurPwzvtchQRI6NkQFA7VG8HyTGAQAIFKQ8FKSA1vNz/ayRc7+bOTdGAgBjx77Sw74SAIDa8nv1uSP37q7F0v1iHACAthGR9X6x/8XIxb8jUdU9YhQo6PdvklXljaXZkSXleDN7QIx5Wfnf47b+9zl/6O/X9vzer313iBEAQOdRvAfqyfdpt/N1evLwuiXFXKaa9o3RTQzFewAAACyVmTyrtN8iV8uFMS4AqD2K94PEOAAAgSfeV+GJ90DbmclHyud/t5JNLo6RAMDYUbz3ULwHAKC2/F7dtR7SSHJK94lxAADaxkReWLr4dyTfM7OZGAU27tq+Tvb3eXV+UzTmnG6W9ooZLyszeW/h79fuiBwYLx8AOo/iPVBfvkYf6/uW35TWL7l6ssppk/4hJsV7AAAAjENWfXNpz0WuErPbxbgAoNYo3g8S4wAABApSHgpSQOv5eX548fzvYGIkADB27Cs97CsBAKgtv09fXLx/dygicscYBwCgTczsRtWH50sX/y5ENb06RoEFUNUn+tx+ODxHsoRUG02RA2dmZraKMS+LLPK44t+vxckq3+WLNwBggOI9UG++Z3xxaf2SUvTT/r5l2xjd2FG8BwAAwDj0+711vsc6YXjPRa4SkT1jXABQaxTvB4lxAAACT7yvwhPvgbbjd5j/ypo1a1bGWABgrCjeeyjeAwBQV9f1e/VfR+7dHYuI7BDzAAC0ib8hf0zpwt+R/NnM7hajwAJVT5BUlc8X5kmWFD1iOTdcVfHf/x4nj/692h2/Bj4pRgAAnUbxHqi3fr9/Q9P0ntIaJqNRTW+K0Y0dxXsAAACMi1l6qO+zfjm87yKDVD+riFEBQK1RvB8kxgEACBTvq1C8B9rOLD27fP53L/1+P8dYAGCsKN57KN4DAFBLKaUbF+/dXYvZmhgJAKBNqjejxQt/F2Ly0RgDNpOqbm+qRxbnSpaS433T9YAY89T5cX1Z4e/U7ph8JF4+AHQaxXug/lJKO5rIl0vrmIzkf31Wz4zRjRXFewAAAIyTmbyotPciHn//E2MCgFqjeD9IjAMAECjeV6F4D7SdWdqrfP53LznnW8RYAGCsKN57KN4DAFBLZjZTvHd3LP1+f1WMBADQFqp6e7/I/274ot+ZWNorRoFFWLt25TZm8iqf5V9GZkuWktOXa236xvd2/u+/YOjv0/Zs8GvhPWMEANBZFO+BZvB94sN93Z47vI5JMWf7Pm+XGN3YULwHAADAOM0/BcDkvaX9F5ELV6+esRgVANQWxftBYhwAgEDxvgrFe6DtzNLjy+d/95Jz3inGAgBjRfHeQ/EeAIBaMrPVxXt3t/K39evXXz9GAgBoCxN5ZeGi342I/Dcf2BqPLPJ0M/lpcc5kcTG52NfogTMzM1vFmKem+gFV8e/U5oi8Nl4+AHQWxXugObLq80prmYwmq3yh3+/dPEY3FhTvAQAAMG7xJIALh/dfxPf0Kd05xgQAtUXxfpAYBwAgULyvQvEeaDt/375r+fzvYMzuFmMBgLGieO+heA8AQC31+/2bF+/d3cofYxwAgLbIOd/E34h+u3DR70ZEXhejwBiYWfULw5NH5kyWGD1CRHaIMU+FpQ5+E7HJj6tv24oRAEAnUbwHGuW6/n7m7aX1TAoReZvP7DqD0S0dxXsAAABMgpm8qLQH63xE9owRAUBtUbwfJMYBAAgU76tQvAfaLovcu3z+dzA2e/8YCwCMFcV7D8V7AABqqd+fvXXx3t2t/DLGAQBoC1X9j8IFvyv5a/VD3xgFxqSf0p3M5KOFeZOl5Xgze0CMeeJWrVq1tWn6RuHv0er4NfGpMQIA6CSK90Cz5Jxv4ev3+OH1TMrxvd7zYnRLRvEeAAAAk2Bma0z1m6V9WJfj79lfESMCgNqieD9IjAMAECjeV6F4D7RdX+SO5fO/g7H08BgLAIwVxXsPxXsAAGqJ4v18fhHjAAC0hYkcW7jgdyT66RgDxqx6anhWfXN57mQJOd0s7RVjnjg/hi8r/B3aHZHPxMsHgE6ieA80j4g8yNfw2cNrmhRzru+nHxajWxKK9wAAAJgU37M+u7QP63KypnfFeACgtijeDxLjAAAEivdVKN4DbSci68vnfwdjafcYCwCMFcV7D8V7AABqycy2K967u5XzYxwAgDbwm9vd/eJ+ydDFvjPJqk+LUWAyVpjJi33Wvx+ePVlCTC42kVfOzMxsFXOeGFXd2f+dvxv5O7Q7V/q18QExAgDoHIr3QDP5HvGZvo7/d3hdk0JEvlR9+CdGt2gU7wEAADApvtfsVfvW0l6sszH5XIwHAGqL4v0gMQ4AQKAg5aEgBbRel39vNhw+dwBgUthXethXAgBQSymlmxbv3d3Kn2IcAIA2yKqHFi72XclZ1Q98YxSYoCzyJBP578IxIEuKHqGq28eYJ8ZM3lf+97c3fm18c7x8AOgcivdAc6mmN5XWNhmNX+vePTc3t0WMblEo3gMAAGCSzNI+pb1Yd6M/itEAQG1RvB8kxgEACDzxvgpPvAfazsxuWz7/OxizR8RYAGCsKN57KN4DAFBLq1fPWPHe3a1cFuMAADRdzrlffVCpcLHvRKpSWYwCU2A2e3+f+wnDx4EsOcdP+unsZmm3wr+35dH/6fd7N48RAECnULwHmmu+CC7ymdL6JoWYvChGtygU7wEAADBpWeW00n6so7kyxgIAtUXxfpAYBwAgULyvQvEeaDszu3v5/O9gLN0vxgIAY0Xx3kPxHgCAWso536R47+5W/r7zta51vRgJAKDJVPUphQt9V/J//vofGKPAlIjIejN5b+F4kCVk/sOXlvaKMY/d2pUrtzHVb5b+3W2OanpujAAAOoXiPdBsOaf7Us5ZYER+4+f9Y2J0m43iPQAAACYtq768tB/raviyVAB1R/F+kBgHACBQvK9C8R5ou+rBMeXzv3vpp3SnGAsAjBXFew/FewAAamlmZmar4r27Y+n1elvGSAAATWaqny5d6LuQrPKFGAOmrN/vr8qqh/hx+OvwcSFLiMnFJvLKasMaox6rbn7AM53oL33FYAIA0B0U74HmU9V9fU1fNrzGSTFfN7Pbxug2C8V7AAAATJrvVe/m+y9+lh7x9+33jtEAQC1RvB8kxgEACBTvq1C8B9rOzLjWRURkhxgLAIwVxXsPxXsAAGqreO/uWKrfE8U4AABNZTZ7fxO5onSh70QsPSdGgWViJs/yY3HuyLEhS4weoarbx5jHxv/M2/uf//vRf1/LY+lhMQIA6AyK90A7+Pu915bWOSnE5L9WrVq1dYxuwSjeAwAAYBqqLxIu7cm6GFX9jxgLANQSxftBYhwAgEDxvgrFe6DtzGz38vnfwZitjrEAwFhRvPdQvAcAoLb8Xn35yL27Y8m5t1OMAwDQVJ0uVKn8LOd8ixgFlpGqPtpEvlU6TmRJOd7MHhBjHhtVeX/h39Xq+LXy3fHyAaAzKN4D7bB69Yz5/u1jpbVORpNVXx6jWzCK9wAAAJgG1bRfaU/WyVg6IMYCALVE8X6QGAcAIFC8r0LxHmg71bRv+fzvXtasWbMyxgIAY0Xx3kPxHgCA2somFxfv312Kzd4/xgEAaKJ+v7fOL+hnj1zguxKTd8QoUAO+sbhrVvl48ViRRcdneppZ2ivGPBb+5z2h9O9qec7rz87eOkYAAJ1A8R5oD1W9h6/tHwyvdVLMhb7f3T1GtyAU7wEAADANvq/f2fiQwnyy6qExFgCoJYr3g8Q4AACB4n0VivdA26mm55bP/87lMh/HisFUAGC8KN57KN4DAFBbfq8+f+Te3bVY2i3GAQBoIr+QP6d4ge9KLD00RoGamC+siLyteLzI4iNyseeVMzMzW8Wol2T+w0Ii3yr+u9ocnqIEoGMo3gPt4uv6yZR0FhiTb/dTulOM7hpRvAcAAMC0+B7se8N7si6m+plFjAQAaoni/SAxDgBAoHhfheI90Haq6SXl879z+X2MBADGjuK9h+I9AAC1ZZpOLd6/OxR/b7xfjAMA0EAr/GJ+wvDFvTMR+dLOO+98vZgFamTdunU38E3GS/04/XHkuJElRo9Q1e1j1EuSRV5R/ne0Ol8f15cXAEATULwH2sdMXlVa86QUPcbMZmJ0m0TxHgAAANPS5ffqV43vQ98ZIwGAWqJ4P0iMAwAQKEh5KEgBrefn+eHF8797OTdGAgBjx77Sw74SAIDa8vv0l4v37w4lazokxgEAaBqz9LDSxb0zEdk/RoGa8mO0px+r00eOHVlqjjezB8SYF01E7uB/1oVDf3b7Y+nxMQIAaD2K90D7VEVy03RMad2TQkxeFaPbJIr3AAAAmBbVtG9pX9a58KFKADVH8X6QGAcAIPDE+yo88R5oO3/P/tHy+d+16I9iJAAwdhTvPfyMGACA2lKVjxXv310KexUAaC7V9K7ixb0bOW91SjvGKFBjqrqLqZ5UOIZkCckqp5mlvWLMi+Z/zgdKf36b428C3h8vHwBaj+I90E79lO5kJqeU1j65erLJxX49eHKMbqMo3gMAAGBazGbvWtqXdS4iH46RAEAtUbwfJMYBAAgU76tQvAfaTlW+Uz7/O5eTYyQAMHYU7z2U2QAAqK2O9xUHMflKjAMA0CT9lG7lF/JfjVzYOxM9IkaBBuj3Z29dlZ3Lx5IsOiIXe145MzOzVYx6s5mlJxT/7Hbnwr7IHWMEANBqFO+B9op93O+H1z4p5oeqeo8YXRHFewAAAEzLoMiZfl3am3Ur+ukYCQDUEsX7QWIcAIBA8b4KxXugzebm5rbwc/380XO/e8kqX4ixAMDYUbz3ULwHAKC2suqhxft3t3L+mjVrVsZIAABN4W82X1y4qHcmfdVHxyjQECLSM5HX+vG7cvh4kqVG36Oq28eoN0u1Eezk01JNDooRAECrUbwH2i2rvry0/sloVOVjq1fPWIxuBMV7AAAATJNpOrG0N+tW0hdjHABQSxTvB4lxAAACxfsqFO+BNjOzW5bP/Q7G5KMxFgAYO4r3Hor3AADUlu9VXlC8f3csOc/eJUYCAGiCXq+3pV/AvzZ8Qe9Qvl7NIMaBhlFNz/Vj+KuhY0qWnuPN7P4x5s1SPTW/8Oe1Pd+rvgwiRgAArUXxHmi3VatWbV39IrJ0DpBCRF4boxtB8R4AAADT5HvTt5X2Zl0K+1AAdUfxfpAYBwAgUJDyUJACWs3M7l489zsZPSLGAgBjx77Sw74SAIDa8vv0nsX7d9diaa8YCQCgCfzN9uOKF/SORFVfFqNAQ1VrWFW+Uzq+ZPHJKqctZmMnInf0//0fhv+8tsfX4ZNjBADQWhTvgfbLOe/ka77LX8y2ObnM30/uG6O7Gor3AAAAmCYzeVVpb9alZJXvxjgAoJYo3g8S4wAABJ54X4Un3gNtZpb2KZ/7HYzJi2IsADB2FO89FO8BAKgtf2/48OL9u2sxOTxGAgBoAr9wv694Qe9GfqeqO8co0GCDb8fVTxWOMVlS9KLqCfYzMzNbxagXJGs6uvzntTgmH42XDwCtRfEe6AZ/j/Ro0/Tr0rlArp7qy6pyTveJ0f0TxXsAAABMk4nsX9qbdSm+Dz0txgEAtUTxfpAYBwAgULyvQvEeaDPV9Oryud+9VL+DjbEAwNhRvPdQvAcAoLbMZu9avH93LSbHxUgAAHUXT6b+/cjFvCNRlQ/EKNACq2dnb+Ybkf8sHWuy1Oh7VHX7GPU1MrPdy39Oq3OpX1P/PUYAAK1E8R7oDt9Xv6h0LpBCRD5TFe1jdPMo3gMAAGCa+FDlfM6NcQBALVG8HyTGAQAI7OU9FKSAVjORY4vnfgfT7/fWxVgAYOzYV3rYVwIAUFtmttrv1/83cv/uWkx+un79+uvHWAAAdeYX7YOKF/OuxNLuMQq0hG/IbpRFXuFr++LiMSdLyfE+3/vHqDep3++v8mPw7cKf0e6IvC5GAACtRPEe6I65ubkt/Jx/d+l8IKNRTW+K0c2jeA8AAIBpMktPKO3NOpYzYhwAUEsU7weJcQAAAk+8r8IT74E2yyrfLZ/7ncvvZmZmtoqxAMDYUbz3ULwHAKDW/H79i5H7dweT8+xtYiQAgLoSkV6Xf7CpKt+pysExDrSMWdrHj/NZw8edLC1+zTjNZ7tXjHmTTOTA0p/R5gzmY2tiBADQOhTvgW7x94w7mOpJpXOCjOR/ff/7zBgdxXsAAABMlb9nfUhpb9ax/CDGAQC1RPF+kBgHACBQvK9C8R5oq/nfNUq6onzudywi34qxAMBEULz3ULwHAKDW/H598sj9u4ux9PgYCQCgrvxN9pOLF/GuxOTgGAVaav7DhiZfLh5/soToRSbyymv6Ft5+Snfyf/6Po//7dierPi1GAACtQ/Ee6B6z9FA/B34+fE6QYs5W1V2quVG8BwAAwDT5PvQepb1Zp8IH2AHUHMX7QWIcAIBA8b4KxXugrczS7uXzvnvJmo6OsQDARFC891C8BwCg1kz1mOI9vGsxOShGAgCoK79Yf6R4Ee9CRC7OefYuMQq0mJnd1jR9sLgOyBKj71HV7WPURZ2cvchn4+UDQOtUv6AoXvs6EIr36DKztE/pvCCjySqn9Xq9LSneAwAAYJp8/3mv0t6sS2EfCqDuKN4PEuMAAASK91Uo3gNtZSKvK5/3HQzFCgATRvHeQ/EeAIBaM9XDivfwrsXkIzESAEAdqeo9/YK9YeQC3pWIfDhGgQ7o9Xrim5PD/dj/38haIEvN8WZ2/xj1CL/WPLHwv2l7/tdf9wNjBADQKhTvge7q8vm/2fFZUbwHAADANPVFHlzam3UpWeULMQ4AqCWK94PEOAAAgeJ9FYr3QFv5+f3F8nnfvajqf8RYAGAiKN57KN4DAFBrWfVpxXt493Khj2PFYCoAgNoxkdcWLt6dCcWpbvKN2vN97f+mtCbI4lM91dMs7RVjvpqc801U5Tul/127o2+JEQBAq1C8B7qreor7/L6vcH6QUrr77awU7wEAAKavo1+AOpT0yRgHANQSxftBYhwAgEDxvgrFe6CNtp2ZUT/HLxg95zsam71rjAYAJoLivYfiPQAAtZZT2rV4D+9iLO0WYwEA1ImZrfY3lz8uXrw7kXRq9QT0GAc6xjcoT/B18L3RdUGWFr3IRF45MzOzVYz6n/x6c1D5f9PimJyTc75FjAAAWoPiPdBtKaUd/XzYMHx+EHLVULwHAACYPhN5Zmlv1qmIHBvjAIBaong/SIwDABAo3leheA+0karuUj7nO5kNs7OzKUYDABNB8d5D8R4AgFrr93vrivfwDiZrOjrGAgCok6z61NKFuzvRw2IU6CgR+XcT+Wx5fZClRd+jqtvHqOf1U7qT///9afSfbXd8DvvFCACgNfyN/v9TuuZ1IRTvgQHfRz8jm1xROk8IqULxHgAAYPp8n969Lz8dDh+qBFBzFO8HiXEAAAIFKQ97eaCVzNIBxXO+ixE5J8YCABPDvtLDvhIAgFpLKd3Y79m/GLmHdzEm55jZmhgNAKAuOl44vqwqXcco0GHV08izpncX1ghZYrLKF3wTeP8Y9TxTPab0z7Y7etLOO1/rejECAGgFivcAKmbyhtJ5QkgVivcAAADT53v0w0t7s05F5HUxDgCoJYr3g8Q4AACBJ95X4Yn3QBuZ6qfL53z3klU+EWMBgImheO+heA8AQO35Pfv4kXt4R8Pn0gGgZlT1gX6B/t/hC3Z3kj4ZowCuNTMzs5XZ/JOANoyuFbKUqMppPts9Y9TVtWeP0j/X+tjsI2IEANAKFO8BVKpv2qw+CFc6VwiheA8AADB9pnpEaW/WqYjsH+MAgFqieD9IjAMAECjeV6F4D7SNqt7ez+9LRs/3jsbk9TEaAJgYivceivcAANSeqryxeB/vYHwWH4ixAADqwFTfUrpgdyWq+pQYBfBPvi6eapr+p7RmyFKiF5nIK3u93pZmNpNVvlv+59qc9J5YZgDQChTvAfyDnxP3NpMfl84X0u1QvAcAAJg+vhiL9+0A6o/i/SAxDgBAoCDloSAFtI5q2q94vnc1lnaL0QDAxLCv9LCvBACg9vz90d7F+3g3c17O+RYxGgDAcpovv3b6yd7porm5uS1iHMDV5NzbydfJuaPrhiw5JsfNX39EDir+/7c7l1dfOhDLDAAaj+I9gKsyS/v4+XHp8PlCuh2K9wAAANNnqj8q7c26lL7Ig2McAFBLFO8HiXEAAAJPvK/CE++BtskqXyif753MZSmlHWM0ADAxFO89FO8BAKg9s9m7Fu/jHU1WfVqMBgCwnPwN5bNKF+rORORtMQqgqNfrSVUSKa4fstScZZbu5/955dD/vf2xdEAsMQBoPIr3AIZl1UNL5wzpbijeAwAATJeZbef7sO793HUoInKHGAkA1BLF+0FiHACAQPG+CsV7oE2iRHH56LnezWSVr8ZoAGCiKN57KN4DAFB7878rEflN8V7exZh8JEYDAFhOWeW04oW6I+GbQ7FAK0z1iNIaIkvOBs+FQ/+3LuTcWFsA0HgU7wEMq768qvrhX+m8Id0MxXsAAIDpUtVHl/ZlXYuIzMVIAKCWKN4PEuMAAASK91Uo3gNtklVfVj7XOxqT18doAGCiKN57KN4DANAIJvKl4r28m7mwPzt76xgNAGA5mFm3f1Fj8rkYBbAQ1/HN3At97VwwspYIWUws7RZrCwAajeI9gBJ/v3k3P0++P3zekG6G4j0AAMB0mciBpX1Zx3JZr9fbMkYCALVE8X6QGAcAIFC8r0LxHmgTChRXTxZ5TIwGACaK4r2H4j0AAI3g7xvfVryXdzUmz4rRAACWg2l6T/EC3ZVwI8IiqOoefu6cWlxThGxGssoHYlkBQKNRvAewMX6OPMnPlT8Nnzuke6F4DwAAMF1mclxpX9axnB/jAIDaong/SIwDABAoSHkoSAGtYWbbFc/z7uZyvigQwLSwr/SwrwQAoBHM0l7Fe3lXI/Itfz+9JsYDAJimnGdvY5p+XbxAdyEi5/T7vXUxDmCz5JzuoyqfL64tQhaeP/RTulMsKwBoLIr3ADbFTA4qnT+kW6F4DwAAMFXX8T3YmcN7ss7F5LiYBwDUFsX7QWIcAIDAE++r8MR7oC26/HmCYkQ+E6MBgImjeO+heA8AQCP0+7O39nv330bu5V2OyAtjPACAaVJNLylemLsSkbfFKIBFUdXtTfXI4voiZKExOTiWFAA0FsV7AJvS7/dX+XXi6NI5RLoTivcAAADTIyJzpT1Z58LvgQA0AMX7QWIcAIBA8b4KxXugDQYPh5JzR8/x7iarvjzGAwATR/HeQ/EeAIDGME3fKN7Pu5vv88BhAJiyVatWbe0X4JOHLsidShZ5SIwDWLS5ubl/U02v9jV12fAaI2SB+d7s7GyKJQUAjUTxHsA1EZE7mMi3SucR6UYo3gMAAExP5794+R+x9OwYCQDUFsX7QWIcAIBA8b4KxXugDUzkwPI53uGYPSDGAwATR/HeQ/EeAIDGyKpvLt7POxyfyctiPACAaTBLu5UuyN2JnuhjuO5gGsDSmcgzssrPyuuNkGuIyJ6xlACgkSjeA1iIeB96wfB5RLoRivcAAABTc20T+VJpT9a19EUeHDMBgNqieD9IjAMAECjeV6F4DzSdqm7r5/MPR8/vTufs6kE/MSIAmDiK9x6K9wAANIa/j9yjeD/vckx+7HPZPkYEAJi0rPKB4gW5I8mqz49RAGPjm5lH+vo6eXi9EXJNUZWPxTICgEaieA9goXzP/NLSuUTaH4r3AAAA02GW7lfaj3UyZreMsQBAbVG8HyTGAQAIFO+rULwHms4sPad8fnc3WdPRMR4AmAqK9x6K9wAANIaZbef37z+P3M+7HpODYkQAgEnKKd3ZL7x/GLkQdye/FJEdYhzAWPVTupNvaj5aWHeEbCp/6YvcK5YRADQOxXsAC9Xr9bY0kaNK5xNpdyjeAwAATIfvt19b2o91ML/wcawYTAUA6ovi/SAxDgBAoHhfheI90GSrVq3a2ky+Uj6/OxxLz4kRAcBUULz3ULwHAKBReC9ZzFk5z94mRgQAmBS/Cb2qcBHuTLKmd8cogIkwszWm+pbS+iNkozF5fSwhAGgcivcANkf1A8Cs8tXSOUXaG4r3AAAAU7HC917nDe/FOhmTU2ImAFBrFO8HiXEAAALF+yoU74EmyyJPKp/b3U710KwYEQBMBcV7D8V7AAAapcufSd9kTA6PEQEAJmF2djb5Bff7IxfgDkVVHxnjACbpembpAF9zFw6vQUI2ktP9+rRtrB8AaBSK9wA2l+97HuXn0K+GzynS3lC8BwAAmDx/j/qY0l6si6l+VhFjAYBao3g/SIwDABAoSHkoSAFNtsI0nVo8t7sckXNiPgAwNewrPewrAQBoFDPjCykLUZWfqertY0wAgHHzN497li7AXUn1VMV+v3/DGAcwcVnkyX7e/bi0HgkZjq+Xp8fSAYBGoXgPYDFMZP/SeUXaGYr3AAAAk1c9EbK0F+tiVHWPGAsA1BrF+0FiHACAwBPvq/DEe6Cpsurzyud1xyPyyhgRAEwNxXsPxXsAABql3++vooO1saT3rF+//voxKgDAOKnKx8oX347E0gExCmBqzOz+vv5OGFmPhAzH5LhYNgDQKBTvASxG9QNAf4/6ztK5RdoXivcAAACTJSIP9n3XJcP7sK7G53GHGA0A1BrF+0FiHACAQPG+CsV7oIlyzjuZ6o/K53WHY3JxTunOMSYAmBqK9x6K9wAANI6JvL14Xyf/X1Z9fowJADAufZF7+UX2L8MX3Q7l/OoHuzEOYKpWp7Rj9cObwrok5Kr5u6ruEssGABqD4j2AxfK9z/am6cTS+UXaFYr3AAAAk+X7rfeX9mEdzdlzc3NbxGgAoNYo3g8S4wAABIr3VSjeA03U5c8ObDImH40RAcBUUbz3ULwHAKBxfA/z2OJ9nVT5eV/kwTEqAMA4+BvH1xcuuN0Jb5yxzHLON8mqh/p6/NvI+iTkHxF5aywZAGgMivcAliKntKu/X/tp6Rwj7QnFewAAgMkxs6qU89fhPVhXk1U+HqMBgNqjeD9IjAMAECjeV6F4DzSNWXqon79/HD2fic9m7xgTAEwVxXsP/QEAABpndnY2+X38rJH7OplPVvnC6tnZm8W4AABLISJzfnE9ffhi26lYenyMA1hWvhaf7WvyFyNrlJAqVenM7JaxXACgESjeA1gq3yM/p3SOkfaE4j0AAMDkmMixpT1YZyNyYIwGAGqP4v0gMQ4AQKB4X4XiPdAkKaUbq8rHy+dz53NGzrkfowKAqaJ476F4DwBAI2VN7yre28l8qs/ux6gAAEthIs8oXWg7E5FvrV27cpsYB7Ds+qqPrtZlcb2SzierPi+WCgA0AsV7AONgqm8pnWekHaF4DwAAMBkicq/S/qvLUdVdYjwAUHsU7weJcQAAAgUpDwUpoFH8vfgexXOZVJ9dfVuMCQCmjn2lh30lAACNZJZ2L97byXyyyRVZ9akxLgDAYvmbxs+VLrSdCU83QQ2Zzd41q3yiuGZJx6MnrVu37gaxVACg9ijeAxiH1bOzN+v8e9cWh+I9AADAZPhe6+ThvVfHc3mv19syxgMAtUfxfpAYBwAg8MT7KjzxHmgKVb2Hn7Onls9lwhcEAlhOFO89FO8BAGikubm5LfxevmHk3k6uknSRiMzFyAAAm8svog/yC+r/jV5gO5M/9lO6U4wDqJWU0k3N5O2FdUs6HlV9ZCwTAKg9ivcAxsXMHuDn1pnD5xppfijeAwAAjF9WfVlp79Xl+L7zYzEeAGgEiveDxDgAAIHifRWK90AT9Ho9MZOPls9j4teyE31M1xlMCwCmj+K9h+I9AACNlVXfXLy/k3+m+v149d48RgYA2Bwm8rbSxbU70Q/FKIBaqr6JKT4g+afR9Uu6Gz0ilggA1B7FewDj5Hvjp/n59bfh8400OxTvAQAAxktVH20mvy3tvbocn8vzYkQA0AgU7weJcQAAAsX7KhTvgSbIml5TPodJlSzyghgVACwLivceivcAADSWqt6+eH8nV4/I22JkAICFMrPtssrPihfWjiSLPCnGAdSaWdrL1+zpw2uYdDQiv8k57xTLAwBqjeI9gHEzk8NL5xxpbijeAwAAjI+IrPc981dK+66O58q+yB1jTADQCBTvB4lxAAACxfsqFO+BussiT/bz9ZLR85fMR+Q3/ZRuFeMCgGVB8d5D8R4AgEbz+/nxI/d3MhLV9Bof13UHUwMAXKOs+vzSBbVD+UFKaTbGAdSequ5iqicV1jLpYHzz+9JYGgBQaxTvAYybma02TZ8snXekmaF4DwAAMDbXNZP/LO25iHwtZgQAjUHxfpAYBwAgULyvQvEeqDO/Tt3Vz9Xvj5675J+h6AmgBijee7geAwDQaKrpucV7PBmNycExNgDApszNzW1hIl8qXkw7kqzpkBgH0Bg5z94mq3ygtKZJ15K+sXblym1iaQBAbVG8BzAJInIvU/1R6dwjzQvFewAAgPHggwUbT1Y9NMYEAI1B8X6QGAcAIFC8r0LxHqgrEemZyLHlc5f8M5Z2i5EBwLKheO+heA8AQKPlnG+RVX5WvM+Tkfj+7xUxOgDAxqjqo0oX0Q7lUp/BPWIcQKOklGZN5HW+jv93aF2TrsXSE2JZAEBtUbwHMCm+F9rLz7UNw+ceaV4o3gMAACxdSmlH31uxP95YzO4eowKAxqB4P0iMAwAQKEh5KEgBtWUibyuet+RfETnHR7ViMDEAWD7sKz3sKwEAaDy/n7+jeJ8npVypqi+N0QEASkz1yMIFtDPJKh+PUQCN5Rue/Xw9nze8vkl3kjUdHcsBAGqL4j2AScqqh5TOP9KsULwHAABYGhH5d99XfX14n0UGySrfXbty5TYxLgBoDIr3g8Q4AACBJ95X4Yn3QB2ZyCvL5yy5arLI02NkALCsKN57KN4DANB4Zumhxfs82Vj+6nugF8f4AABXZWa39YvkbwsXz+7E0j4xDqDRssjjssp3iuucdCF/zDndOZYDANQSxXsAkzQ7O5tM5MOlc5A0JxTvAQAAFk9E7miaTizts8ggWfXQGBcANArF+0FiHACAQPG+CsV7oG5M5IV+fv5t9HwlV4vJl81sJsYGAMuK4r2H4j0AAI23887Xup6/J/1s8V5PNpa/+Mz2jxECAP4hq76scNHsTFTltJxzP8YBNJ6q3sNUP11a76QDMXlVLAUAqCWK9wAmzWz2rtUTLEvnIWlGKN4DAAAsTj+lW5nIZ0p7LPLP/K+/P793jAwAGoXi/SAxDgBAoHhfheI9UCdm6dnZ5OLy+Uqumqz6tBgbACw7ivceivcAALQCPy9bXFTTfjFCAMDc3Ny/meo3SxfMzsTk8BgH0Br9fm+dqryzuOZJ2/P96kmvsRQAoHYo3gOYBlXdw8+7Pw6fh6QZoXgPoM1y7u1UfWin+iVfr9fbMv7PALBk1TXF91InD++tyHDSqTEyAGgciveDxDgAAIEPEleheA/UhVnax8/LC0bPUzISkS/1+/1VMToAWHYU7z0U7wEAaIVVq1ZtbaonFe/3ZFP5S1Y9JKU0G6MEgO4yS7sXLpTdicgVOaf7xjiAVvHNzo19jb/S1/olI2uftDsme8YyAIDaoXgPYFp8L3xg6Vwk9Q/FewBt5u/ZD7rKNe9Xpvohv2c9I+fZ28Q/AgCbLefcn/9Sj6vsqchGIrJ/jA0AGofi/SAxDgBAoHhfheI9UAfxxdjnjp6jpBSf11NidABQCxTvPRTvAQBoDd/bPL14vycLiB4jIneMUQJAN5mmD5Yvkh2JyGdjFEBrxTcJnzWy/klroyofj8MPALVD8R7AtKxZs2al74s+UDofSb1D8R5Am5nJKaVrX+TkrPpyM9su/nEAuEaDJ92nTxWuKWQ0V/q8JEYHAI1D8X6QGAcAIFCQ8lCQApZdTmlXPx83jJyfZCNJp/rYVgymBwD1wL7Sw74SAIDWmJ2dTf7e65vFez5ZQPSbvj98XIwTALrFbPaufjH80+jFsUMReUaMA2g13/A8xEy+UjwPSBtzmR/ze8fhB4BaoXgPYJpU9fam6Rulc5LUNxTvAbSVmc2UrnvFiJxjJof7/+bu/j/lA5gAiqoSuV8zvjdyDSHlmBwXowOARqJ4P0iMAwAQeOJ9FZ54DyynrPp8Pxd/N3puko3G0j4xPgCoDYr3Hor3AAC0iu9vXlC855OFReQ3vj960fr1668fIwWAblBNryleGLuTs1NKa2McQOuZ2e1M9ZjCuUDaGJPD49ADQK1QvAcwbX7uPc7PwfOHz0lS31C8B9BWqmnf0nVvATnD99HvVtX/SCndNP44AB1nlh7m14eTh64XZFOx9PgYHwA0EsX7QWIcAIBA8b4KxXtgOfR6vS1V06tN0hXlc5NsJCesWrVq6xgjANQGxXsPxXsAAFql+oyN3+N/OHLPJ5sXk3fknG8RYwWAdtt2Zkb94tfxm4e+JcYBdMb8uW/yhvI5QVqWM0RkLg49ANQGxXsAy0E1vaR0XpJ6huI9gLYykaNK173NS/q1/zkfNpNn5Zx3ij8aQMeYpb39mvCT0WsE2UROmJub2yJGCACNRPF+kBgHACBQvK9C8R6YNjNbbSJvL5+TZJOxtFeMEQBqheK9h+I9AACto5r2K973yWYlq5zW7/fWxVgBoL3iQ1nFi2FXIiIPinEAnZNVn28ivymdG6RFEXlGHHIAqA2K9wCWQ0rpxqZ6ZOncJPULxXsALbXCr3EXDl/zlhyTU7Lqy/1et2P8ewC0nIns7+f/lSPXA7LJ8J4cQBtQvB8kxgEACBTvq1C8B6apPzt7az/vjimfj2RTySpf6PV6W8YoAaBWKN57KN4DANA61Zezm8g5xXs/2dxsUNU9YrQA0E5Z5ROFC2CXcoKP4dqDaQDdZJae4OfC94fODdKmmHwuDjcA1AbFewDLZf5DQCZfKZ2fpF6heA+gjczs7qVr3phzfvWBoOqXXL1eT+JfDaAlqg9lm+oRhXOfXHPO52n3ANqA4v0gMQ4AQKAg5aEgBUxN9QWgft6dNXIekoXFZh8RowSA2mFf6WFfCQBAK5mlfYr3frK4mHy0L/LgGC8AtEdO6T5+obt85MLXoajqfjEOoNN8s3Mv3/QcVzpPSCvyfyLyoDjcAFALFO8BLCczq57888vh85PUKxTvAbSRmbyqdM2bYC41kS9n1UPN0sMp4gPN5u8nH+fn9JcK5zpZQPxa+PIYJQA0GsX7QWIcAIBAQcpDQQqYCtW0n59znf7c6ZJickqMEgBqiX2lh30lAACtVH1Je1b5ePH+TxabC0zktWa2XYwZAJrP3xS+oXDB61LO5cIO/IufD7c0Te8pnCukDRF5WxxqAKgFivcAlpufiy8onaOkPqF4D6CNTPWk0jVvivmFmXwkqz7fzO7mf6UVg78ZgDpbPTt7MxN5nWm6qHBek4Xl5/3Z2VvHSAGg0SjeDxLjAACE6unJpetlt5I+FeMAMAHVzxP9PPtg+fwjC8x5qrpLjBQAaonivYfiPQAAreXvbaufoV06cv8nS4vIt/z97lPWr19//Rg1ADRTSummfmE7c+RC16GoyjtjHADCqlWrtjaTg/0c2TB8zpBmJ6v8jC8bAVAnFO8B1MD1fO/7n6XzlNQjFO8BtE0/pVv59a1uv7z7vt8P3+F71CdVX8oYf1UANeLnJ0+5H0v0sBgpADQexftBYhwAgEDxvgrFe2BSsurTTOS/y+ceWXBEDoyRAkBtUbz3ULwHAKDVsqZ3F/cAZAxJx5il+8WoAaB5/A3hM8sXuA7F0sNjHACGZNWnmur/FM8d0thUT7OLQwwAy47iPYA6qAqGfl6eMHyeknqE4j2AttH5n7eUr3n1yPyTtE8wk4NE5EH9fn9V/NUBLAOecj/WnN7v87R7AO1B8X6QGAcAIFC8r0LxHhg3EVlvJm/3c+zvo+cc2ZyoyudXr56xGC0A1BbFew/FewAAWk1V7+H3/F+O7AHIuHKeanr1mpTWxsgBoDGunVW+ULiwdScmX1m3bt0NYh4ACszSw/x8+drI+UOaG5Evzc3NbRGHGACWFcV7AHXRF3mw75POKZ2vZHlD8R5A2/j95tjS9a7G2eDX4o/NP83KbLt4GQCmIAoz5w6dk2SR8evYy2O0ANAKFO8HiXEAAALF+yoU74FxyTnfxCw920y+XT7fyGbmQjN7RIwXAGqN4r2H4j0AAK1nIgcV9wFknDlfNe1HhwlAY/gb4ocULmbdismLYhwANkFE7uAbyg8XzyPSyKjqo+LwAsCyongPoE7mPzik8n/D5ytZ3lC8B9Am1dPj/dr2k+FrXaNi8mO/Nr9fNT23+vbvXq+3Zbw8AONxbd+XPsFEPlM8B8mi4tet7/BN+gDahuL9IDEOAECgeF+F4j0wBiuyyJP8nDph9Bwji01WPTTmCwC1R/HeQ/EeAIDWW716xvye/7niXoCMOfojEzmwn9KtYvwAUE9+Y3hH+ULWkYj8pt+fvXWMA8A1yDn3u1yObF/0yDi0ALCsKN4DqJus+ubSOUuWLxTvAbRJS78M9ez5L2w0eZFZul/1FKx4uQA2U/XEM74AdTJR1f1izADQGhTvB4lxAAACxfsqFO+BpTBLDzOTj5TPL7LoiHwp8aWAABqE4r2H4j0AAJ2QU7qz3/uvHNkLkEllQ9Uf6PV6EocAQIuklHY0S/uY6hGm6dSs+rT4/2oGEdnBL1TnDl24uhWRo2IcABbuOmbyQj+HLhg5p0izYvJbM7ttHFcAWDYU7wHUjb/hv6m/X/xs6bwlyxOK9wDaRDW9unSta1l+UX3A3fe7r6i+aKD6dvB4+QA2QlUfWH2Az8+fy4fOJzKOmHx5dnY2xbgBoDUo3g8S4wAABIr3VSjeA4shIv+eNb3bz6MNo+cVWWL+bJZ2i1EDQCNQvPdQvAcAoDNM9bDifoBMLiK/8bw9p3SfOAwAGsbMtvP3jo+b/0ykyGf83P758LlePRAv/vFm8Bey//CL6Fr8oD42xgFgM6nqHtW3jpTOLdKc+M3rZXFIAWDZULwHUEfV03r9PD1j+LwlyxOK9wDaxK9r3xu+znUgVZH45OqXlKq6S6/X2zLGAXTe4Fue5wv3fHv+JGOzj4iRA0CrULwfJMYBAAgU76tQvAc2h1l66HzhvvrAe/GcIkuNanpTjBsAGoPivYfiPQAAnbEmpbXVF7oX9wRkshG52PPenNKucTgA1FBKabb6fH1WfV581un7/p9XjJzTQ8kqX4g/ov76/f4N/UV9pfRCupP0jZmZma1iJAAWIed03+riVz7HSDOi35ybm/u3OKQAsCwo3gOoK1V9qp+rfx0+d8n0Q/EeQFvkPHsbv679Zfg618H8yUS+bCaHm6UnVN98GyMCOsHX/Ez1fjCrfNzPB/abE48eGaMHgNaheD9IjAMAECjeV6F4D1yT1atn/C2zPsVEPls+j8j4kr7hs94+Rg8AjUHx3kPxHgCATpn/DIvKpSN7AjKtVA8sON6qh02b3TYOC4DlscLPw9v5+8Inq8obTfVEPz8vuMr5uvCY/NT/vOsO/tia66s+uvgiOpSs+vIYB4AlEJEdfFNzVOk8Iw2Jpd3jcALAsqB4D6DOfK/7+tL5S6YbivcA2iKrPq10nSNyqV/rv1P9jMln9Hwze0C/388xNqA1cu7tVP1uwkxOKZwHZDL5iV9T7haHAABah+L9IDEOAECgeF+F4j2wMaq6s4kc5OfK90fPHTL2mFxRfUA5xg8AjULx3kPxHgCAzlGVdxb3BWTaudJUT1LVPXq93pZxeABMxorqM03V+ebvgQ738+94z4VXOR+XHD+PJf5d9UZJVi70hXD7GAeAJVqzZs1K1fRqP7cuGzrXSCOSPhiHEgCWBcV7AHVWlf7iSaTF85hMJxTvAbSFX8/eX7rOkWL+5Pn6/C80TZ4pIveqnhIeowQaxd/7PSR+OX/eVdY4mUZMXhSHAQBaieL9IDEOAECgIOWhIAVczdzc3BbzX8ohcqyfI9XT48rnDhl/uB4BaDD2lR6u4wAAdM6alNb6HuBzxb0BWa783FTfY5Yez2eHgKXp9/s393PpoSayv59XR/r5dbJnrCX7Yiw9PP4K9TX/jaWLfax/S5I1HR3jADBGftF9Rlb5Wem8I7XOn3KevUscRgCYOor3AOrO30ff0zSdWjqPyXRC8R5AS6zwa9qG4Wsc2axc7vmeibyt+obdlNKOMVugdnLOfdW0n/F0+2VMOtUPxYrBEQGAdqJ4P0iMAwAQeOJ9FZ54D4jI+qz6tOqBHH5e/HL0PCGTTlb5gqpuH4cEABqH4r2H4j0AAJ3k7+Ue6HuBs0f2BqQG0VN9j/YGP0a77Hyta10vDhmAIdXvkfsp3cnf1z05qx5qmj7p59AZnr9f/ZyaUkxeGH+1+vJhvaL4l+9Q/OL6xBgHgDHz8+uRfjH+RuncI/WNanp1HEIAmDqK9wCawET29PP2z8PnMZlOKN4DaIOc0q6laxxZcn7p94nP+7369b6/fpKZ3W7dunU3iLEDUyUid5j/RmiT43xtsndc3vzRrwePiEMDAK1F8X6QGAcAIFC8r0LxHt2UU7qzibzQ8xk/F/40em6QqcXkx349vn8cGgBoJIr3Hor3AAB0FnuhRuRcVXmnH6vH9Hq9LePQAZ0zeDiI7jL/gBDVI/zc+J6nesBN6bxZntT9vVW/319l0u2nq2SV7/piukmMBMAEVL/E8c3Lx0rnIKltfuAbTYlDCABTRfEeQFOopteUzmUy+VC8B9AGpnpY6RpHJpF0kf/n8dUXDc6XDcy2i8MAjF2/31tnlg7wNXfy1dchWdaYHB6HCABajeL9IDEOAECgeF+F4j3ar9oLquo9zdKzqw/UZpXv+Pr/6+j5QKafdJGZ7BmHCgAai7IZIYQMwuc8ge7y99tvKV0XSC3zh6zyBRM5sCogr1mzZmUcRqAVRGTO9yT3Nkt7DT7Prsf4eqdjE6kAACzfSURBVP+Wr/0Lhs6Fuubr8VLqyS8cexT+0t2KyatiHAAmyK832/oF/K3F85DUM37zjcMHAFNF8R5AU4hIz1Q/VDqfyWRD8R5AG2SV00rXODK1XG6aTjWRY+dL0hTysQQ593bKqi+fX1Pl9UaWNenUubm5LeJwAUCrUbwfJMYBAAgU76tQvEf7mNkts8hj5z9YK/JZX+u/HF37pA7x4/SKOGwA0GjV55pK1zlCCOla+Jwn0F3VF/HPl7kL1wZS+5ytKh8wkWeq6u3jkAK1ZmYzInIHS+nx1efbsqZ3m+pJZvJTX9N/H1rjTcsFa1eu3CZeav1QEJBLzGbvGuMAMGE777zz9eY/yKxy4dC5SGoYf0Pw8Th0ADBVFO8BNEnO6c6+b6qeGFI8r8lkQvEeQNOZ2W39enb58PWN1CAmv/X//JqpHun//cWq+uj+7Oyt+/3+DePwoeNSSjcWkX/3928vGPyORf9nZB2ROuUXfZEHx+EDgNajeD9IjAMAECjeV6F4j+bJOd8k59nbZJGHZNWnzhfsTd5nIl/ydf0Tz6VXX+ekjqk+EN3r9baMwwoAjUbxnhBCBuFznkC3pZR29GvBhuFrA2lczlKVd1bX9OqYxuEFpq76uVH1sBhV3cVMnjXfpTE5zkTOKazbVqW2554fkLv5Qbi49JfuTEw+EuMAMEW+MXmyn38/Lp6XpE65LKd0nzhsADA1FO8BNI2qPtHP4T8Mn9NkcqF4D6DpTOQZpesbqXXOM5OvzH9zsMj+ZunhIrLeXT8OK1qqelK6md1dNT3Xj//RvhbOGlobpM4xeVEcSgDoBIr3g8Q4AACBgtR8Tq7mQMhyxyztYyIH/SPVB7z9vet/VfH//rHq9x/VevWcd5X1SxqarHIapXsAbTJ/Lytc7wghpGuprodxaQTQUappX9N0UekaQRqbX1hVdlY9rPpMcPVliH6orzs44sCiXdvMVs8/5E3kMb629vN1driJHOtrrvoZ4LnZ5IqrrMNOpTrXYk71klUPKf2FOxWTPWMcAKbMbxwP8I3mF4vnJqlPTN4QhwwApobiPYAmMpFXls5rMplQvAfQdNWHaEvXN9LEpIvM5BRTPSKrvlxV96hK2jnnfhxuNIwfvxk/jrv4/m7/OFfPHz3upBnRk+KwAkBnULwfJMYBAAg88Z4QQpYh1UNpLN0vLsUA0AoU7wkhZBA+5wmgoqovLV0jSKtyhr+//4hf91/hx/uR/X7v5nH4gXnr1q27QUppra+Pe5ql3X29vNBU35JVPuH//dum6deFdUX+EZODY5T10e/3sx/EU4t/4a5E5L+3nZnRGAmAZdBP6VZ+kXxf8RwldcmZvgm4aRwyAJgKivcAmmjt2pXbsLedXijeA2i4FX4t2zB8bSOtzJUmck5V/qWYX08ppR39fdhjfB93uOc4P2YXDh1D0txcyHkGoIso3g8S4wAABIr3hBAy9fyJ3/0DaKPq2la45hFCSOfCXg9AZf369dfPqm8uXSdIa/MXzxmq8nkzeYeJvNDvCY8VkTt4erE00AJzc3NbmNma6tjmlHY1S3urppfMn/PV0+pNvuxr4XQPnzNaSnyWMfL68AO9b/Ev26WIvDbGAWAZ5Zxv4jeeQ/28/NvIeUrqEZFnxuECgKmgeA+gqczsdn4unzx8bpPxh+I9gCYTkXuVrm2kk6GYPwW9Xm/L+YL9/C/C5Fm+j3inz/57nsuvcixIu3J5dR7FEgCATqF4P0iMAwAQKN4TQsh0U/2cLy7BANAqFO8JIWQQPucJ4B/iwcgfKl0rSOdyqed0M/mc5+0msr/fLx6jqrc3s5lYMlhmMzMzW/V7vXVms3f1Y/PIrPo0P1avrL5IIat83I9h9Rnws/3/fXEcVzLZ/DAOTX2Ypk8V/qJdyl/7IveKcQCoAbP0bD83fzF0rpIapPo2pjhMADAVFO8BNJmfx481k9+WznEyvlC8B9BkpnpY6dpGSCFXes71vcUp8+V8k/+af78kcpBZ2sezW/VFDlWp3P9zLpZY51QFw5x7O1VFEtW0XzUj3yt8zGdXlev5ZukOpvrldSwPAOgciveDxDgAAIHiPSGETC9Z07tSSjeOSzAAtEr1uabStY8QQroWPucJ4KrM7LaDBy6UrxmEeC7z/EJVvmMin/X1cmRWPcQsPcfzeL+v3FtEdqgebBvLCtfAz7sbVV98sTqlHVX1Hj7Hh/kcn+z/fT8zOdjn/Nas6Wj/75/zeX/T53+m53zPXz2lY0SWJ5dWxzEO6/LzhXQ//0t1/MnS+ukYB4AaqT4Q6Te3U8rnLVnO9EUeHIcJACaO4j2ApvP33QeUznEyvlC8B9BkWeW00rWNkDFlg2fBZf1/pNfrSSzRZVf9feLvd6/q54XV+6TqKWH+eg6rXk/1xcLVXsBf0zn+3y8aev2k6xHZP5YSAHQSxftBYhwAgFC9rypdLwkhhIw31c9+e73elnH5BYDWYV9JCCGD8DlPAMPM/v/27gdKsqsu8HiQ0c1CXAlnqu+fVzO0EDCauAaIGCVigCBBgwQIh4ioi0ZEDRAgi0FYjSAiAuISJCqyEVhOhICBjZKF8GchCFlGEhfUgFFmJStBgkYMGGWAs/dV3ZBJ9Zs/3V3VXVXv8znne/xzoLvqTtevXlW9Wy8f6/wFTafR39F1o/Nicry4/M+LRuf8lEbnz5RSSqeNzqlpBifM2zk/h9Je/b+9zW1NCCe192N0X+p9G53bVO/v184TGq9Dux7tfsO9HmvLVfl7PrH+eWy/lMJvdN3IPtWk9NN1OYA5U55EH1ieBP+w67GrbSzHV9Z/IoCZs/EeWHTD4fDf55R+t+txrulk4z2wqJqmGXbNNWlO2zvRnvY5+LZyjpff9gHXQYvxkv3/e1/776dw7cTPv7XUdTukwyvGC+u4BegtG+/H1eUAoHLFe0nagtor1uV83zp6AZbSaCNM1wyUpJ7lPE+gS3lNeHKZEe3FEjpnh7RFjc/ByfFDXefqtN12IY/N1PVz96/chj1fuy02yutg5XB2HaPba9fKyr3KDfr4mhvYr65LKd2jLgkwh0II31yeiF/Z8fjV9vXJMju/tf4TAcyUjffAMmiv0lqOad/d9VjX5mvfmKtLDbBQynPDOV1zTZK02dLvtd+MXsctQG/ZeD+uLgcAlY33kjTbUop/PFdX5wKYERvvJWmc8zyBAynz4cwyJ/5icm5IkrpLKb6sjtDtlXN4atcN7FPtRq66HMAcW11dPbJJ6bnlcfuPk49jbU/lRcCz6j8PwEzZeA8si/Ia/FHlsf1/Jx/r2nw23gOLKqf0hq65JknaeE2KbxkOB/euoxag12y8H1eXA4DKxntJmmlXDGN8QB25AEvNxntJGuc8T+Bgcg6PL7Oi7xdNlqTDK8fL6/jcVncuN+aKNTeuX3015/z9dT2ABVAOOn+iPHZ949M8lOO72y9EqP80ADNj4z2wTJqUntn1eNfmsvEeWEQrKyuhzLBPTs40SdImyvHdMcbvrKMWoPdsvB9XlwOAysZ7SZpV4R1Ns/LdddwCLD0b7yVpnPM8gUPJOTwhx3h91wyRJN2hT5Sxeafx9NwmZWg/suOG9aomxbfX5QAWSIzxEeWg811dj2ttbSmlx9R/FoCZsfEeWDJ3zjm+susxr41n4z2wiHLOTnKXpOl2jS9bBrgjG+/H1eUAoLLxXpJmUHsuW84PrKMWoBdsvJekcc7zBA5HSulHy8xwgQ5JOlQ5f0sdndsjpXhR5w3rUzk8rS4HsGCaZnBCk+LrOh/b2sLS79V/EoCZsfEeWDZN09ynPMavmHzMa+PZeA8sohzji7tmmiRpQ+3NOTy+jlgAKhvvx9XlAKCy8V6SplyO70kpPaiOWYDesPFeksY5zxM4XDnnk8vcuGVyjkiSbi+ldFodm1svhHB8uRF/O3mj+lST4t8Mh8N71yUBFlCZZSv1JPUvTz7GtUXl+Oly8H+/+k8CMBM23gPLKMb4iJzSX3U99rX+bLwHFlGZX++fnGeSpA2U4z81KT2ljlcA9mPj/bi6HABUNt5L0lR73zDGU+qIBegVG+8laZzzPIH1KDPjzDI7rpmcJZKkcWVOPquOzK2Xc3x2143qVTn+Vl0OYMGllM4tj+sb1jzOtSU1KT2v/lMAzISN98CyKq9LzymP9a9MPva1/my8BxZNjHG1a55JktZfSuHcOl4BmGDj/bi6HABUNt5L0tS6qmnCQ+t4BegdG+8laZzzPIH1Gl+4KV41OU8kSe0+xfA7dVxuvXIDrpu8QX2rCeGkuhzAEsg5n1we2zdOPta1Je2t/wwAM2HjPbDMyoz7ja7Hv9aXjffAosk5PK1rnkmS1lP4fznGn62jFYAONt6Pq8sBQGXjvSRNoRg/WObpw+poBeglG+8laZzzPIGNSCk9qMyQKyZniiT1vW07J7wc1D2u6wb1qhjfdf8jjvj6uiTAkhgdeMb4ts7HvWbaMMYfqP8MAFNn4z2wzEZXPHYMu+lsvAcWTZn9l3TNM0nSYffx8pr5x+tYBeAAbLwfV5cDgMoGKUnaZDFen3M+to5VgN5yXClJ45znCWxUeW15vybFN3fNFknqbTH+3WAwOKqOyq2Tc7y48wb1qRjPq8sBLJnhcHDvlOJFnY99za4cX1r/CQCmzsZ7YNk1TXhoecz/+eQM0OFn4z2wSHbt2pnL7No7OcskSYfdn6aUHlvHKgAHYeP9uLocAFSueC9Jmym9Ied83zpSAXrNxntJGuc8T2Az2s2l5bXmlV3zRZJ621Z/6WVK6cTyi/9+zQ3pVzeEEI6vSwIsofIYv2uO8RfL4/3zE49/za6P3PPoo7+p/hMATJWN90AflNfrTy6P+1sn54AOLxvvgUVSZv5jumaZJOmwel+Zow+vIxWAQ7DxflxdDgAqG+8laWOlFF/WfrFqHacAvWfjvSSNc54nsFkrKyshx/jiMlO+PDljJKmX5fDDdURujTKEL+i8IX0qxkvqcgBLrn5YfMuaOaCZ1IRwUl16gKmy8R7oi/J69de6ZoEOnY33wCLJOb6ka5ZJkg5eOeb745zzA+s4BeAw2Hg/ri4HAJWN95K07j6bc3x2GaFfN56kALRsvJekcc7zBKYlpXRumSs3TM4ZSepdMf5SHY2zl3PemVL83503pEeVJ6HH1iUBeqAJ4fR2E07XPNB0a2L8L3XZAabKxnugL9orZJRj10u75oEOno33wCLJKXyga5ZJkg5Sjm9smpXvqKMUgMNk4/24uhwAVDbeS9I6yvGjTYw/VkcoAPux8V6SxjnPE5imnMPjmxQ/3DVvJKk/pTfUsTh77Zt/3TeiV70/hHDXuiRAT6SU7t8O3I6ZoGkW4/+oSw4wVTbeA31Sjl2/tzz+r5mcBzp4Nt4Di2IYwneVufWVyTkmSTpIMb5mOBgcU0cpAOtg4/24uhwAVDbeS9Lhlq5MKT28jk8AJth4L0njnOcJTFt5LfqgHOPbumaOJPWkPXUkzl75ZVdM/PL+lcP5dTmA/tmRUryoczZoWt26urp6ZF1vgKmx8R7om/rh9OcnZ4IOnI33wKJIKZ3bNcckSQcq/dfBYBDrGAVgnWy8H1eXA4DKxntJOnRNCq9vmpXvqKMTgA423kvSOOd5ArMwGAyOyjFe0jV3JKkPbckexXrFvH+e/OU96+9zzverSwL0VHlh+6yc46c7ZoSm0DDGU+pSA0yNjfdAH5Vj1ud3zQV1Z+M9sCjKfH9j1xyTJK2tSemF7ckEdYQCsAE23o+rywFAZeO9JB2iHF/qiwABDs3Ge0ka5zxPYFbaTadNSs8sr1P/umv+SNIyl1J6UB2Hs5NTelHXL+9TKcXX1uUAei7n8IQyFz4yOSe0+cpB/U/XZQaYGhvvgT7KOe8sr+Xf0DUbtDYb74FFMBwOmzKzPjU5wyRJa/qLHOPP1vEJwCbYeD+uLgcAVc7h1K55KUmK+5qUnlLHJQCHUI4rz+qYpZLUu5znCcxaSunhOaW3ds0gSVrWUgo/VcfgbLTfblJ+0U2Tv7hvNSGcXpcE4IgY42qT4se65oU2Xrs5ti4xwNTYeA/01TCE78o5Xt01H3THbLwHFkE5tjuza4ZJkm6vHNddWublg+voBGCTbLwfV5cDgKppBid0zUtJ6nl7Y4yn1FEJwGFomvDQjnkqSb3LeZ7AVmgv+NGk9MKc0s1ds0iSlq4cX1JH4GyklJ7c+Yv7VI5X7969++i6JAAjOedvKQedv9s5N7SxcnxjXV6AqbHxHuiznMMTyjzo/ZfpHSob74FFUGbVy7pmmCRp1Odyjr8cQlipYxOAKbDxflxdDgCqlNI9uualJPW0fxmdk5DzsXVMAnCYhiF8e8dclaTe5TxPYCuNzykNH+iaR5K0VMX4tjr6ZqP9BZ2/uE/leEFdDoA7uPvd7/4f2hM6y6z4wprZoQ2U3lmXFmBqbLwH+q5J6XldM0K3Z+M9sAhyjB/smmGSpPj+nMPj67gEYIpsvB9XlwOAKud8lzIfb5mcl5LUv8IHmhh/rI5HANap/SLVMk+/una+SlK/cp4nsNXaz39Sipd2zSRJWqJurGNv+soL2uM7fmHvappmWJcEoFPO4awyL3ywvMlseAJmIed4cdfM6UPekAVuU2bCFZMzQrfnOBSYd6urq0fmGC8pM+vWyRkmSX2uPRmgPSmgjksApszG+3F1OQDYT5Pi33TNTEnqRTF+qXThrhCOr2MRgA0qc/XGNXNWknqW8zyB7VJe2z7J1e8lLXFfGQ4Hx9SRN11NSr/Z8Qv7VYyX1OUAOKicw6PK3Hj/mjmidRQuq8sJMDWueA/QHqvm+5a54Fj1AKUUX1uXCmCutW8Ep5R+Ouf4pjK/Pjc5zySpR3085/C0MhrvPJ6QAMyCjffj6nIAsJ+c44e6ZqYkLX05Xp1z+Ik6DgHYpJzSn3XOW0nqUc7zBLZTzvnY8lr3JTmFm7tmlCQtcsMYf6COu+kZDgf3Li9m/6rrF/apchD743VJAA4pxviActD5B13zRIcupfDbdSkBpsbGe4CxMhPOzDH+Xde86H0xvrguE8DCaJrmhDLbn9Wk+PYyy/51zWyTpKUt/GHO4dQ6DgGYIRvvx9XlAGA/ZT5eMTkvJWnZSylemnPeWUchAFNQ5qvjSkm9z3mewDxIKT22noPUOaskaRErs+3cOuamJ6Xw9K5f1rOuWVlZCXVJAA5L0zTDPm/y3FQ5XlCXEWBqbLwHuF053np217zoe01Kz6xLBLCQcs4n5xh/qcy090/OOElansLNKYVf2bVrZ67jD4AZs/F+XF0OAPaTc/z5rpkpSUvan6aUnlxHIABTlGM8r2PuSlKvcp4nMC/az+LL8dkvltn0t5OzSpIWshxfVUfc1OzIKbyj85f1qCalX63rAbBed66bmv5+crbowDUx/kxdP4CpsfEe4Harq6tHlrn4O10zo8+llH6kLhHAwisz7cR6DHzj5LyTpIUtxutjjKfUUQfAFrHxflxdDgD2k3N+YNfMlKTlK726fc+1jj8ApqwJ4aQyb/etnb+S1J+c5wnMm+FwcEzO8fKumSVJC9aeOtqmI+fwqI5f0re+mFJ6UF0SgA0pc+RHc0p/1jFj1FFZr8fUpQOYGhvvAe4oxnhcjvFdXXOjrzVNeGhdHoClMRwO716OBx+XUrwop/RXXfNPkhag61IKv9A0zbCONwC2kI334+pyADCh/YKsrrkpSUtRmXFNCKfXkQfADOUc39M5iyWpJznPE5hXOYcnlDl1xeTckqQF6lM557vUsbZ5rn5XDl5TfEtdDoBNKQebp5a54mDzcMor31OXDWBqbLwHWKsco/5QmROfnJwbfS2EcHxdGoCllHPenWN8Uk7hv+ccP901CyVpvko3l7n1ihjjd9ZRBsA2sPF+XF0OACaU4/YXdc1NSVrw9jQpPWNlZSXUcQfAjOUcn98xjyWpNznPE5hnOeed7evkMq+umZxfkrQINc3ghDrSNqcdiOUH3jr5C3pXDmfVJQHYtMFgcFTO8fLOeaPb2teewFWXDGBqyvy9uGPm9CJvyAIH06T0lK7Z0cNuWV1dPbIuC8DSizF+W87hqTmlt5YZ+M8TM1GStr2U4qXtF0XVsQXANrLxflxdDgAmNDH+YNfclKQF7RM5xwuaprlPHXMAbJGc8/d3zGVJ6k3O8wQWQYzxuBzjr5X+rmuWSdK8Vo61HldH2ebkHM7v+gU968/Li/hddUkApmL37t1HpxR+pcwYX27SUZPim+tSAUyVK94DHNDX5Rgv7JofvSrH36/rAdA7TdMMx+8Hh2s7Z6QkbW17fSkywHyx8X5cXQ4AOpQ5edPk3JSkBWtfSvGiwWAQ62gDYBvkGK/vmNGS1Iuc5wkskuFwcEy9KN6+yXkmSXNZDufXEbZxO3fu/Mbyw96/5of3rRxfWpcEYOpyjD9XZs0n18yenpdSeHpdIoCpsvEe4MCGw8G9mxTf3jVDelMOP1mXA6DXUkonltfm56YU31zm42fWzEtJmlU5/nWO8ZdCCPesIwmAOWHj/bi6HAB0aFJ6btfslKQF6NYc42uaJjy0jjQAtlE9r7ZrXkvS0uc8T2AR5RxObVL47TLH/mFyrknSPJVSfF0dXRtXht7ju354z9rXDv+6JAAzkVJ6TE7pTzpmUF+7Jed8v7o8AFNl4z3AwZVj09PKzPj45AzpSTc2TXOfuhQAVO0Xs+QYn9SeeFpm5ScmZqckTasvpvaD+LzyPXX8ADBnbLwfV5cDgA7tF2jlHK/ump+SNK+lFC9NKT26jjIA5sBwOLx7mdH/c3JmS1Ifcp4nsMiaJjykvM6+qMyzz03ON0mai3K8uo6sjSuD7rWdP7xP5Xh5XQ6AmSoHmCe1H+R0zqKe1V5ltS4LwNTZeA9waDnGny1zY9/kHFn6cnxTXQIADiCEsNJ+gWBK4TfK6/cPd85TSVp36a1ltjy2jhoA5pSN9+PqcgBwADmHp3XNT0mav8I728/QjzvuuG+oIwyAOVJm9I93z29JWu6c5wksgzLLHpxzfFWZa5+dnHOStM39Y4xxUMfV+g1jfED5ITdN/ND+leM5dUkAZi6ldI8c4ys651GPSik8py4JwNTZeA9weFKKL+uaJUtdDk+tdx+Aw9Q0gxNyjBfkFK7tnK2SdLBy/FDOK2fUkQLAnLPxflxdDgAObEeO8fquGSpJc9JVTYxntvNqPLYAmEftF6M0Kb6lY45L0lLnPE9gmQyHg2NyjBeW+XbL5LyTpO2qPeexjqn1G58s2f2De9Qtg8HgqLokAFumzODzygzq3xVGx+2LMa7WpQCYupzjxR2zpxd5QxZYj9XV1SN7tony1pzzznr3AdiAlNKJKYVzU4pvLnP1MxNzVpJu6/NlTry2zIxHl9Fxp/EEAWAR2Hg/ri4HAAeRc3xS1wyVpG3sU+2V9mKMj6ijCoAF0H5RSpPjlzrmuiQtbc7zBJZReT3+bTmH83OMH+yafZK0peX4pDqe1ieEsFJ+wJ41P7BvxfiKuiQAW6590ZxS/FjnfFrmcvz1ugQAM+GK9wCHr8yNB5fjs492zZSlK8cL6t0GYAqGw8G9c4xPKr2mzNlPrJm7kvrYp9rPXZoQHlJHBQALxsb7cXU5ADiElOJ7u+aoJG1xN4xO7PflywALK+f4ko75LklLm/M8gWUWYxyU1+k/mVN6a5l5X52cgZK0NaUX1bG0Pu2BWvcP7FdlHX6wLgnAtkgpPTyn8I6uGbWk/XnTDE6odx9gJmy8B1ifnMPZZYZ8cXKmLFNNih8eDof3rncZgOnbUZ5PTs0xXljm7g2Tc1jSshduTim8YDAYxDoTAFhQNt6Pq8sBwCHknO+bc3xP1yyVpBn35ZzSZe2J/O1FqOpYAmBB3WPnzpRjvKRj3kvSUuY8T6AvmhBOqsd5+yZnoSRNv3Btu5copXTaYDA4qo6i9ck5vqn7h/ep8M6yFF83XhGA7TMM4dvLXP797lm1XKUUnlPvNsDM2HgPsH7tN/t1zZVlqRyHPr3eVQBmb0fTrHx3zuGpTYqvK3P4usm5LGlpuqq8Dn3WrpWVe9XHPwALzsb7cXU5ADgM7UVPyuz02l/SVvWpnOOrYoyPqGMIgCWRUjqxzPn3T8x9SVrKnOcJ9E27Z6pJ6RkpxT8uc/DfJueiJG2gfTnGD5ZeUV5P/mjpW+vI2bgY4/eVH/yFiV/Uu8rAfmZdEoBtl3PeOdrsFOOXumbWknRVuZ+7610GmBkb7wHWb/QN8kv7JX3hHe3xdr2rAGyx9ttjy3Hqg8vzzLPrc83etbNa0kKV4x/lHM52jAWwfGy8H1eXA4DDlPPKGV3zVJKm2A05h/O9FwGw3NrjyibFv+l4HpCkpcp5nkCfpZQelHN8/mjDbMeMlKSDdE2Twu+kFH6qaZoT6liZnjKcXtLxS/vWre1JA3VJAOZG+0K6nVETM2spKgfIT6x3E2CmyvHuxV1zqA95QxbYjKZphmWW3DQ5Wxa9JoTT610EYD7syDmfnGO8IKX43jKrl/J9EGkJ25dTuCzGeEp9LAOwhGy8H1eXA4B1KK/zf7FrpkrShsvx6tKv5xweec+jj/6mOm4AWHLteaadzwuStEQ5zxPgiCNCCHcdfaFnjK8ss/Hjk7NSkkp/mVJ8bc7xnCaEk8rouPN4gsxAe6XhJsWPddyIXtV+s0FdEoC5U15MP2704VHH/FrUyhPdy8pd2zG+hwCz5Yr3ABtX5siP5ZRu7poxi1h5TnhhvWsAzKmc866U0mPK88+Lcozvyjn+U9dMl7Qt/Wt5TP5ReYyeuyuE4+vDFoAlZuP9uLocAKzT6LV9x1yVpMOtPbc1pfCCphlM/4pVACyMnMNTy/PCDZPPE5K0LDnPE+COVldXjyzHgGflHC8vc3Lf5NyU1Jtuai8KklI4d8vfH2xSekrHDepdKaVH1yUBmEs55weWJ4s/7Jphi1ZK8XWDwSDWuwYwczbeA2xOzvGXu2bMotV+6V67YaDeLQAWRNM090kp/cj4uD58oMz0f5uc8ZJmXfqT9piwPBa/tz40AegJG+/H1eUAYAPKa4lzyiz95ORslaQD9MXSFSmFX8g5n1xHCQC0m+9/OKdw7cTzhiQtRc7zBDiw4XDlPzYpPbNJ8e1Njl/qmqOSlqHQXiTufTnGV5TXf2fHGB9wzDHH/Ls6CrZezvFDa29k77quLgfAXBsMBkc1Kby+Y44tUte196PeJYAtUY55L+6YR73IG7LAlOzIKV3ZNWcWqD2OQwGWQ/uBWs7hJ1MKv13m+0cm5r2k6fWX9cOsH8o536U+BAHoGRvvx9XlAGCD2guilHl61eR8laTaP7RXrmpSekaZFyfW0QEAa+ScH7YE5y5I0pqc5wlweGKM35dSeEHO8equeSppofp4eSy/qUnpuTmHR5bXe7vrQ337pZQeXm7glyducP/K4fy6JABz77jjjvuG8sTy82V+fWbNPJvzmhQ/PIzxlHpXALaMK94DbF6M8bhyHHp516xZgN7XhHBSvSsALJnyHLWaUnpiPe7fU9q333OApPVVHj/hsvJa8szV1dUj68MMgB6z8X5cXQ4ANmEwGMSU4nu75qykXrY3x3hJe/WqnPPOOioA4JDK88Z9R88h3c8vkrSQOc8TYP3KceHJOaUXlTnanivUOV8lzU3t+UjXltdyF7bn+Q2Hg2PqQ3k+pRQv6rgTfWtf+8FOXRKAhRFjPKXMsBsnZto8d5PNTsB2ccV7gOloXz+X2bJIx6BtN+acj613AYAeGD1f5fywciz8rPJa4PfLc8E1JZvxpQP3r+Wx8kcppXNDCMfXhxIAjNh4P64uBwCbtyPHeF5O4eaueStpabu1dFXO8SU5r5zhfE0ANmtlZSWMjitz/OjEc44kLWTO8wTYnPGXfo4u2vH6MlcX7RxXaRm7qb3wR3vB9Hb/Y3mMHlUfrvOvfkB+y8Qd6l0pxUvrkgAsnKZphgvyjfB72ttabzbAlrPxHmB62s1YZb4sxBuT7bGyk7cAaLVXzWpP6h1/03W6sjxP9P69cfW+W8pr5ctL58z9t0gDsK1svB9XlwOAKWnfZ25SemGZsXsnZ66kha/9AsyPtJ/Rl8f5M5omPLR9b64+/AFgqppmcEJK8WXlueez+z0XSdLC5TxPgOnJOd+lCeEhKYXn5JTeWubsZybnrqSp1Z6Dt6f90osmpeeWY5oz60U/dowfkQuofVNz4k72sxweX5cEYCHt3r376DLTn1dm2jxufvrK6E3NnHfVmwuwLcqB/Ms7ZlQv8oYsMAvtm5I5pXd2zZ056V/KMfKvhhBW6k0GgDvYuXPnN+acH1ieL56Sc3xVee64qvT5/Z5LpGXrC+Vv/d3tMVLO4VG+nAiAw2Xj/bi6HABMWfvapN2cW2Ztu1G3cwZLmvvak2tdzR6AbZVSOi2n9IaJ5yhJWpic5wkwOzHG1ZzDWaP9BDF+sMzdr07OYUmH1Q2jC97EeGHO8efaL9xcyov0Nil+rOPO9629dTkAFl5K6cQy1/ZMzLnt7BZvAgDzop6w0zWrlj6zGJiV0QmR402KnfNnG2uPQ8+sNxMADltK6R5NCKenFH4hx3hJeU75i4nnGGmxyvGjOaVX5xzO3jX+NmkAWDcb78fV5QBgRobDwTH1ggPz+J6zpNFJtaPN9e1V7J+XUnpiE8JJNtkDMG/a56fRl8HEeP3Ec5kkzXXO8wTYOjHGB+QcnppTeEM5dvzrrrks9bkmxy+15xylFC9NKbwgpfQjpfuHEO5aH0bLK+d8ctei9K4YL6hLArA02hfeZcZt89Xvw2XlCdXJvMDcaE8A6J5Xy583ZIEZ25FzOL/Mm1sn58/2FC5rT9Cstw0ANq391uv2C13a95LbDxPqF9q6Cp/mtXJMlq5sj8+aZnBC/TMGgE2x8X5cXQ4AtkB5LX5cSunJ5XX4a3O2YUraknL8dOnq0ptKL805PC3nfEbpfuUxOagPTwBYJF/fNOEh5XntgtJ7yvPdl9c8/0nSHOU8T4BtsyPGeEp7XlA5bry8zOSbJme0tNyFm8vf/odKF6cUzs05nNp+PlwfH/1ThsF5KcX39r2maYZ1SQCWyurq6pGjA78t3wCVrnRSLzCP2k0HXceD/SidVpcBYGbaTYntpvfuY8StKFzmOBSALbSjfd4przPOyim9qD4HXrf2+UmaefvK39+1TQovb1/7DQaDo+rfKABMTXsV0+73HftVXQ4Atlh77kP7/vPo5NfyOnx04l/7Wnx0EmD3zJb62Oj9qfbL6EdXpA8vH50zNO68dgNP7cz2sdSWUjqxPrZWc84760MOAJbW+P2NdGITwulNSk8ZPU+OLuSSrux6bpWkrc95ngBz4s7DEL59dE5Qjs9vUnxLdk6QFr9/KO0pf9NvLK+Ffq0cdzy53WC/a2XlXuVv/k7jP30A6JH2C0bGbw7OdgN++4K//WCu/loAAHpqGOMP5JReXY4R2zdpOo8dp9hXc4x/kFJ6dP31ALCtVlZWQs755PL89KQmpV9NKV5anhevLc9ZX5h4DpM20hdye+W5lH6vHP+cm/PKw+6xc2eqf34AAAAAAAAAAEyfzfhahPaVPlG6ovydvqr9Qs6U0mNyzve959FHf1P9WwYA9tc0zX1G39LZfjtNip+tT6qb6cb6bdnPLk/ED7r//Y/4+vqrAABgdAX8cvz5vPYKrB3Hkpvp1vYb59s3hHLOx9ZfBwBzbdeuneWpK35fzuHs8r+8ePQBXI4fHT+vdT7fSV8pfyv/pxz3vCGl8Jzyt/PIEMI31z8pAAAAAAAAAAC20fhCqStnpBRekHO8PKd408S5H9Isav/O9rQXhGn/9lJKTyyduLp6t7vVP00AYCNyzjtHJ3q3B3YxXl+ecG/Z7wn4QO0t//kPlSfmi5oQTh8MBkfVHwcAAAc1HA6OqRsNLyzHlVeVbtjvOPNQOQ4FYGm1z2vtBx9NjP+p/SCkSeH15blvvc+VWorCze17deMPY1fOaN+/q38mAAAAAAAAAAAsgDtsxo/xkpzinpIN+VpPN7bnTY//ftKLyv9+Tnv+dAjheOdQA8AWa7/Zpr1iaIzxlPHJ3um0phmcUJ6UY/2PAADAVLXHoO2V8ctx6Mmj40/HoQCwvx31y2tObb/Axsb8JWn8JZhXjL6QKMbz2g9b23/n+m8OAAAAAAAAAMCSqRvyvyfncFaO8T/X80bellO4Nqf4uTucW6Jlrr1w7nU5pStzjhePzwdLT2k31pe/kRNcqAMAAAAAAGCD2i+w2RXC8THGR6QUfirn+Ms5xv+WU3hnTvEv6wc1XR/gaLZ9trSnSfHNKcWX5RyeVnpU++HY7t27j67/fAAAAAAAAAAAMNJuzG8vpHqHi3O0Vz1vr37efX6K5q+9pT2lK9pN9aOr1cd4XntRsvbftr1QWf3nBgAAAAAAYBt87Yr57Qc45X+en2O8YPTBToyXpBTf26T4sfqhz75S1wdCWlv7hQbtml1V1vDS0YdkOZw9WuemGda1BwAAAAAAAACATRsMBkeFEI7PeeWMlMK5o/N/Unq1839mXruee0dfgJDj5fWcq/bcq3NSSk8cf1FCPtZV6gEAAAAAAJbPnYbD4d13razcK8b4nTnn7885nNXE+DMppefmHF+aY3xNTuGyJsX/Vf7vj+YUbyh9oX7QtKi1t/9vS9fklK4s9/EPyn37rdLzUwpPrx+SPaL0gHZtVlfvdre6XgAAAAAAAAAAMFdWV1ePbK+snlI6sd0YPr5YRzyn3TCeUryovZJ+u1k/j6/M3m7Wv7XUdU7NMjTeOH/7BTbe235ZQVmPi8s6vHy0ib5ekf62jfS1sozOEQIAAAAAAGAD2g+a2g+c2tpv197vQ6hRTYxnth9Q3aGUnlc/vBqVUnhB+6HW/rVXk28/8Jro0sn/3OiK8/v9rFE5nL3/75v4cOyU4XBwjG+bBgAAAAAAAACAI3bEGFebZnDC/ufXtOUcTt3/HJzbKv//89ecr9OewzN5Xs/43J4rO84B+tom+M4mf/Ztld87eVtSSqe1t7Xe/lXnBAEAAAAAAAAAAAAAAAAAAAAAAAAAAAAAAAAAAAAAAAAAAAAAAAAAAAAAAAAAAAAAAAAAAAAAAAAAAAAAAAAAAAAAAAAAAAAAAAAAAAAAAAAAAAAAAAAAAAAAAAAAAAAAAAAAAAAAAAAAAAAAAAAAAAAAAAAAAAAAAAAAAAAAAAAAAAAAAAAAAAAAAAAAAAAAAAAAAAAAAAAAAAAAAAAAAAAAAAAAAAAAAAAAAAAAAAAAAAAAAAAAAAAAAAAAAAAAAAAAAAAAAAAAAAAAAAAAAAAAAAAAAAAAAAAAAABAPxxxxP8HFDpuuqEUBpAAAAAASUVORK5CYII=;" vertex="1" parent="1">
          <mxGeometry x="166.39" y="1196" width="73.22" height="10.24" as="geometry" />
        </mxCell>
        <mxCell id="gDujGl6M3sRKTZgsyxGK-44" value="&lt;font style=&quot;font-size: 10px;&quot;&gt;Call Custom Playbook Based on Variable&lt;/font&gt;" style="text;html=1;strokeColor=none;fillColor=none;align=center;verticalAlign=middle;whiteSpace=wrap;rounded=0;" vertex="1" parent="1">
          <mxGeometry x="123" y="1052" width="60" height="30" as="geometry" />
        </mxCell>
        <mxCell id="gDujGl6M3sRKTZgsyxGK-48" style="edgeStyle=orthogonalEdgeStyle;rounded=0;orthogonalLoop=1;jettySize=auto;html=1;fontSize=10;" edge="1" parent="1" source="gDujGl6M3sRKTZgsyxGK-45" target="gDujGl6M3sRKTZgsyxGK-38">
          <mxGeometry relative="1" as="geometry" />
        </mxCell>
        <mxCell id="gDujGl6M3sRKTZgsyxGK-45" value="" style="verticalLabelPosition=bottom;html=1;verticalAlign=top;align=center;strokeColor=none;fillColor=#00BEF2;shape=mxgraph.azure.cloud_services_configuration_file;pointerEvents=1;fontSize=10;" vertex="1" parent="1">
          <mxGeometry x="49" y="958.86" width="29.45" height="31" as="geometry" />
        </mxCell>
        <mxCell id="gDujGl6M3sRKTZgsyxGK-49" value="" style="edgeStyle=orthogonalEdgeStyle;rounded=0;orthogonalLoop=1;jettySize=auto;html=1;fontSize=10;" edge="1" parent="1" source="gDujGl6M3sRKTZgsyxGK-46">
          <mxGeometry relative="1" as="geometry">
            <mxPoint x="169" y="1181" as="targetPoint" />
          </mxGeometry>
        </mxCell>
        <mxCell id="gDujGl6M3sRKTZgsyxGK-46" value="" style="aspect=fixed;html=1;points=[];align=center;image;fontSize=12;image=img/lib/azure2/general/Files.svg;" vertex="1" parent="1">
          <mxGeometry x="49" y="1164" width="31" height="33.91" as="geometry" />
        </mxCell>
        <mxCell id="gDujGl6M3sRKTZgsyxGK-47" value="Component-&lt;br&gt;Module.tf" style="text;html=1;strokeColor=none;fillColor=none;align=left;verticalAlign=middle;whiteSpace=wrap;rounded=0;fontSize=10;" vertex="1" parent="1">
          <mxGeometry x="49" y="989.86" width="60" height="30" as="geometry" />
        </mxCell>
        <mxCell id="gDujGl6M3sRKTZgsyxGK-50" value="Ansible&amp;nbsp;&lt;br&gt;Playbooks" style="text;html=1;strokeColor=none;fillColor=none;align=left;verticalAlign=middle;whiteSpace=wrap;rounded=0;fontSize=10;" vertex="1" parent="1">
          <mxGeometry x="49" y="1206.24" width="60" height="30" as="geometry" />
        </mxCell>
        <mxCell id="gDujGl6M3sRKTZgsyxGK-51" value="" style="outlineConnect=0;dashed=0;verticalLabelPosition=bottom;verticalAlign=top;align=center;html=1;shape=mxgraph.aws3.cloud_2;fillColor=#F58534;gradientColor=none;fontSize=10;" vertex="1" parent="1">
          <mxGeometry x="345" y="951.36" width="46" height="46" as="geometry" />
        </mxCell>
        <mxCell id="gDujGl6M3sRKTZgsyxGK-56" value="" style="endArrow=classic;startArrow=classic;html=1;rounded=0;fontSize=10;" edge="1" parent="1">
          <mxGeometry width="50" height="50" relative="1" as="geometry">
            <mxPoint x="247" y="973.98" as="sourcePoint" />
            <mxPoint x="329" y="973.98" as="targetPoint" />
          </mxGeometry>
        </mxCell>
        <mxCell id="gDujGl6M3sRKTZgsyxGK-57" value="AWS Cloud" style="text;html=1;strokeColor=none;fillColor=none;align=center;verticalAlign=middle;whiteSpace=wrap;rounded=0;fontSize=10;" vertex="1" parent="1">
          <mxGeometry x="338" y="995" width="60" height="30" as="geometry" />
        </mxCell>
        <mxCell id="gDujGl6M3sRKTZgsyxGK-58" value="" style="endArrow=classic;startArrow=classic;html=1;rounded=0;fontSize=10;" edge="1" parent="1">
          <mxGeometry width="50" height="50" relative="1" as="geometry">
            <mxPoint x="408" y="973.98" as="sourcePoint" />
            <mxPoint x="490" y="973.98" as="targetPoint" />
          </mxGeometry>
        </mxCell>
        <mxCell id="gDujGl6M3sRKTZgsyxGK-62" value="Infrastructure Provision" style="text;html=1;strokeColor=none;fillColor=none;align=center;verticalAlign=middle;whiteSpace=wrap;rounded=0;fontSize=10;" vertex="1" parent="1">
          <mxGeometry x="295" y="921.36" width="143" height="30" as="geometry" />
        </mxCell>
        <mxCell id="gDujGl6M3sRKTZgsyxGK-63" value="" style="outlineConnect=0;dashed=0;verticalLabelPosition=bottom;verticalAlign=top;align=center;html=1;shape=mxgraph.aws3.ec2;fillColor=#F58534;gradientColor=none;fontSize=10;" vertex="1" parent="1">
          <mxGeometry x="577.5" y="1010" width="35" height="33.5" as="geometry" />
        </mxCell>
        <mxCell id="gDujGl6M3sRKTZgsyxGK-65" value="EC2" style="text;html=1;strokeColor=none;fillColor=none;align=center;verticalAlign=middle;whiteSpace=wrap;rounded=0;fontSize=10;" vertex="1" parent="1">
          <mxGeometry x="565" y="1041" width="60" height="30" as="geometry" />
        </mxCell>
        <mxCell id="gDujGl6M3sRKTZgsyxGK-66" value="" style="dashed=0;outlineConnect=0;html=1;align=center;labelPosition=center;verticalLabelPosition=bottom;verticalAlign=top;shape=mxgraph.webicons.apache;gradientColor=#DFDEDE;fontSize=10;" vertex="1" parent="1">
          <mxGeometry x="574.3" y="1136" width="41.4" height="41.4" as="geometry" />
        </mxCell>
        <mxCell id="gDujGl6M3sRKTZgsyxGK-67" value="Apache Web Server" style="text;html=1;strokeColor=none;fillColor=none;align=center;verticalAlign=middle;whiteSpace=wrap;rounded=0;fontSize=10;" vertex="1" parent="1">
          <mxGeometry x="545" y="1176.24" width="104" height="30" as="geometry" />
        </mxCell>
        <mxCell id="gDujGl6M3sRKTZgsyxGK-68" value="Infrastructure Configuration" style="text;html=1;strokeColor=none;fillColor=none;align=center;verticalAlign=middle;whiteSpace=wrap;rounded=0;fontSize=10;" vertex="1" parent="1">
          <mxGeometry x="296.5" y="1136" width="143" height="30" as="geometry" />
        </mxCell>
      </root>
    </mxGraphModel>
  </diagram>
  <diagram id="D4zG9stqQxc-t71uG4iM" name="Page-2">
    <mxGraphModel dx="1038" dy="547" grid="0" gridSize="10" guides="1" tooltips="1" connect="1" arrows="1" fold="1" page="1" pageScale="1" pageWidth="1400" pageHeight="850" math="0" shadow="0">
      <root>
        <mxCell id="0" />
        <mxCell id="1" parent="0" />
        <mxCell id="sDCR2iQ16KqSdctMdkPT-1" value="&lt;font style=&quot;font-size: 10px;&quot;&gt;Call Custom Playbook/Script Based on Variable&lt;/font&gt;" style="text;html=1;strokeColor=none;fillColor=none;align=center;verticalAlign=middle;whiteSpace=wrap;rounded=0;" vertex="1" parent="1">
          <mxGeometry x="404" y="598" width="165" height="30" as="geometry" />
        </mxCell>
        <mxCell id="sDCR2iQ16KqSdctMdkPT-2" value="" style="strokeWidth=2;html=1;shape=mxgraph.flowchart.decision;whiteSpace=wrap;fontSize=10;" vertex="1" parent="1">
          <mxGeometry x="343" y="577" width="56" height="56" as="geometry" />
        </mxCell>
        <mxCell id="sDCR2iQ16KqSdctMdkPT-3" value="" style="edgeStyle=orthogonalEdgeStyle;rounded=0;orthogonalLoop=1;jettySize=auto;html=1;fontSize=10;endArrow=none;" edge="1" parent="1" target="sDCR2iQ16KqSdctMdkPT-2">
          <mxGeometry relative="1" as="geometry">
            <mxPoint x="371" y="554.9999999999999" as="sourcePoint" />
            <mxPoint x="371" y="684" as="targetPoint" />
          </mxGeometry>
        </mxCell>
        <mxCell id="sDCR2iQ16KqSdctMdkPT-4" value="" style="strokeWidth=2;html=1;shape=mxgraph.flowchart.annotation_2;align=left;labelPosition=right;pointerEvents=1;fontSize=10;rotation=89;" vertex="1" parent="1">
          <mxGeometry x="346" y="607" width="50" height="100" as="geometry" />
        </mxCell>
        <mxCell id="sDCR2iQ16KqSdctMdkPT-5" value="" style="edgeStyle=orthogonalEdgeStyle;rounded=0;orthogonalLoop=1;jettySize=auto;html=1;fontSize=10;" edge="1" parent="1" source="sDCR2iQ16KqSdctMdkPT-6" target="sDCR2iQ16KqSdctMdkPT-7">
          <mxGeometry relative="1" as="geometry" />
        </mxCell>
        <mxCell id="sDCR2iQ16KqSdctMdkPT-6" value="Input" style="shape=parallelogram;html=1;strokeWidth=2;perimeter=parallelogramPerimeter;whiteSpace=wrap;rounded=1;arcSize=12;size=0.23;fontSize=10;" vertex="1" parent="1">
          <mxGeometry x="343" y="407" width="65" height="39" as="geometry" />
        </mxCell>
        <mxCell id="sDCR2iQ16KqSdctMdkPT-7" value="Module" style="rounded=1;whiteSpace=wrap;html=1;absoluteArcSize=1;arcSize=14;strokeWidth=2;fontSize=10;" vertex="1" parent="1">
          <mxGeometry x="336.86" y="490" width="68.28" height="66" as="geometry" />
        </mxCell>
        <mxCell id="sDCR2iQ16KqSdctMdkPT-8" value="Nginx" style="rounded=1;whiteSpace=wrap;html=1;absoluteArcSize=1;arcSize=14;strokeWidth=2;fontSize=10;" vertex="1" parent="1">
          <mxGeometry x="288" y="682" width="64" height="64" as="geometry" />
        </mxCell>
        <mxCell id="sDCR2iQ16KqSdctMdkPT-9" value="Apache" style="rounded=1;whiteSpace=wrap;html=1;absoluteArcSize=1;arcSize=14;strokeWidth=2;fontSize=10;" vertex="1" parent="1">
          <mxGeometry x="393" y="682" width="64" height="64" as="geometry" />
        </mxCell>
      </root>
    </mxGraphModel>
  </diagram>
  <diagram id="A4Ui5mjjFWw3wj-l7zez" name="Page-3">
    <mxGraphModel dx="716" dy="-473" grid="0" gridSize="10" guides="1" tooltips="1" connect="1" arrows="1" fold="1" page="1" pageScale="1" pageWidth="1400" pageHeight="850" math="0" shadow="0">
      <root>
        <mxCell id="0" />
        <mxCell id="1" parent="0" />
        <mxCell id="DI_KEHgIsxTIEouNePQj-6" value="" style="rounded=0;whiteSpace=wrap;html=1;fontSize=10;" vertex="1" parent="1">
          <mxGeometry x="536" y="910" width="120" height="330" as="geometry" />
        </mxCell>
        <mxCell id="pyCplc6N38wuHLjxdl0M-8" value="&lt;font style=&quot;font-size: 10px;&quot;&gt;Call Dynamic Configuration based on User Input&lt;/font&gt;" style="text;html=1;strokeColor=none;fillColor=none;align=center;verticalAlign=middle;whiteSpace=wrap;rounded=0;" vertex="1" parent="1">
          <mxGeometry x="135" y="1048" width="60" height="30" as="geometry" />
        </mxCell>
        <mxCell id="pyCplc6N38wuHLjxdl0M-9" style="edgeStyle=orthogonalEdgeStyle;rounded=0;orthogonalLoop=1;jettySize=auto;html=1;fontSize=10;" edge="1" parent="1" source="pyCplc6N38wuHLjxdl0M-10">
          <mxGeometry relative="1" as="geometry">
            <mxPoint x="159" y="974.3793103448277" as="targetPoint" />
          </mxGeometry>
        </mxCell>
        <mxCell id="pyCplc6N38wuHLjxdl0M-10" value="" style="verticalLabelPosition=bottom;html=1;verticalAlign=top;align=center;strokeColor=none;fillColor=#00BEF2;shape=mxgraph.azure.cloud_services_configuration_file;pointerEvents=1;fontSize=10;" vertex="1" parent="1">
          <mxGeometry x="49" y="958.86" width="29.45" height="31" as="geometry" />
        </mxCell>
        <mxCell id="pyCplc6N38wuHLjxdl0M-11" value="" style="edgeStyle=orthogonalEdgeStyle;rounded=0;orthogonalLoop=1;jettySize=auto;html=1;fontSize=10;" edge="1" parent="1" source="pyCplc6N38wuHLjxdl0M-12">
          <mxGeometry relative="1" as="geometry">
            <mxPoint x="156" y="1181" as="targetPoint" />
          </mxGeometry>
        </mxCell>
        <mxCell id="pyCplc6N38wuHLjxdl0M-12" value="" style="aspect=fixed;html=1;points=[];align=center;image;fontSize=12;image=img/lib/azure2/general/Files.svg;" vertex="1" parent="1">
          <mxGeometry x="49" y="1164" width="31" height="33.91" as="geometry" />
        </mxCell>
        <mxCell id="pyCplc6N38wuHLjxdl0M-13" value="Base Infrastructure Provision file" style="text;html=1;strokeColor=none;fillColor=none;align=left;verticalAlign=middle;whiteSpace=wrap;rounded=0;fontSize=10;" vertex="1" parent="1">
          <mxGeometry x="49" y="997.36" width="60" height="30" as="geometry" />
        </mxCell>
        <mxCell id="pyCplc6N38wuHLjxdl0M-14" value="Base Configuration&lt;br&gt;Files" style="text;html=1;strokeColor=none;fillColor=none;align=left;verticalAlign=middle;whiteSpace=wrap;rounded=0;fontSize=10;" vertex="1" parent="1">
          <mxGeometry x="49" y="1206.24" width="60" height="30" as="geometry" />
        </mxCell>
        <mxCell id="pyCplc6N38wuHLjxdl0M-16" value="" style="endArrow=classic;startArrow=classic;html=1;rounded=0;fontSize=10;" edge="1" parent="1">
          <mxGeometry width="50" height="50" relative="1" as="geometry">
            <mxPoint x="247" y="973.98" as="sourcePoint" />
            <mxPoint x="329" y="973.98" as="targetPoint" />
          </mxGeometry>
        </mxCell>
        <mxCell id="pyCplc6N38wuHLjxdl0M-18" value="" style="endArrow=classic;startArrow=classic;html=1;rounded=0;fontSize=10;" edge="1" parent="1">
          <mxGeometry width="50" height="50" relative="1" as="geometry">
            <mxPoint x="412" y="973.98" as="sourcePoint" />
            <mxPoint x="494" y="973.98" as="targetPoint" />
          </mxGeometry>
        </mxCell>
        <mxCell id="pyCplc6N38wuHLjxdl0M-19" value="Infrastructure Provision" style="text;html=1;strokeColor=none;fillColor=none;align=center;verticalAlign=middle;whiteSpace=wrap;rounded=0;fontSize=10;" vertex="1" parent="1">
          <mxGeometry x="304" y="924" width="143" height="30" as="geometry" />
        </mxCell>
        <mxCell id="pyCplc6N38wuHLjxdl0M-22" value="" style="dashed=0;outlineConnect=0;html=1;align=center;labelPosition=center;verticalLabelPosition=bottom;verticalAlign=top;shape=mxgraph.webicons.apache;gradientColor=#DFDEDE;fontSize=10;" vertex="1" parent="1">
          <mxGeometry x="570.53" y="1134" width="43.4" height="43.4" as="geometry" />
        </mxCell>
        <mxCell id="pyCplc6N38wuHLjxdl0M-24" value="Infrastructure Configuration" style="text;html=1;strokeColor=none;fillColor=none;align=center;verticalAlign=middle;whiteSpace=wrap;rounded=0;fontSize=10;" vertex="1" parent="1">
          <mxGeometry x="296.5" y="1136" width="143" height="30" as="geometry" />
        </mxCell>
        <mxCell id="DI_KEHgIsxTIEouNePQj-4" style="edgeStyle=orthogonalEdgeStyle;rounded=0;orthogonalLoop=1;jettySize=auto;html=1;fontSize=10;" edge="1" parent="1" source="DI_KEHgIsxTIEouNePQj-1">
          <mxGeometry relative="1" as="geometry">
            <mxPoint x="202.5000000000001" y="1135.3448444234914" as="targetPoint" />
          </mxGeometry>
        </mxCell>
        <mxCell id="DI_KEHgIsxTIEouNePQj-1" value="Dynamic Infrastructure Installer file" style="rounded=1;whiteSpace=wrap;html=1;fontSize=10;" vertex="1" parent="1">
          <mxGeometry x="163" y="944" width="79" height="60" as="geometry" />
        </mxCell>
        <mxCell id="DI_KEHgIsxTIEouNePQj-5" value="Cloud" style="ellipse;shape=cloud;whiteSpace=wrap;html=1;align=center;fontSize=10;" vertex="1" parent="1">
          <mxGeometry x="331" y="954" width="80" height="48" as="geometry" />
        </mxCell>
        <mxCell id="DI_KEHgIsxTIEouNePQj-7" value="" style="verticalLabelPosition=bottom;html=1;verticalAlign=top;align=center;strokeColor=none;fillColor=#00BEF2;shape=mxgraph.azure.virtual_machine;fontSize=10;" vertex="1" parent="1">
          <mxGeometry x="571" y="924" width="50" height="40" as="geometry" />
        </mxCell>
        <mxCell id="DI_KEHgIsxTIEouNePQj-8" value="" style="verticalLabelPosition=bottom;html=1;verticalAlign=top;align=center;strokeColor=none;fillColor=#00BEF2;shape=mxgraph.azure.virtual_machine;fontSize=10;" vertex="1" parent="1">
          <mxGeometry x="571" y="1023" width="50" height="40" as="geometry" />
        </mxCell>
        <mxCell id="DI_KEHgIsxTIEouNePQj-9" value="" style="outlineConnect=0;dashed=0;verticalLabelPosition=bottom;verticalAlign=top;align=center;html=1;shape=mxgraph.aws3.mysql_db_instance;fillColor=#2E73B8;gradientColor=none;fontSize=10;" vertex="1" parent="1">
          <mxGeometry x="573" y="1078" width="40.93" height="44" as="geometry" />
        </mxCell>
        <mxCell id="DI_KEHgIsxTIEouNePQj-10" value="" style="dashed=0;outlineConnect=0;html=1;align=center;labelPosition=center;verticalLabelPosition=bottom;verticalAlign=top;shape=mxgraph.webicons.wordpress;fillColor=#35E2EE;gradientColor=#0E4D99;fontSize=10;" vertex="1" parent="1">
          <mxGeometry x="573" y="1184" width="44" height="44" as="geometry" />
        </mxCell>
        <mxCell id="DI_KEHgIsxTIEouNePQj-11" value="" style="html=1;verticalLabelPosition=bottom;align=center;labelBackgroundColor=#ffffff;verticalAlign=top;strokeWidth=2;strokeColor=#0080F0;shadow=0;dashed=0;shape=mxgraph.ios7.icons.cloud;fontSize=10;" vertex="1" parent="1">
          <mxGeometry x="521" y="894" width="30" height="30" as="geometry" />
        </mxCell>
        <mxCell id="DI_KEHgIsxTIEouNePQj-12" value="" style="verticalLabelPosition=bottom;html=1;verticalAlign=top;align=center;strokeColor=none;fillColor=#00BEF2;shape=mxgraph.azure.virtual_machine;fontSize=10;" vertex="1" parent="1">
          <mxGeometry x="571" y="974" width="50" height="40" as="geometry" />
        </mxCell>
        <mxCell id="2me4zfRFQIidw0TvKewN-2" style="edgeStyle=orthogonalEdgeStyle;rounded=0;orthogonalLoop=1;jettySize=auto;html=1;fontSize=10;" edge="1" parent="1" source="DI_KEHgIsxTIEouNePQj-2">
          <mxGeometry relative="1" as="geometry">
            <mxPoint x="505.5172497979527" y="1172" as="targetPoint" />
          </mxGeometry>
        </mxCell>
        <mxCell id="DI_KEHgIsxTIEouNePQj-2" value="Dynamic&lt;br&gt;Configuration&lt;br&gt;Installer File" style="rounded=1;whiteSpace=wrap;html=1;fontSize=10;" vertex="1" parent="1">
          <mxGeometry x="163" y="1142" width="79" height="60" as="geometry" />
        </mxCell>
      </root>
    </mxGraphModel>
  </diagram>
  <diagram id="A_g_x4fGMer7GKEQfP0Z" name="Page-4">
    <mxGraphModel dx="865" dy="-394" grid="0" gridSize="10" guides="1" tooltips="1" connect="1" arrows="1" fold="1" page="1" pageScale="1" pageWidth="1400" pageHeight="850" math="0" shadow="0">
      <root>
        <mxCell id="0" />
        <mxCell id="1" parent="0" />
        <mxCell id="lDWPfSIVELMBvMsfzFCk-1" value="" style="rounded=0;whiteSpace=wrap;html=1;fontSize=10;" vertex="1" parent="1">
          <mxGeometry x="685" y="913" width="120" height="330" as="geometry" />
        </mxCell>
        <mxCell id="lDWPfSIVELMBvMsfzFCk-3" style="edgeStyle=orthogonalEdgeStyle;rounded=0;orthogonalLoop=1;jettySize=auto;html=1;fontSize=10;" edge="1" parent="1" source="lDWPfSIVELMBvMsfzFCk-4">
          <mxGeometry relative="1" as="geometry">
            <mxPoint x="159" y="974.3793103448277" as="targetPoint" />
          </mxGeometry>
        </mxCell>
        <mxCell id="lDWPfSIVELMBvMsfzFCk-4" value="" style="verticalLabelPosition=bottom;html=1;verticalAlign=top;align=center;strokeColor=none;fillColor=#00BEF2;shape=mxgraph.azure.cloud_services_configuration_file;pointerEvents=1;fontSize=10;" vertex="1" parent="1">
          <mxGeometry x="49" y="958.86" width="29.45" height="31" as="geometry" />
        </mxCell>
        <mxCell id="1vAFbCpKFe8NF3wC4rLn-5" style="edgeStyle=orthogonalEdgeStyle;rounded=0;orthogonalLoop=1;jettySize=auto;html=1;fontSize=10;" edge="1" parent="1" source="lDWPfSIVELMBvMsfzFCk-6">
          <mxGeometry relative="1" as="geometry">
            <mxPoint x="160.66667683919275" y="1167.955" as="targetPoint" />
          </mxGeometry>
        </mxCell>
        <mxCell id="lDWPfSIVELMBvMsfzFCk-6" value="" style="aspect=fixed;html=1;points=[];align=center;image;fontSize=12;image=img/lib/azure2/general/Files.svg;" vertex="1" parent="1">
          <mxGeometry x="43" y="1151" width="31" height="33.91" as="geometry" />
        </mxCell>
        <mxCell id="lDWPfSIVELMBvMsfzFCk-7" value="Base Infrastructure Provision file" style="text;html=1;strokeColor=none;fillColor=none;align=left;verticalAlign=middle;whiteSpace=wrap;rounded=0;fontSize=10;" vertex="1" parent="1">
          <mxGeometry x="49" y="997.36" width="60" height="30" as="geometry" />
        </mxCell>
        <mxCell id="lDWPfSIVELMBvMsfzFCk-8" value="Base Configuration&lt;br&gt;Files" style="text;html=1;strokeColor=none;fillColor=none;align=left;verticalAlign=middle;whiteSpace=wrap;rounded=0;fontSize=10;" vertex="1" parent="1">
          <mxGeometry x="43" y="1193.24" width="60" height="30" as="geometry" />
        </mxCell>
        <mxCell id="lDWPfSIVELMBvMsfzFCk-10" value="" style="endArrow=classic;startArrow=classic;html=1;rounded=0;fontSize=10;" edge="1" parent="1">
          <mxGeometry width="50" height="50" relative="1" as="geometry">
            <mxPoint x="588" y="1055.58" as="sourcePoint" />
            <mxPoint x="670" y="1055.58" as="targetPoint" />
          </mxGeometry>
        </mxCell>
        <mxCell id="lDWPfSIVELMBvMsfzFCk-11" value="Infrastructure Provision" style="text;html=1;strokeColor=none;fillColor=none;align=center;verticalAlign=middle;whiteSpace=wrap;rounded=0;fontSize=10;" vertex="1" parent="1">
          <mxGeometry x="480" y="1012" width="143" height="30" as="geometry" />
        </mxCell>
        <mxCell id="lDWPfSIVELMBvMsfzFCk-12" value="" style="dashed=0;outlineConnect=0;html=1;align=center;labelPosition=center;verticalLabelPosition=bottom;verticalAlign=top;shape=mxgraph.webicons.apache;gradientColor=#DFDEDE;fontSize=10;" vertex="1" parent="1">
          <mxGeometry x="719.53" y="1136" width="43.4" height="43.4" as="geometry" />
        </mxCell>
        <mxCell id="lDWPfSIVELMBvMsfzFCk-13" value="Infrastructure Configuration" style="text;html=1;strokeColor=none;fillColor=none;align=center;verticalAlign=middle;whiteSpace=wrap;rounded=0;fontSize=10;" vertex="1" parent="1">
          <mxGeometry x="484" y="1092" width="143" height="30" as="geometry" />
        </mxCell>
        <mxCell id="lDWPfSIVELMBvMsfzFCk-15" value="&amp;nbsp;Infrastructure Installer file" style="rounded=1;whiteSpace=wrap;html=1;fontSize=10;" vertex="1" parent="1">
          <mxGeometry x="163" y="944" width="79" height="60" as="geometry" />
        </mxCell>
        <mxCell id="lDWPfSIVELMBvMsfzFCk-16" value="Cloud" style="ellipse;shape=cloud;whiteSpace=wrap;html=1;align=center;fontSize=10;" vertex="1" parent="1">
          <mxGeometry x="504" y="1032" width="80" height="48" as="geometry" />
        </mxCell>
        <mxCell id="lDWPfSIVELMBvMsfzFCk-17" value="" style="verticalLabelPosition=bottom;html=1;verticalAlign=top;align=center;strokeColor=none;fillColor=#00BEF2;shape=mxgraph.azure.virtual_machine;fontSize=10;" vertex="1" parent="1">
          <mxGeometry x="720" y="926" width="50" height="40" as="geometry" />
        </mxCell>
        <mxCell id="lDWPfSIVELMBvMsfzFCk-18" value="" style="verticalLabelPosition=bottom;html=1;verticalAlign=top;align=center;strokeColor=none;fillColor=#00BEF2;shape=mxgraph.azure.virtual_machine;fontSize=10;" vertex="1" parent="1">
          <mxGeometry x="720" y="1025" width="50" height="40" as="geometry" />
        </mxCell>
        <mxCell id="lDWPfSIVELMBvMsfzFCk-20" value="" style="dashed=0;outlineConnect=0;html=1;align=center;labelPosition=center;verticalLabelPosition=bottom;verticalAlign=top;shape=mxgraph.webicons.wordpress;fillColor=#35E2EE;gradientColor=#0E4D99;fontSize=10;" vertex="1" parent="1">
          <mxGeometry x="722" y="1186" width="44" height="44" as="geometry" />
        </mxCell>
        <mxCell id="lDWPfSIVELMBvMsfzFCk-21" value="" style="html=1;verticalLabelPosition=bottom;align=center;labelBackgroundColor=#ffffff;verticalAlign=top;strokeWidth=2;strokeColor=#0080F0;shadow=0;dashed=0;shape=mxgraph.ios7.icons.cloud;fontSize=10;" vertex="1" parent="1">
          <mxGeometry x="670" y="896" width="30" height="30" as="geometry" />
        </mxCell>
        <mxCell id="lDWPfSIVELMBvMsfzFCk-22" value="" style="verticalLabelPosition=bottom;html=1;verticalAlign=top;align=center;strokeColor=none;fillColor=#00BEF2;shape=mxgraph.azure.virtual_machine;fontSize=10;" vertex="1" parent="1">
          <mxGeometry x="720" y="976" width="50" height="40" as="geometry" />
        </mxCell>
        <mxCell id="lDWPfSIVELMBvMsfzFCk-24" value="Configuration&lt;br&gt;Installer File" style="rounded=1;whiteSpace=wrap;html=1;fontSize=10;" vertex="1" parent="1">
          <mxGeometry x="163" y="1142" width="79" height="60" as="geometry" />
        </mxCell>
        <mxCell id="lDWPfSIVELMBvMsfzFCk-27" style="edgeStyle=orthogonalEdgeStyle;rounded=0;orthogonalLoop=1;jettySize=auto;html=1;fontSize=10;" edge="1" parent="1" source="lDWPfSIVELMBvMsfzFCk-25">
          <mxGeometry relative="1" as="geometry">
            <mxPoint x="343.66668701171875" y="1069.5" as="targetPoint" />
          </mxGeometry>
        </mxCell>
        <mxCell id="lDWPfSIVELMBvMsfzFCk-25" value="" style="shape=partialRectangle;whiteSpace=wrap;html=1;bottom=1;right=1;left=1;top=0;fillColor=none;routingCenterX=-0.5;fontSize=10;rotation=-90;" vertex="1" parent="1">
          <mxGeometry x="175.5" y="1039.5" width="195" height="60" as="geometry" />
        </mxCell>
        <mxCell id="lDWPfSIVELMBvMsfzFCk-26" value="Script &lt;br&gt;Generator" style="rounded=1;whiteSpace=wrap;html=1;fontSize=10;" vertex="1" parent="1">
          <mxGeometry x="352" y="1039.5" width="79" height="60" as="geometry" />
        </mxCell>
        <mxCell id="lDWPfSIVELMBvMsfzFCk-28" value="" style="endArrow=classic;startArrow=classic;html=1;rounded=0;fontSize=10;" edge="1" parent="1">
          <mxGeometry width="50" height="50" relative="1" as="geometry">
            <mxPoint x="443" y="1056" as="sourcePoint" />
            <mxPoint x="498" y="1056" as="targetPoint" />
          </mxGeometry>
        </mxCell>
        <mxCell id="lDWPfSIVELMBvMsfzFCk-29" value="" style="endArrow=classic;html=1;rounded=0;fontSize=10;" edge="1" parent="1">
          <mxGeometry width="50" height="50" relative="1" as="geometry">
            <mxPoint x="445" y="1091" as="sourcePoint" />
            <mxPoint x="666" y="1091" as="targetPoint" />
          </mxGeometry>
        </mxCell>
        <mxCell id="lDWPfSIVELMBvMsfzFCk-31" value="&lt;font style=&quot;font-size: 10px;&quot;&gt;Based on user Input call Dynamic Infrastructure and configuration file&amp;nbsp;&lt;/font&gt;" style="text;html=1;strokeColor=none;fillColor=none;align=center;verticalAlign=middle;whiteSpace=wrap;rounded=0;fontSize=15;" vertex="1" parent="1">
          <mxGeometry x="202" y="1042" width="90" height="59" as="geometry" />
        </mxCell>
        <mxCell id="1vAFbCpKFe8NF3wC4rLn-2" value="" style="shape=image;verticalLabelPosition=bottom;labelBackgroundColor=default;verticalAlign=top;aspect=fixed;imageAspect=0;image=http://cdn.onlinewebfonts.com/svg/img_350991.png;" vertex="1" parent="1">
          <mxGeometry x="722" y="1080" width="38.69" height="40" as="geometry" />
        </mxCell>
        <mxCell id="1vAFbCpKFe8NF3wC4rLn-7" style="edgeStyle=orthogonalEdgeStyle;rounded=0;orthogonalLoop=1;jettySize=auto;html=1;fontSize=10;" edge="1" parent="1" source="1vAFbCpKFe8NF3wC4rLn-3">
          <mxGeometry relative="1" as="geometry">
            <mxPoint x="388.3333333333335" y="1035.0000101725261" as="targetPoint" />
          </mxGeometry>
        </mxCell>
        <mxCell id="1vAFbCpKFe8NF3wC4rLn-3" value="Base Infrastructure" style="rounded=1;whiteSpace=wrap;html=1;fontSize=10;" vertex="1" parent="1">
          <mxGeometry x="163" y="861" width="79" height="60" as="geometry" />
        </mxCell>
        <mxCell id="1vAFbCpKFe8NF3wC4rLn-6" style="edgeStyle=orthogonalEdgeStyle;rounded=0;orthogonalLoop=1;jettySize=auto;html=1;entryX=0.5;entryY=1;entryDx=0;entryDy=0;fontSize=10;" edge="1" parent="1" source="1vAFbCpKFe8NF3wC4rLn-4" target="lDWPfSIVELMBvMsfzFCk-26">
          <mxGeometry relative="1" as="geometry" />
        </mxCell>
        <mxCell id="1vAFbCpKFe8NF3wC4rLn-4" value="Component&lt;br&gt;Installer File" style="rounded=1;whiteSpace=wrap;html=1;fontSize=10;" vertex="1" parent="1">
          <mxGeometry x="163" y="1225.24" width="79" height="60" as="geometry" />
        </mxCell>
      </root>
    </mxGraphModel>
  </diagram>
  <diagram name="latest" id="DYx1DL9FT0iMB8VwwfoV">
    <mxGraphModel dx="865" dy="-394" grid="0" gridSize="10" guides="1" tooltips="1" connect="1" arrows="1" fold="1" page="1" pageScale="1" pageWidth="1400" pageHeight="850" math="0" shadow="0">
      <root>
        <mxCell id="EI5AzmBUSatApTaRAt_Y-0" />
        <mxCell id="EI5AzmBUSatApTaRAt_Y-1" parent="EI5AzmBUSatApTaRAt_Y-0" />
        <mxCell id="EI5AzmBUSatApTaRAt_Y-2" value="" style="rounded=0;whiteSpace=wrap;html=1;fontSize=10;" vertex="1" parent="EI5AzmBUSatApTaRAt_Y-1">
          <mxGeometry x="685" y="913" width="120" height="330" as="geometry" />
        </mxCell>
        <mxCell id="EI5AzmBUSatApTaRAt_Y-3" style="edgeStyle=orthogonalEdgeStyle;rounded=0;orthogonalLoop=1;jettySize=auto;html=1;fontSize=10;" edge="1" parent="EI5AzmBUSatApTaRAt_Y-1" source="EI5AzmBUSatApTaRAt_Y-4">
          <mxGeometry relative="1" as="geometry">
            <mxPoint x="159" y="974.3793103448277" as="targetPoint" />
          </mxGeometry>
        </mxCell>
        <mxCell id="EI5AzmBUSatApTaRAt_Y-4" value="" style="verticalLabelPosition=bottom;html=1;verticalAlign=top;align=center;strokeColor=none;fillColor=#00BEF2;shape=mxgraph.azure.cloud_services_configuration_file;pointerEvents=1;fontSize=10;" vertex="1" parent="EI5AzmBUSatApTaRAt_Y-1">
          <mxGeometry x="49" y="958.86" width="29.45" height="31" as="geometry" />
        </mxCell>
        <mxCell id="EI5AzmBUSatApTaRAt_Y-5" style="edgeStyle=orthogonalEdgeStyle;rounded=0;orthogonalLoop=1;jettySize=auto;html=1;fontSize=10;" edge="1" parent="EI5AzmBUSatApTaRAt_Y-1" source="EI5AzmBUSatApTaRAt_Y-6">
          <mxGeometry relative="1" as="geometry">
            <mxPoint x="160.66667683919275" y="1167.955" as="targetPoint" />
          </mxGeometry>
        </mxCell>
        <mxCell id="EI5AzmBUSatApTaRAt_Y-6" value="" style="aspect=fixed;html=1;points=[];align=center;image;fontSize=12;image=img/lib/azure2/general/Files.svg;" vertex="1" parent="EI5AzmBUSatApTaRAt_Y-1">
          <mxGeometry x="43" y="1151" width="31" height="33.91" as="geometry" />
        </mxCell>
        <mxCell id="EI5AzmBUSatApTaRAt_Y-7" value="Base Infrastructure Provision file" style="text;html=1;strokeColor=none;fillColor=none;align=left;verticalAlign=middle;whiteSpace=wrap;rounded=0;fontSize=10;" vertex="1" parent="EI5AzmBUSatApTaRAt_Y-1">
          <mxGeometry x="49" y="997.36" width="60" height="30" as="geometry" />
        </mxCell>
        <mxCell id="EI5AzmBUSatApTaRAt_Y-8" value="Base Configuration&lt;br&gt;Files" style="text;html=1;strokeColor=none;fillColor=none;align=left;verticalAlign=middle;whiteSpace=wrap;rounded=0;fontSize=10;" vertex="1" parent="EI5AzmBUSatApTaRAt_Y-1">
          <mxGeometry x="43" y="1193.24" width="60" height="30" as="geometry" />
        </mxCell>
        <mxCell id="EI5AzmBUSatApTaRAt_Y-9" value="" style="endArrow=classic;startArrow=classic;html=1;rounded=0;fontSize=10;" edge="1" parent="EI5AzmBUSatApTaRAt_Y-1">
          <mxGeometry width="50" height="50" relative="1" as="geometry">
            <mxPoint x="588" y="1055.58" as="sourcePoint" />
            <mxPoint x="670" y="1055.58" as="targetPoint" />
          </mxGeometry>
        </mxCell>
        <mxCell id="EI5AzmBUSatApTaRAt_Y-10" value="Infrastructure Provision" style="text;html=1;strokeColor=none;fillColor=none;align=center;verticalAlign=middle;whiteSpace=wrap;rounded=0;fontSize=10;" vertex="1" parent="EI5AzmBUSatApTaRAt_Y-1">
          <mxGeometry x="480" y="1012" width="143" height="30" as="geometry" />
        </mxCell>
        <mxCell id="EI5AzmBUSatApTaRAt_Y-11" value="" style="dashed=0;outlineConnect=0;html=1;align=center;labelPosition=center;verticalLabelPosition=bottom;verticalAlign=top;shape=mxgraph.webicons.apache;gradientColor=#DFDEDE;fontSize=10;" vertex="1" parent="EI5AzmBUSatApTaRAt_Y-1">
          <mxGeometry x="719.53" y="1136" width="43.4" height="43.4" as="geometry" />
        </mxCell>
        <mxCell id="EI5AzmBUSatApTaRAt_Y-12" value="Infrastructure Configuration" style="text;html=1;strokeColor=none;fillColor=none;align=center;verticalAlign=middle;whiteSpace=wrap;rounded=0;fontSize=10;" vertex="1" parent="EI5AzmBUSatApTaRAt_Y-1">
          <mxGeometry x="484" y="1092" width="143" height="30" as="geometry" />
        </mxCell>
        <mxCell id="EI5AzmBUSatApTaRAt_Y-13" value="&amp;nbsp;Infrastructure Installer file" style="rounded=1;whiteSpace=wrap;html=1;fontSize=10;" vertex="1" parent="EI5AzmBUSatApTaRAt_Y-1">
          <mxGeometry x="163" y="944" width="79" height="60" as="geometry" />
        </mxCell>
        <mxCell id="EI5AzmBUSatApTaRAt_Y-14" value="Cloud" style="ellipse;shape=cloud;whiteSpace=wrap;html=1;align=center;fontSize=10;" vertex="1" parent="EI5AzmBUSatApTaRAt_Y-1">
          <mxGeometry x="504" y="1032" width="80" height="48" as="geometry" />
        </mxCell>
        <mxCell id="EI5AzmBUSatApTaRAt_Y-15" value="" style="verticalLabelPosition=bottom;html=1;verticalAlign=top;align=center;strokeColor=none;fillColor=#00BEF2;shape=mxgraph.azure.virtual_machine;fontSize=10;" vertex="1" parent="EI5AzmBUSatApTaRAt_Y-1">
          <mxGeometry x="720" y="926" width="50" height="40" as="geometry" />
        </mxCell>
        <mxCell id="EI5AzmBUSatApTaRAt_Y-16" value="" style="verticalLabelPosition=bottom;html=1;verticalAlign=top;align=center;strokeColor=none;fillColor=#00BEF2;shape=mxgraph.azure.virtual_machine;fontSize=10;" vertex="1" parent="EI5AzmBUSatApTaRAt_Y-1">
          <mxGeometry x="720" y="1025" width="50" height="40" as="geometry" />
        </mxCell>
        <mxCell id="EI5AzmBUSatApTaRAt_Y-17" value="" style="dashed=0;outlineConnect=0;html=1;align=center;labelPosition=center;verticalLabelPosition=bottom;verticalAlign=top;shape=mxgraph.webicons.wordpress;fillColor=#35E2EE;gradientColor=#0E4D99;fontSize=10;" vertex="1" parent="EI5AzmBUSatApTaRAt_Y-1">
          <mxGeometry x="722" y="1186" width="44" height="44" as="geometry" />
        </mxCell>
        <mxCell id="EI5AzmBUSatApTaRAt_Y-18" value="" style="html=1;verticalLabelPosition=bottom;align=center;labelBackgroundColor=#ffffff;verticalAlign=top;strokeWidth=2;strokeColor=#0080F0;shadow=0;dashed=0;shape=mxgraph.ios7.icons.cloud;fontSize=10;" vertex="1" parent="EI5AzmBUSatApTaRAt_Y-1">
          <mxGeometry x="670" y="896" width="30" height="30" as="geometry" />
        </mxCell>
        <mxCell id="EI5AzmBUSatApTaRAt_Y-19" value="" style="verticalLabelPosition=bottom;html=1;verticalAlign=top;align=center;strokeColor=none;fillColor=#00BEF2;shape=mxgraph.azure.virtual_machine;fontSize=10;" vertex="1" parent="EI5AzmBUSatApTaRAt_Y-1">
          <mxGeometry x="720" y="976" width="50" height="40" as="geometry" />
        </mxCell>
        <mxCell id="EI5AzmBUSatApTaRAt_Y-20" value="Configuration&lt;br&gt;Installer File" style="rounded=1;whiteSpace=wrap;html=1;fontSize=10;" vertex="1" parent="EI5AzmBUSatApTaRAt_Y-1">
          <mxGeometry x="163" y="1142" width="79" height="60" as="geometry" />
        </mxCell>
        <mxCell id="EI5AzmBUSatApTaRAt_Y-21" style="edgeStyle=orthogonalEdgeStyle;rounded=0;orthogonalLoop=1;jettySize=auto;html=1;fontSize=10;" edge="1" parent="EI5AzmBUSatApTaRAt_Y-1" source="EI5AzmBUSatApTaRAt_Y-22">
          <mxGeometry relative="1" as="geometry">
            <mxPoint x="343.66668701171875" y="1069.5" as="targetPoint" />
          </mxGeometry>
        </mxCell>
        <mxCell id="EI5AzmBUSatApTaRAt_Y-22" value="" style="shape=partialRectangle;whiteSpace=wrap;html=1;bottom=1;right=1;left=1;top=0;fillColor=none;routingCenterX=-0.5;fontSize=10;rotation=-90;" vertex="1" parent="EI5AzmBUSatApTaRAt_Y-1">
          <mxGeometry x="175.5" y="1039.5" width="195" height="60" as="geometry" />
        </mxCell>
        <mxCell id="EI5AzmBUSatApTaRAt_Y-23" value="Script &lt;br&gt;Generator" style="rounded=1;whiteSpace=wrap;html=1;fontSize=10;" vertex="1" parent="EI5AzmBUSatApTaRAt_Y-1">
          <mxGeometry x="352" y="1039.5" width="79" height="60" as="geometry" />
        </mxCell>
        <mxCell id="EI5AzmBUSatApTaRAt_Y-24" value="" style="endArrow=classic;startArrow=classic;html=1;rounded=0;fontSize=10;" edge="1" parent="EI5AzmBUSatApTaRAt_Y-1">
          <mxGeometry width="50" height="50" relative="1" as="geometry">
            <mxPoint x="443" y="1056" as="sourcePoint" />
            <mxPoint x="498" y="1056" as="targetPoint" />
          </mxGeometry>
        </mxCell>
        <mxCell id="EI5AzmBUSatApTaRAt_Y-25" value="" style="endArrow=classic;html=1;rounded=0;fontSize=10;" edge="1" parent="EI5AzmBUSatApTaRAt_Y-1">
          <mxGeometry width="50" height="50" relative="1" as="geometry">
            <mxPoint x="445" y="1091" as="sourcePoint" />
            <mxPoint x="666" y="1091" as="targetPoint" />
          </mxGeometry>
        </mxCell>
        <mxCell id="EI5AzmBUSatApTaRAt_Y-26" value="&lt;font style=&quot;font-size: 10px;&quot;&gt;Based on user Input call Dynamic Infrastructure and configuration file&amp;nbsp;&lt;/font&gt;" style="text;html=1;strokeColor=none;fillColor=none;align=center;verticalAlign=middle;whiteSpace=wrap;rounded=0;fontSize=15;" vertex="1" parent="EI5AzmBUSatApTaRAt_Y-1">
          <mxGeometry x="202" y="1042" width="90" height="59" as="geometry" />
        </mxCell>
        <mxCell id="EI5AzmBUSatApTaRAt_Y-27" value="" style="shape=image;verticalLabelPosition=bottom;labelBackgroundColor=default;verticalAlign=top;aspect=fixed;imageAspect=0;image=http://cdn.onlinewebfonts.com/svg/img_350991.png;" vertex="1" parent="EI5AzmBUSatApTaRAt_Y-1">
          <mxGeometry x="722" y="1080" width="38.69" height="40" as="geometry" />
        </mxCell>
        <mxCell id="EI5AzmBUSatApTaRAt_Y-29" value="Base Infrastructure" style="rounded=1;whiteSpace=wrap;html=1;fontSize=10;" vertex="1" parent="EI5AzmBUSatApTaRAt_Y-1">
          <mxGeometry x="163" y="861" width="79" height="60" as="geometry" />
        </mxCell>
        <mxCell id="EI5AzmBUSatApTaRAt_Y-31" value="Component&lt;br&gt;Installer File" style="rounded=1;whiteSpace=wrap;html=1;fontSize=10;" vertex="1" parent="EI5AzmBUSatApTaRAt_Y-1">
          <mxGeometry x="163" y="1225.24" width="79" height="60" as="geometry" />
        </mxCell>
        <mxCell id="BhswuMssNQ9Dbfy_FSlq-0" value="" style="shape=partialRectangle;whiteSpace=wrap;html=1;bottom=1;right=1;left=1;top=0;fillColor=none;routingCenterX=-0.5;fontSize=10;rotation=-90;" vertex="1" parent="EI5AzmBUSatApTaRAt_Y-1">
          <mxGeometry x="88.13" y="1041.13" width="369.75" height="60" as="geometry" />
        </mxCell>
      </root>
    </mxGraphModel>
  </diagram>
</mxfile>
